<svg width="365" height="141" viewBox="0 0 365 141" fill="none" xmlns="http://www.w3.org/2000/svg">
<path d="M13.0859 0C29.5573 3.77604 43.0013 5.66406 53.418 5.66406C58.3008 5.66406 62.8906 5.20833 67.1875 4.29688C71.4844 3.32031 74.707 2.21354 76.8555 0.976562C77.9622 0.390625 78.6784 0.0976562 79.0039 0.0976562C79.6549 0.0976562 79.9805 0.585938 79.9805 1.5625C79.9805 3.84115 78.5156 6.86849 75.5859 10.6445C72.6562 14.3555 68.6523 17.3177 63.5742 19.5312C58.5612 21.7448 52.7669 22.8516 46.1914 22.8516C38.5742 22.8516 29.4922 21.6797 18.9453 19.3359L15.7227 56.6406C20.6706 54.1667 25.3906 52.3112 29.8828 51.0742C34.375 49.8372 38.6393 49.2188 42.6758 49.2188C55.4362 49.2188 66.1458 53.4505 74.8047 61.9141C83.5286 70.3776 87.8906 80.8268 87.8906 93.2617C87.8906 107.064 83.2682 118.424 74.0234 127.344C64.7786 136.263 52.7995 140.723 38.0859 140.723C26.8229 140.723 17.6432 137.533 10.5469 131.152C3.51562 124.707 0 117.057 0 108.203C0 102.865 1.10677 98.763 3.32031 95.8984C5.59896 92.9688 8.49609 91.5039 12.0117 91.5039C15.4622 91.5039 18.2617 92.6758 20.4102 95.0195C22.6237 97.2982 23.7305 100.293 23.7305 104.004C23.7305 106.803 23.1771 108.984 22.0703 110.547C21.0286 112.109 19.0755 113.411 16.2109 114.453C13.3464 115.56 11.9141 116.829 11.9141 118.262C11.9141 120.345 12.8906 122.656 14.8438 125.195C16.7969 127.669 19.7266 129.72 23.6328 131.348C27.6042 132.91 32.1289 133.691 37.207 133.691C47.168 133.691 54.7526 130.599 59.9609 124.414C65.2344 118.229 67.8711 108.171 67.8711 94.2383C67.8711 81.543 65.1042 72.2656 59.5703 66.4062C54.0365 60.5469 46.9727 57.6172 38.3789 57.6172C34.4727 57.6172 30.5664 58.3333 26.6602 59.7656C22.7539 61.1979 18.8477 63.3464 14.9414 66.2109C14.4857 70.7682 13.6719 73.8281 12.5 75.3906C11.3281 76.888 9.83073 77.6367 8.00781 77.6367C6.70573 77.6367 5.66406 77.181 4.88281 76.2695C4.10156 75.3581 3.71094 74.0885 3.71094 72.4609C3.71094 69.5964 5.04557 66.7643 7.71484 63.9648C8.49609 63.1185 9.04948 62.3698 9.375 61.7188L11.6211 33.0078C12.5326 21.6797 13.0208 10.6771 13.0859 0Z" fill="currentColor"/>
<path d="M153.223 0C165.918 0 176.497 4.94792 184.961 14.8438C195.443 27.0182 200.684 45.4753 200.684 70.2148C200.684 93.1966 196.126 110.71 187.012 122.754C177.897 134.733 166.895 140.723 154.004 140.723C141.569 140.723 131.185 135.677 122.852 125.586C112.435 112.891 107.227 94.5638 107.227 70.6055C107.227 47.819 112.142 29.6875 121.973 16.2109C129.85 5.40365 140.267 0 153.223 0ZM153.809 7.03125C145.215 7.03125 138.509 11.1654 133.691 19.4336C128.874 27.6367 126.465 44.694 126.465 70.6055C126.465 95.931 128.939 112.826 133.887 121.289C138.9 129.753 145.605 133.984 154.004 133.984C162.467 133.984 168.978 130.078 173.535 122.266C178.939 112.956 181.641 95.9635 181.641 71.2891C181.641 45.7682 179.102 28.6784 174.023 20.0195C168.945 11.3607 162.207 7.03125 153.809 7.03125Z" fill="currentColor"/>
<path d="M247.363 0C255.892 0 262.826 3.22266 268.164 9.66797C273.568 16.0482 276.27 24.9674 276.27 36.4258C276.27 47.4935 273.535 56.1523 268.066 62.4023C262.663 68.6523 255.794 71.7773 247.461 71.7773C239.258 71.7773 232.454 68.6198 227.051 62.3047C221.647 55.9245 218.945 47.1354 218.945 35.9375C218.945 25.0651 221.68 16.3737 227.148 9.86328C232.617 3.28776 239.355 0 247.363 0ZM247.754 4.58984C243.587 4.58984 240.169 6.77083 237.5 11.1328C234.896 15.4948 233.594 23.6328 233.594 35.5469C233.594 47.8516 234.896 56.25 237.5 60.7422C240.104 65.1693 243.424 67.3828 247.461 67.3828C251.628 67.3828 255.046 65.1693 257.715 60.7422C260.384 56.3151 261.719 48.3724 261.719 36.9141C261.719 24.2839 260.417 15.7552 257.812 11.3281C255.273 6.83594 251.921 4.58984 247.754 4.58984ZM337.793 2.53906H346.289L246.777 137.988H238.379L337.793 2.53906ZM335.742 68.9453C344.271 68.9453 351.204 72.168 356.543 78.6133C361.947 84.9935 364.648 93.9128 364.648 105.371C364.648 116.374 361.947 125.033 356.543 131.348C351.139 137.598 344.271 140.723 335.938 140.723C327.669 140.723 320.833 137.565 315.43 131.25C310.026 124.87 307.324 116.048 307.324 104.785C307.324 93.9779 310.059 85.319 315.527 78.8086C320.996 72.2331 327.734 68.9453 335.742 68.9453ZM336.133 73.5352C331.966 73.5352 328.548 75.7161 325.879 80.0781C323.275 84.4401 321.973 92.5781 321.973 104.492C321.973 116.797 323.275 125.163 325.879 129.59C328.483 134.017 331.803 136.23 335.84 136.23C340.007 136.23 343.424 134.049 346.094 129.688C348.763 125.26 350.098 117.318 350.098 105.859C350.098 93.2292 348.796 84.7005 346.191 80.2734C343.652 75.7812 340.299 73.5352 336.133 73.5352Z" fill="currentColor"/>
</svg>
