<svg width="60" height="60" viewBox="0 0 60 60" fill="none" xmlns="http://www.w3.org/2000/svg">
<path d="M17.0471 48.1883L29.1142 44.9532V41.7325C29.1142 41.499 29.2086 41.2759 29.3753 41.1122C29.5419 40.9486 29.7668 40.8575 30.0004 40.8575C30.234 40.8575 30.459 40.9486 30.6255 41.1122C30.7922 41.2759 30.8867 41.499 30.8867 41.7325V44.9532L42.9525 48.1883L40.5728 29.4841L40.8208 29.4525L40.5728 29.484C40.5433 29.2522 40.6089 29.019 40.7541 28.8357C40.8991 28.6527 41.1112 28.5347 41.3433 28.5062C41.5752 28.4778 41.8098 28.5409 41.9954 28.6827C42.1811 28.8247 42.3029 29.0342 42.3324 29.2659C42.3324 29.266 42.3324 29.266 42.3324 29.266L44.707 47.9248L54.413 42.0973L48.5638 21.9249L43.227 24.8677L43.2163 24.8735L43.2162 24.8733C43.0131 24.9728 42.7792 24.9917 42.5626 24.9264C42.3459 24.861 42.1618 24.716 42.0494 24.5199C41.9368 24.3236 41.9052 24.0918 41.9615 23.8727C42.0178 23.6537 42.1573 23.4656 42.3497 23.3463L42.3606 23.3395L42.3608 23.3398L48.6744 19.8602C48.6745 19.8601 48.6746 19.8601 48.6747 19.86C48.7913 19.7954 48.9211 19.7577 49.0542 19.7497C49.1875 19.7417 49.321 19.7635 49.4446 19.8137C49.5683 19.8639 49.6791 19.9412 49.7685 20.0402C49.8578 20.139 49.9233 20.2567 49.9599 20.3847C49.9599 20.3849 49.96 20.3851 49.96 20.3853L56.302 42.2591L56.3022 42.2597C56.3552 42.4442 56.3454 42.6408 56.2745 42.8192C56.2035 42.9975 56.0756 43.1473 55.9111 43.2466L55.9106 43.2469L44.4599 50.1206C44.4339 50.1366 44.4095 50.1459 44.3907 50.1514C44.3874 50.1524 44.3842 50.1532 44.3811 50.154C44.2648 50.2133 44.1365 50.246 44.0057 50.2499L43.9978 50.2501V50.25C43.9194 50.2499 43.8413 50.2394 43.7656 50.219L17.0471 48.1883ZM17.0471 48.1883L19.4268 29.4841L19.4268 29.484C19.4414 29.3694 19.4328 29.253 19.4016 29.1417C19.3705 29.0304 19.3173 28.9264 19.2455 28.8357C19.1737 28.7451 19.0846 28.6695 18.9835 28.613C18.8825 28.5566 18.7713 28.5203 18.6563 28.5062C18.5413 28.4921 18.4247 28.5004 18.3129 28.5306C18.2011 28.5608 18.0962 28.6124 18.0042 28.6827L18.156 28.8814L18.0042 28.6827C17.9122 28.753 17.835 28.8406 17.7771 28.9407C17.7191 29.0408 17.6817 29.1513 17.6672 29.266M17.0471 48.1883L17.6672 29.266M17.6672 29.266L17.6672 29.266L17.9152 29.2975L17.6672 29.266ZM17.6672 29.266L15.2939 47.9248L5.58789 42.0985L11.437 21.9274L16.7739 24.8702L16.7737 24.8704L16.7846 24.8758C16.9878 24.9753 17.2216 24.9942 17.4382 24.9289C17.6549 24.8635 17.839 24.7185 17.9515 24.5224C18.064 24.3261 18.0956 24.0943 18.0393 23.8752C17.983 23.6562 17.8435 23.4681 17.6512 23.3488L17.6513 23.3485L17.6401 23.3423L11.3264 19.8621C11.326 19.8619 11.3257 19.8617 11.3253 19.8615C11.209 19.7963 11.0793 19.7582 10.9461 19.7498C10.8125 19.7414 10.6787 19.7632 10.5547 19.8136C10.4308 19.8639 10.3198 19.9417 10.2305 20.0412C10.1416 20.1404 10.0766 20.2585 10.0407 20.3867C10.0406 20.3872 10.0405 20.3877 10.0403 20.3882L3.69896 42.2599C3.69893 42.26 3.69889 42.2601 3.69886 42.2602C3.64495 42.4449 3.65435 42.642 3.72548 42.8208C3.7966 42.9996 3.92519 43.1495 4.09053 43.2483C4.09059 43.2483 4.09066 43.2484 4.09072 43.2484L15.5399 50.122C15.5701 50.1406 15.5983 50.1499 15.6179 50.1549C15.6182 50.155 15.6185 50.1551 15.6189 50.1551M17.6672 29.266L15.6189 50.1551M15.6189 50.1551C15.7356 50.2133 15.8638 50.2456 15.9944 50.2499L15.9944 50.25L16.003 50.25C16.0814 50.2499 16.1595 50.2394 16.2353 50.219L15.6189 50.1551ZM30.0004 46.5288L43.7649 50.2188L16.2359 50.2188L30.0004 46.5288ZM15.653 50.1617L15.6547 50.162L15.653 50.1617Z" fill="currentColor" stroke="currentColor" stroke-width="0.5"/>
<path d="M29.4006 39.395L29.4008 39.3952C29.5638 39.5429 29.7763 39.6248 29.9964 39.6257C30.2165 39.6267 30.4297 39.5467 30.594 39.4004L30.5943 39.4001C30.8122 39.2054 33.4235 36.8521 35.9822 33.3861C38.5355 29.9275 41.0667 25.3207 41.0667 20.625C41.0667 14.524 36.2001 9.75 30.0001 9.75C23.8001 9.75 18.9336 14.524 18.9336 20.625C18.9336 25.2411 21.4643 29.8456 24.0157 33.3214C26.573 36.8051 29.1829 39.1972 29.4006 39.395ZM30.0001 11.5C35.3064 11.5 39.2941 15.4223 39.2941 20.625C39.2941 24.3594 37.4221 28.1631 35.2855 31.282C33.2736 34.2189 31.0485 36.5178 30.0051 37.5348C28.9632 36.506 26.7353 34.1782 24.7202 31.2279C22.5805 28.0952 20.7061 24.297 20.7061 20.625C20.7061 15.4223 24.6939 11.5 30.0001 11.5Z" fill="currentColor" stroke="currentColor" stroke-width="0.5"/>
<path d="M35.9762 20.625C35.9762 17.3815 33.2908 14.75 29.9998 14.75C26.7088 14.75 24.0234 17.3815 24.0234 20.625C24.0234 23.8685 26.7088 26.5 29.9998 26.5C33.2908 26.5 35.9762 23.8685 35.9762 20.625ZM29.9998 24.75C27.6777 24.75 25.796 22.8952 25.796 20.625C25.796 18.3548 27.6777 16.5 29.9998 16.5C32.322 16.5 34.2037 18.3548 34.2037 20.625C34.2037 22.8952 32.322 24.75 29.9998 24.75Z" fill="currentColor" stroke="currentColor" stroke-width="0.5"/>
</svg>
