<svg width="60" height="60" viewBox="0 0 60 60" fill="none" xmlns="http://www.w3.org/2000/svg">
<path d="M44.4167 22H28.5833C28.1634 22 27.7607 22.1774 27.4637 22.4933C27.1668 22.8091 27 23.2375 27 23.6842V30.4211C27.0038 32.8069 27.8005 35.1145 29.2492 36.936C30.6979 38.7574 32.7053 39.9754 34.9167 40.3747V50.6316H30.1667V54H42.8333V50.6316H38.0833V40.3747C40.2947 39.9754 42.3021 38.7574 43.7508 36.936C45.1995 35.1145 45.9962 32.8069 46 30.4211V23.6842C46 23.2375 45.8332 22.8091 45.5363 22.4933C45.2393 22.1774 44.8366 22 44.4167 22ZM42.8333 30.4211C42.8333 32.2078 42.1661 33.9213 40.9783 35.1847C39.7906 36.4481 38.1797 37.1579 36.5 37.1579C34.8203 37.1579 33.2094 36.4481 32.0217 35.1847C30.8339 33.9213 30.1667 32.2078 30.1667 30.4211V25.3684H42.8333V30.4211Z" fill="currentColor"/>
<path d="M28.4019 6H20.4111C19.9872 6 19.5808 6.17438 19.281 6.48479C18.9813 6.79519 18.813 7.21619 18.813 7.65517V19.8538C17.26 20.796 15.9897 22.1658 15.1433 23.8109C14.2969 25.456 13.9076 27.3119 14.0185 29.1724V52.3448C14.0185 52.7838 14.1869 53.2048 14.4866 53.5152C14.7863 53.8256 15.1928 54 15.6167 54H23.6074V50.6897H17.2148V29.1724C17.2148 23.8957 20.7803 22.5186 20.9161 22.4673L22.0093 22.0883V9.31034H26.8037V17.5862H30V7.65517C30 7.21619 29.8316 6.79519 29.5319 6.48479C29.2322 6.17438 28.8257 6 28.4019 6Z" fill="currentColor"/>
</svg>
