<svg width="31" height="43" viewBox="0 0 31 43" fill="none" xmlns="http://www.w3.org/2000/svg">
<path d="M26.0655 0.781738C26.1061 0.805344 26.1451 0.845915 26.1879 0.850341C27.1875 0.958041 27.99 1.99668 27.9886 2.98515C27.9738 13.061 27.9739 23.1368 27.9871 33.2118C27.9886 34.3176 27.0459 35.3872 25.8169 35.3902C25.6473 35.3909 25.4775 35.3902 25.2784 35.3902C25.2658 35.5259 25.2481 35.6314 25.2474 35.7369C25.2444 36.2274 25.2526 36.7187 25.2423 37.2093C25.2386 37.3782 25.2135 37.5537 25.1596 37.7123C25.0726 37.9654 24.8837 38.1099 24.6042 38.1114C24.374 38.1122 24.1432 38.1114 23.8924 38.1114C23.8783 38.2376 23.8599 38.3312 23.8591 38.4257C23.8562 39.0025 23.8547 39.5794 23.8583 40.1562C23.8613 40.6342 24.0708 40.8393 24.5606 40.8401C26.2897 40.8423 28.0188 40.8408 29.7487 40.8415C29.8593 40.8415 29.97 40.8349 30.0799 40.846C30.4406 40.8836 30.7224 41.1683 30.7512 41.5165C30.7814 41.8765 30.5631 42.1627 30.1787 42.2512C30.0489 42.2815 29.9139 42.3006 29.7804 42.3006C28.0882 42.3036 26.3952 42.3065 24.703 42.3014C23.5603 42.2984 22.7969 41.6397 22.5343 40.8061C22.4472 40.531 22.4133 40.2322 22.403 39.9423C22.3831 39.3551 22.3971 38.7665 22.3971 38.1336C22.1699 38.1247 21.9677 38.1122 21.7649 38.1107C21.2832 38.1085 21.0678 37.8997 21.0678 37.4261C21.0678 36.8862 21.0678 36.3462 21.0685 35.8062C21.0685 35.686 21.0685 35.5657 21.0685 35.4558C20.7654 35.3776 10.6939 35.3496 10.0418 35.4204C10.0345 35.5288 10.019 35.6454 10.019 35.762C10.0168 36.3263 10.0197 36.8913 10.019 37.4556C10.0183 37.8842 9.79327 38.1077 9.36469 38.1107C9.15888 38.1122 8.95303 38.1107 8.72067 38.1107C8.70813 38.2516 8.69122 38.3571 8.69049 38.4633C8.68753 38.9789 8.70004 39.4946 8.68602 40.0094C8.672 40.531 8.55397 41.0208 8.21612 41.4457C7.74548 42.038 7.12291 42.2962 6.38967 42.2999C4.70926 42.3088 3.02885 42.2977 1.34918 42.3058C0.852727 42.308 0.455135 42.1893 0.309814 41.65C0.309814 41.5763 0.309814 41.5025 0.309814 41.4295C0.497182 40.9758 0.837244 40.8275 1.32115 40.8334C3.06131 40.8526 4.80221 40.8423 6.54311 40.8401C7.00784 40.8393 7.22248 40.6298 7.22617 40.1754C7.2306 39.5868 7.22912 38.9981 7.22617 38.4094C7.22543 38.3165 7.20404 38.2243 7.18929 38.1107C6.96577 38.1107 6.77108 38.1114 6.5756 38.1107C6.17136 38.11 5.99428 37.9801 5.8947 37.5921C5.8615 37.4637 5.8438 37.3273 5.84232 37.1945C5.83642 36.704 5.8416 36.2134 5.83865 35.7229C5.83791 35.6188 5.818 35.5148 5.80472 35.3909C5.58416 35.3909 5.4012 35.3953 5.21826 35.3902C3.96422 35.357 3.09822 34.2601 3.0997 33.2384C3.11076 23.1434 3.11145 13.0477 3.09891 2.95269C3.09743 1.97086 3.92735 0.930009 4.9291 0.851079C4.98516 0.846653 5.03897 0.805344 5.09356 0.781738C12.0837 0.781738 19.0746 0.781738 26.0655 0.781738ZM4.49752 18.1243C4.49752 23.0446 4.49752 27.9641 4.49752 32.8843C4.49752 33.0068 4.4813 33.1329 4.50343 33.2517C4.5949 33.7371 4.74175 33.9488 5.24189 33.9281C5.30311 33.9259 5.36429 33.9281 5.42551 33.9281C12.1693 33.9281 18.913 33.9281 25.6561 33.9281C25.7785 33.9281 25.9017 33.9259 26.0234 33.92C26.2573 33.9082 26.4262 33.7865 26.4897 33.5689C26.5465 33.3726 26.5819 33.1624 26.5819 32.9581C26.5863 23.0446 26.5855 13.131 26.584 3.21752C26.584 3.0722 26.5796 2.92098 26.5442 2.78156C26.4483 2.40682 26.2492 2.2615 25.8582 2.25412C25.797 2.25265 25.7357 2.25339 25.6745 2.25339C18.9189 2.25339 12.1626 2.25339 5.40707 2.25339C5.3333 2.25339 5.25959 2.25191 5.18656 2.25412C4.83912 2.26519 4.6436 2.40461 4.55213 2.74762C4.5086 2.90991 4.49903 3.08474 4.49903 3.2544C4.49756 8.21079 4.49752 13.1679 4.49752 18.1243ZM7.30736 35.4123C7.30072 35.8674 7.28818 36.2783 7.31327 36.6899C7.76988 36.6899 8.17928 36.6899 8.60123 36.6899C8.60123 36.2532 8.60123 35.8438 8.60123 35.4123C8.16896 35.4123 7.75955 35.4123 7.30736 35.4123ZM23.7669 35.4189C23.3125 35.4189 22.9031 35.4189 22.4849 35.4189C22.4849 35.8571 22.4849 36.2665 22.4849 36.7054C22.929 36.7187 23.3472 36.7305 23.7669 36.6995C23.7669 36.2459 23.7669 35.8453 23.7669 35.4189Z" fill="currentColor"/>
<path d="M15.5292 29.1367C13.6364 29.2186 12.1308 27.578 12.0733 25.8216C12.0062 23.7975 13.6305 22.1835 15.5934 22.2093C17.4206 22.2336 19.1276 23.734 19.0074 25.922C18.9129 27.6333 17.4287 29.2237 15.5292 29.1367ZM14.813 23.8307C13.7308 24.1427 13.3901 25.2824 13.5014 25.9102C13.7331 27.218 14.8078 27.8428 15.7557 27.7226C16.7612 27.595 17.5261 26.8322 17.5969 25.742C17.656 24.8317 16.8682 23.8985 16.2736 23.869C16.2736 24.0158 16.2847 24.1612 16.2714 24.305C16.2315 24.7483 15.9792 24.9977 15.5743 25.0058C15.1176 25.0154 14.8528 24.7712 14.8152 24.2961C14.8027 24.153 14.813 24.0077 14.813 23.8307Z" fill="currentColor"/>
<path d="M15.5419 4.98451C16.2286 4.98451 16.9154 4.98451 17.6021 4.98525C18.0425 4.98598 18.348 5.26261 18.3325 5.67423C18.3148 6.15003 17.9687 6.38534 17.6029 6.38239C16.2293 6.37207 14.8551 6.36543 13.4823 6.38534C12.9682 6.39272 12.5838 5.85717 12.828 5.35629C12.9519 5.10327 13.1503 4.97713 13.4439 4.98156C14.1432 4.99115 14.8426 4.98451 15.5419 4.98451Z" fill="currentColor"/>
</svg>
