<svg width="41" height="41" viewBox="0 0 41 41" fill="none" xmlns="http://www.w3.org/2000/svg">
<path d="M34.8504 34.645V29.52C34.8504 28.085 34.6454 26.65 33.8254 25.215C33.0054 23.78 31.9804 22.55 30.5454 21.73C29.1104 20.705 26.0354 20.5 24.6004 20.5L21.3204 23.985L22.5504 26.65V32.8L20.5004 35.055L18.4504 32.8V26.65L19.8854 23.985L16.4004 20.5C14.7604 20.5 11.6854 20.705 10.2504 21.73C8.81539 22.55 7.99539 23.78 7.17539 25.215C6.35539 26.65 6.15039 27.88 6.15039 29.52V34.645C6.15039 34.645 11.4804 36.9 20.5004 36.9C29.5204 36.9 34.8504 34.645 34.8504 34.645Z" fill="currentColor"/>
<path d="M20.5006 4.30505C16.6056 4.30505 14.3506 7.99505 14.9656 12.0951C15.5806 16.1951 17.6306 19.0651 20.5006 19.0651C23.3706 19.0651 25.4206 16.1951 26.0356 12.0951C26.6506 7.79005 24.3956 4.30505 20.5006 4.30505Z" fill="currentColor"/>
</svg>
