<svg width="41" height="41" viewBox="0 0 41 41" fill="none" xmlns="http://www.w3.org/2000/svg">
<path d="M36.729 6.83337H33.0276V9.11115H36.4443V34.1667H4.55541V9.11115H7.97208V6.83337H4.27069C4.00446 6.83782 3.74172 6.89468 3.49746 7.00069C3.25321 7.1067 3.03223 7.25979 2.84715 7.45121C2.66207 7.64264 2.51652 7.86865 2.4188 8.11633C2.32108 8.36402 2.27311 8.62853 2.27764 8.89476V34.3831C2.27311 34.6493 2.32108 34.9138 2.4188 35.1615C2.51652 35.4092 2.66207 35.6352 2.84715 35.8267C3.03223 36.0181 3.25321 36.1712 3.49746 36.2772C3.74172 36.3832 4.00446 36.44 4.27069 36.4445H36.729C36.9953 36.44 37.258 36.3832 37.5023 36.2772C37.7465 36.1712 37.9675 36.0181 38.1526 35.8267C38.3376 35.6352 38.4832 35.4092 38.5809 35.1615C38.6786 34.9138 38.7266 34.6493 38.7221 34.3831V8.89476C38.7266 8.62853 38.6786 8.36402 38.5809 8.11633C38.4832 7.86865 38.3376 7.64264 38.1526 7.45121C37.9675 7.25979 37.7465 7.1067 37.5023 7.00069C37.258 6.89468 36.9953 6.83782 36.729 6.83337Z" fill="currentColor"/>
<path d="M9.11133 15.9445H11.3891V18.2222H9.11133V15.9445Z" fill="currentColor"/>
<path d="M15.9453 15.9445H18.2231V18.2222H15.9453V15.9445Z" fill="currentColor"/>
<path d="M22.7773 15.9445H25.0551V18.2222H22.7773V15.9445Z" fill="currentColor"/>
<path d="M29.6113 15.9445H31.8891V18.2222H29.6113V15.9445Z" fill="currentColor"/>
<path d="M9.11133 21.6389H11.3891V23.9167H9.11133V21.6389Z" fill="currentColor"/>
<path d="M15.9453 21.6389H18.2231V23.9167H15.9453V21.6389Z" fill="currentColor"/>
<path d="M22.7773 21.6389H25.0551V23.9167H22.7773V21.6389Z" fill="currentColor"/>
<path d="M29.6113 21.6389H31.8891V23.9167H29.6113V21.6389Z" fill="currentColor"/>
<path d="M9.11133 27.3334H11.3891V29.6112H9.11133V27.3334Z" fill="currentColor"/>
<path d="M15.9453 27.3334H18.2231V29.6112H15.9453V27.3334Z" fill="currentColor"/>
<path d="M22.7773 27.3334H25.0551V29.6112H22.7773V27.3334Z" fill="currentColor"/>
<path d="M29.6113 27.3334H31.8891V29.6112H29.6113V27.3334Z" fill="currentColor"/>
<path d="M11.3889 11.3889C11.6909 11.3889 11.9806 11.269 12.1942 11.0554C12.4078 10.8418 12.5278 10.5521 12.5278 10.2501V3.41672C12.5278 3.11467 12.4078 2.82499 12.1942 2.6114C11.9806 2.39782 11.6909 2.27783 11.3889 2.27783C11.0868 2.27783 10.7972 2.39782 10.5836 2.6114C10.37 2.82499 10.25 3.11467 10.25 3.41672V10.2501C10.25 10.5521 10.37 10.8418 10.5836 11.0554C10.7972 11.269 11.0868 11.3889 11.3889 11.3889Z" fill="currentColor"/>
<path d="M29.6115 11.3889C29.9136 11.3889 30.2033 11.269 30.4169 11.0554C30.6304 10.8418 30.7504 10.5521 30.7504 10.2501V3.41672C30.7504 3.11467 30.6304 2.82499 30.4169 2.6114C30.2033 2.39782 29.9136 2.27783 29.6115 2.27783C29.3095 2.27783 29.0198 2.39782 28.8062 2.6114C28.5926 2.82499 28.4727 3.11467 28.4727 3.41672V10.2501C28.4727 10.5521 28.5926 10.8418 28.8062 11.0554C29.0198 11.269 29.3095 11.3889 29.6115 11.3889Z" fill="currentColor"/>
<path d="M14.8047 6.83337H26.1936V9.11115H14.8047V6.83337Z" fill="currentColor"/>
</svg>
