<svg width="32" height="32" viewBox="0 0 32 32" fill="none" xmlns="http://www.w3.org/2000/svg">
<path d="M13.2601 9.25806L13.2603 9.25852C13.3945 9.57096 13.4493 9.91182 13.4196 10.2506C13.3899 10.5894 13.2767 10.9155 13.0902 11.1999L13.0899 11.2004L10.4257 15.2712L10.2695 15.5098L10.3954 15.7657C11.6474 18.3114 13.712 20.3676 16.2633 21.6085L16.521 21.7338L16.7593 21.5748L20.7701 18.9012L20.7709 18.9007C21.0559 18.7099 21.3841 18.5936 21.7256 18.5622C22.0671 18.5309 22.4111 18.5855 22.726 18.7211L22.7269 18.7215L30.2277 21.936C30.638 22.1125 30.9802 22.4171 31.203 22.8043C31.4255 23.1909 31.517 23.6392 31.464 24.0821C31.2008 26.1248 30.2033 28.0019 28.6576 29.363C27.1113 30.7245 25.1223 31.4766 23.062 31.4786C10.6217 31.4784 0.500144 21.3567 0.5 8.91641C0.502124 6.85622 1.25418 4.86727 2.61568 3.32107C3.97679 1.77533 5.85393 0.777798 7.8966 0.514681C8.33945 0.461639 8.7876 0.553171 9.1742 0.775653C9.56134 0.998446 9.86595 1.34058 10.0425 1.75088L13.2601 9.25806Z" stroke="#C1A771"/>
<path d="M19.2437 11.7294C19.2389 11.7052 19.2357 11.6807 19.2325 11.6562C19.2301 11.639 19.2268 11.6225 19.2252 11.6054C19.221 11.563 19.2188 11.5204 19.2188 11.4777V5.0723C19.2188 4.73249 19.3537 4.4066 19.594 4.16632C19.8343 3.92604 20.1602 3.79105 20.5 3.79105C20.8398 3.79105 21.1657 3.92604 21.406 4.16632C21.6463 4.4066 21.7812 4.73249 21.7812 5.0723V8.38529L27.2815 2.88504C27.4005 2.76607 27.5417 2.67169 27.6972 2.6073C27.8526 2.54291 28.0192 2.50977 28.1875 2.50977C28.3558 2.50977 28.5224 2.54291 28.6778 2.6073C28.8333 2.67169 28.9745 2.76607 29.0935 2.88504C29.2125 3.00402 29.3069 3.14527 29.3712 3.30072C29.4356 3.45618 29.4688 3.62279 29.4688 3.79105C29.4688 3.95931 29.4356 4.12592 29.3712 4.28137C29.3069 4.43683 29.2125 4.57808 29.0935 4.69705L23.5933 10.1973H26.9062C27.2461 10.1973 27.5719 10.3323 27.8122 10.5726C28.0525 10.8128 28.1875 11.1387 28.1875 11.4785C28.1875 11.8184 28.0525 12.1442 27.8122 12.3845C27.5719 12.6248 27.2461 12.7598 26.9062 12.7598H20.5C20.4577 12.7598 20.4156 12.7576 20.3736 12.7534C20.3546 12.7515 20.3363 12.7479 20.3176 12.7454C20.295 12.7422 20.2721 12.7395 20.2495 12.735C20.2284 12.7307 20.2077 12.7249 20.1869 12.7198C20.1672 12.7146 20.1473 12.7103 20.128 12.7044C20.1076 12.6983 20.0881 12.6908 20.0684 12.6836C20.0487 12.6765 20.0288 12.6701 20.0094 12.6621C19.9913 12.6546 19.9739 12.6458 19.9563 12.6374C19.9359 12.6278 19.9156 12.6189 19.8957 12.6081C19.8794 12.5995 19.8639 12.5896 19.8478 12.5799C19.8278 12.5681 19.8076 12.5567 19.7879 12.5436C19.7714 12.5325 19.7559 12.52 19.7399 12.5082C19.7223 12.4952 19.7043 12.4831 19.6874 12.469C19.6643 12.4499 19.6427 12.4296 19.6211 12.4091C19.6123 12.4006 19.6026 12.3932 19.594 12.3846C19.5849 12.3756 19.5772 12.3658 19.5685 12.3564L19.5684 12.3562C19.5484 12.3351 19.5283 12.3139 19.5098 12.2913C19.4952 12.2736 19.4824 12.255 19.4688 12.2366C19.4575 12.2214 19.4457 12.2065 19.4351 12.1908C19.4213 12.1704 19.4095 12.1494 19.3973 12.1286C19.3884 12.1136 19.3789 12.0988 19.3706 12.0831C19.3594 12.0626 19.3499 12.0413 19.3401 12.0202C19.3321 12.0032 19.3238 11.9867 19.3164 11.9694C19.3083 11.9492 19.3014 11.9286 19.294 11.9079C19.2873 11.889 19.2801 11.8703 19.2742 11.8511C19.2679 11.8303 19.2633 11.8094 19.2581 11.7886C19.2532 11.7689 19.2476 11.7494 19.2437 11.7294Z" fill="#C1A771"/>
</svg>
