<svg width="53" height="53" viewBox="0 0 53 53" fill="none" xmlns="http://www.w3.org/2000/svg">
<path d="M43.9015 40.7879C44.9615 39.0875 45.5577 37.1 45.4252 34.9138C45.1381 30.1659 41.3619 26.1467 36.6581 25.6388C35.2656 25.4768 33.8545 25.6113 32.5176 26.0334C31.1807 26.4555 29.9483 27.1557 28.9013 28.088C27.8543 29.0203 27.0163 30.1636 26.4426 31.4428C25.8689 32.722 25.5723 34.1081 25.5723 35.51C25.5723 41.0088 30.0111 45.4475 35.4877 45.4475C37.4311 45.4475 39.2419 44.8734 40.7656 43.9017L46.0877 49.2238C46.949 50.085 48.3623 50.085 49.2236 49.2238C50.0848 48.3625 50.0848 46.9492 49.2236 46.0879L43.9015 40.7879ZM35.5098 41.0309C34.0456 41.0309 32.6414 40.4492 31.606 39.4138C30.5706 38.3785 29.989 36.9742 29.989 35.51C29.989 34.0458 30.5706 32.6416 31.606 31.6062C32.6414 30.5709 34.0456 29.9892 35.5098 29.9892C36.974 29.9892 38.3783 30.5709 39.4136 31.6062C40.449 32.6416 41.0306 34.0458 41.0306 35.51C41.0306 36.9742 40.449 38.3785 39.4136 39.4138C38.3783 40.4492 36.974 41.0309 35.5098 41.0309ZM34.7148 22.26C33.0806 22.3042 31.5127 22.6575 30.0773 23.2538L28.8627 21.4209L22.0611 32.4846C21.8793 32.7809 21.6302 33.0302 21.334 33.2121C21.0378 33.3939 20.7028 33.5033 20.3563 33.5313C20.0098 33.5593 19.6616 33.505 19.34 33.3731C19.0184 33.2411 18.7326 33.035 18.5056 32.7717L13.824 27.3171L7.06648 38.1379C6.3819 39.22 4.9244 39.5071 3.88648 38.7563C2.95898 38.0717 2.69398 36.7909 3.31231 35.7971L11.6598 22.4367C12.4548 21.1779 14.2436 21.0454 15.2152 22.1717L19.8748 27.6042L26.8973 16.1871C27.0904 15.8716 27.3599 15.6099 27.681 15.4261C28.0021 15.2424 28.3643 15.1426 28.7341 15.136C29.104 15.1294 29.4695 15.2162 29.797 15.3884C30.1244 15.5605 30.4031 15.8124 30.6073 16.1209L34.7148 22.26ZM40.4344 23.3642C39.0211 22.7459 37.4973 22.3704 35.9073 22.2821L45.9331 6.4042C46.6177 5.32211 48.0752 5.05711 49.0911 5.80795C50.0406 6.49253 50.2836 7.79544 49.6652 8.76711L40.4344 23.3642Z" fill="currentColor"/>
</svg>
