<svg width="7" height="11" viewBox="0 0 7 11" fill="none" xmlns="http://www.w3.org/2000/svg">
<path fill-rule="evenodd" clip-rule="evenodd" d="M0.256949 0.230782C0.175499 0.303753 0.110879 0.390439 0.0667873 0.485875C0.0226961 0.581311 5.1788e-08 0.683621 6.0821e-08 0.786947C6.98541e-08 0.890273 0.0226961 0.992584 0.0667873 1.08802C0.110879 1.18346 0.1755 1.27014 0.256949 1.34311L4.88713 5.50021L0.25695 9.6573C0.175632 9.73034 0.111127 9.81704 0.0671185 9.91247C0.0231098 10.0079 0.000459593 10.1102 0.000459602 10.2135C0.000459611 10.3168 0.0231099 10.419 0.0671186 10.5145C0.111127 10.6099 0.175632 10.6966 0.25695 10.7696C0.338267 10.8427 0.434805 10.9006 0.541051 10.9401C0.647298 10.9797 0.761173 11 0.876173 11C0.991174 11 1.10505 10.9797 1.21129 10.9401C1.31754 10.9006 1.41408 10.8427 1.4954 10.7696L6.74305 6.05637C6.8245 5.9834 6.88912 5.89671 6.93321 5.80128C6.9773 5.70584 7 5.60353 7 5.50021C7 5.39688 6.9773 5.29457 6.93321 5.19913C6.88912 5.1037 6.8245 5.01701 6.74305 4.94404L1.4954 0.230782C1.41415 0.157628 1.31764 0.0995879 1.21138 0.0599857C1.10512 0.0203844 0.991213 -4.28369e-07 0.876172 -4.18312e-07C0.761131 -4.08255e-07 0.64722 0.0203844 0.540964 0.0599857C0.434707 0.099588 0.338192 0.157628 0.256949 0.230782Z" fill="currentColor"/>
</svg>
