<svg width="48" height="36" viewBox="0 0 48 36" fill="none" xmlns="http://www.w3.org/2000/svg">
<path d="M15.9364 12.2222L8.5998 10.1327C8.47369 10.1006 8.36022 10.032 8.27407 9.93567C8.18793 9.83933 8.13306 9.7197 8.11657 9.59226C8.10008 9.46483 8.12272 9.33544 8.18158 9.22083C8.24043 9.10623 8.33278 9.01168 8.44669 8.94942L12.1086 6.87244C12.2044 6.81252 12.3143 6.77784 12.4276 6.77174L24.0002 6.44446" stroke="currentColor" stroke-width="2"/>
<mask id="path-2-inside-1" fill="white">
<path d="M45.4975 2.58261L37.2951 0.780636C36.6053 0.628231 35.8913 0.628628 35.2016 0.781801C34.512 0.934975 33.8627 1.23734 33.298 1.66837L8.52146 19.9929L2.57144 19.7279C2.23063 19.7161 1.89479 19.8136 1.61134 20.0065C1.32789 20.1994 1.11115 20.4781 0.991731 20.8032C0.87231 21.1282 0.85624 21.4832 0.945789 21.8181C1.03534 22.153 1.22598 22.4507 1.4908 22.6694L7.28459 27.3466C7.37997 27.4249 7.4935 27.4769 7.61432 27.4978C7.73514 27.5187 7.8592 27.5077 7.97463 27.4658C9.62814 26.8166 15.7865 23.4909 23.0645 19.4232L24.5227 34.6737C24.5351 34.8058 24.5827 34.9319 24.6603 35.0385C24.738 35.1451 24.8427 35.2281 24.9633 35.2786C25.0839 35.329 25.2157 35.345 25.3446 35.3248C25.4734 35.3046 25.5944 35.249 25.6945 35.164L28.9494 32.408C29.1276 32.2559 29.2475 32.0448 29.288 31.8118L32.3736 14.2027C37.5815 11.2613 42.5551 8.41254 46.0574 6.39857C46.4208 6.1973 46.7147 5.8872 46.8992 5.51027C47.0837 5.13335 47.1499 4.70782 47.0888 4.29135C47.0277 3.87487 46.8422 3.48757 46.5576 3.18193C46.273 2.87628 45.9029 2.66706 45.4975 2.58261Z"/>
</mask>
<path d="M37.2951 0.780636L36.8636 2.73354L36.866 2.73405L37.2951 0.780636ZM33.298 1.66837L34.4873 3.27637L34.4995 3.26737L34.5115 3.25818L33.298 1.66837ZM8.52146 19.9929L8.43248 21.9909L9.14073 22.0225L9.71072 21.6009L8.52146 19.9929ZM2.57144 19.7279L2.66042 17.7299L2.65051 17.7294L2.64059 17.7291L2.57144 19.7279ZM1.4908 22.6694L0.217467 24.2116L0.225954 24.2187L0.234517 24.2256L1.4908 22.6694ZM7.28459 27.3466L8.55365 25.8008L8.54728 25.7955L8.54087 25.7904L7.28459 27.3466ZM7.97463 27.4658L8.65665 29.3459L8.68124 29.337L8.7056 29.3274L7.97463 27.4658ZM23.0645 19.4232L25.0554 19.2328L24.7638 16.1823L22.0888 17.6773L23.0645 19.4232ZM24.5227 34.6737L26.514 34.4872L26.5136 34.4833L24.5227 34.6737ZM25.6945 35.164L24.4021 33.6376L24.3995 33.6398L25.6945 35.164ZM28.9494 32.408L30.2418 33.9344L30.2479 33.9292L28.9494 32.408ZM29.288 31.8118L27.318 31.4665L27.3175 31.4695L29.288 31.8118ZM32.3736 14.2027L31.3901 12.4613L30.5668 12.9263L30.4037 13.8575L32.3736 14.2027ZM46.0574 6.39857L45.0885 4.64892L45.0744 4.65674L45.0604 4.66478L46.0574 6.39857ZM45.9267 0.629197L37.7242 -1.17278L36.866 2.73405L45.0684 4.53603L45.9267 0.629197ZM37.7266 -1.17227C36.7518 -1.38763 35.7425 -1.38707 34.768 -1.17062L35.6353 2.73423C36.0401 2.64432 36.4588 2.64409 36.8636 2.73354L37.7266 -1.17227ZM34.768 -1.17062C33.7935 -0.954197 32.8785 -0.527444 32.0846 0.0785712L34.5115 3.25818C34.847 3.00212 35.2304 2.82415 35.6353 2.73423L34.768 -1.17062ZM32.1088 0.0603764L7.3322 18.3849L9.71072 21.6009L34.4873 3.27637L32.1088 0.0603764ZM8.61045 17.9949L2.66042 17.7299L2.48245 21.7259L8.43248 21.9909L8.61045 17.9949ZM2.64059 17.7291C1.8725 17.7025 1.11868 17.9225 0.485957 18.3532L2.73672 21.6598C2.67089 21.7046 2.58875 21.7297 2.50228 21.7267L2.64059 17.7291ZM0.485957 18.3532C-0.146233 18.7835 -0.623764 19.4008 -0.885588 20.1135L2.86905 21.4929C2.84607 21.5554 2.80201 21.6154 2.73672 21.6598L0.485957 18.3532ZM-0.885588 20.1135C-1.14728 20.8258 -1.18224 21.6022 -0.986316 22.3348L2.87789 21.3014C2.89472 21.3643 2.8919 21.4307 2.86905 21.4929L-0.885588 20.1135ZM-0.986316 22.3348C-0.790319 23.0677 -0.371513 23.7254 0.217467 24.2116L2.76413 21.1271C2.82347 21.1761 2.86099 21.2382 2.87789 21.3014L-0.986316 22.3348ZM0.234517 24.2256L6.0283 28.9028L8.54087 25.7904L2.74708 21.1132L0.234517 24.2256ZM6.01553 28.8924C6.37659 29.1888 6.80955 29.3884 7.27374 29.4686L7.9549 25.527C8.17745 25.5655 8.38335 25.6609 8.55365 25.8008L6.01553 28.8924ZM7.27374 29.4686C7.73805 29.5489 8.21456 29.5063 8.65665 29.3459L7.29262 25.5857C7.50383 25.5091 7.73222 25.4886 7.9549 25.527L7.27374 29.4686ZM8.7056 29.3274C9.66621 28.9503 11.7365 27.8902 14.3539 26.4899C17.025 25.0608 20.3958 23.2059 24.0403 21.169L22.0888 17.6773C18.4552 19.7082 15.1078 21.55 12.4669 22.9629C9.77222 24.4046 7.93656 25.3321 7.24367 25.6042L8.7056 29.3274ZM21.0736 19.6135L22.5318 34.8641L26.5136 34.4833L25.0554 19.2328L21.0736 19.6135ZM22.5315 34.8603C22.5772 35.3481 22.753 35.817 23.0437 36.2161L26.2769 33.861C26.4123 34.0469 26.4931 34.2635 26.514 34.4872L22.5315 34.8603ZM23.0437 36.2161C23.3346 36.6154 23.7304 36.9307 24.1914 37.1236L25.7352 33.4335C25.955 33.5255 26.1413 33.6748 26.2769 33.861L23.0437 36.2161ZM24.1914 37.1236C24.6527 37.3166 25.1588 37.3783 25.6542 37.3007L25.0349 33.3489C25.2726 33.3117 25.5151 33.3414 25.7352 33.4335L24.1914 37.1236ZM25.6542 37.3007C26.1495 37.2231 26.6108 37.0098 26.9895 36.6881L24.3995 33.6398C24.578 33.4882 24.7974 33.3861 25.0349 33.3489L25.6542 37.3007ZM26.9869 36.6903L30.2418 33.9344L27.6571 30.8816L24.4021 33.6376L26.9869 36.6903ZM30.2479 33.9292C30.7844 33.4713 31.139 32.8415 31.2584 32.154L27.3175 31.4695C27.3559 31.2481 27.4709 31.0406 27.651 30.8868L30.2479 33.9292ZM31.2579 32.157L34.3436 14.5479L30.4037 13.8575L27.318 31.4665L31.2579 32.157ZM33.3572 15.9442C38.5713 12.9992 43.5497 10.1477 47.0544 8.13235L45.0604 4.66478C41.5605 6.67737 36.5918 9.5233 31.3901 12.4613L33.3572 15.9442ZM47.0263 8.14821C47.7521 7.7463 48.3329 7.13051 48.6956 6.3895L45.1028 4.63104C45.0966 4.64388 45.0896 4.6483 45.0885 4.64892L47.0263 8.14821ZM48.6956 6.3895C49.0581 5.64888 49.1871 4.81553 49.0676 4.00103L45.11 4.58166C45.1127 4.60012 45.1093 4.61781 45.1028 4.63104L48.6956 6.3895ZM49.0676 4.00103C48.9481 3.18638 48.5848 2.42407 48.0213 1.81893L45.094 4.54492C45.0997 4.55107 45.1073 4.56336 45.11 4.58166L49.0676 4.00103ZM48.0213 1.81893C47.4573 1.21336 46.7195 0.79424 45.9054 0.624648L45.0897 4.54058C45.0863 4.53988 45.0886 4.53921 45.094 4.54492L48.0213 1.81893Z" fill="currentColor" mask="url(#path-2-inside-1)"/>
</svg>
