<svg width="49" height="37" viewBox="0 0 49 37" fill="none" xmlns="http://www.w3.org/2000/svg">
<path d="M16.2807 12.6111L8.80304 10.4813C8.67451 10.4487 8.55886 10.3787 8.47105 10.2805C8.38325 10.1823 8.32732 10.0604 8.31052 9.93051C8.29371 9.80062 8.31679 9.66874 8.37677 9.55194C8.43676 9.43513 8.53089 9.33876 8.64699 9.2753L12.3793 7.15838C12.477 7.0973 12.5889 7.06197 12.7044 7.05574L24.4996 6.72217" stroke="currentColor" stroke-width="2"/>
<path d="M46.1967 3.76279L46.1967 3.76285L46.2074 3.76507C46.4162 3.80857 46.6095 3.91686 46.7599 4.07842C46.9106 4.2402 47.0107 4.44744 47.0437 4.67283C47.0768 4.89831 47.0408 5.12811 46.9418 5.33043C46.8428 5.53256 46.6868 5.69578 46.4975 5.8006L46.4904 5.80451L46.4834 5.80853C42.915 7.86054 37.8482 10.7626 32.5432 13.7589L32.1316 13.9914L32.05 14.4571L28.905 32.4047L28.9048 32.4062C28.903 32.4161 28.8986 32.4219 28.8961 32.4242C28.896 32.4243 28.8959 32.4243 28.8958 32.4244L25.9802 34.893L24.5424 19.8553L24.3965 18.33L23.059 19.0776C19.3527 21.149 15.9349 23.0296 13.2353 24.474C10.6873 25.8373 8.8332 26.7822 7.9683 27.1486L2.1917 22.4853C2.08551 22.3965 2.00651 22.274 1.96885 22.1331L1.00519 22.3908L1.96885 22.1331C1.93076 21.9907 1.9377 21.8396 1.98828 21.7019C2.0388 21.5644 2.1293 21.4497 2.24383 21.3717L1.68114 20.545L2.24384 21.3717C2.35699 21.2947 2.48883 21.2566 2.62125 21.2604L8.67966 21.5302L9.03379 21.546L9.31879 21.3352L34.5718 2.65826L34.5779 2.65376L34.5839 2.64917C35.0449 2.29733 35.5737 2.05135 36.1342 1.92686C36.6947 1.80237 37.2748 1.80205 37.8354 1.92591L37.8366 1.92616L46.1967 3.76279Z" stroke="currentColor" stroke-width="2"/>
</svg>
