<svg width="52" height="52" viewBox="0 0 52 52" fill="none" xmlns="http://www.w3.org/2000/svg">
<path d="M17.9364 20.2222L10.5998 18.1327C10.4737 18.1006 10.3602 18.032 10.2741 17.9357C10.1879 17.8393 10.1331 17.7197 10.1166 17.5923C10.1001 17.4648 10.1227 17.3354 10.1816 17.2208C10.2404 17.1062 10.3328 17.0117 10.4467 16.9494L14.1086 14.8724C14.2044 14.8125 14.3143 14.7778 14.4276 14.7717L26.0002 14.4445" stroke="#C1A771" stroke-width="2"/>
<mask id="path-2-inside-1" fill="white">
<path d="M47.4975 10.5826L39.2951 8.78064C38.6053 8.62823 37.8913 8.62863 37.2016 8.7818C36.512 8.93497 35.8627 9.23734 35.298 9.66837L10.5215 27.9929L4.57144 27.7279C4.23063 27.7161 3.89479 27.8136 3.61134 28.0065C3.32789 28.1994 3.11115 28.4781 2.99173 28.8032C2.87231 29.1282 2.85624 29.4832 2.94579 29.8181C3.03534 30.153 3.22598 30.4507 3.4908 30.6694L9.28459 35.3466C9.37997 35.4249 9.4935 35.4769 9.61432 35.4978C9.73514 35.5187 9.8592 35.5077 9.97463 35.4658C11.6281 34.8166 17.7865 31.4909 25.0645 27.4232L26.5227 42.6737C26.5351 42.8058 26.5827 42.9319 26.6603 43.0385C26.738 43.1451 26.8427 43.2281 26.9633 43.2786C27.0839 43.329 27.2157 43.345 27.3446 43.3248C27.4734 43.3046 27.5944 43.249 27.6945 43.164L30.9494 40.408C31.1276 40.2559 31.2475 40.0448 31.288 39.8118L34.3736 22.2027C39.5815 19.2613 44.5551 16.4125 48.0574 14.3986C48.4208 14.1973 48.7147 13.8872 48.8992 13.5103C49.0837 13.1333 49.1499 12.7078 49.0888 12.2913C49.0277 11.8749 48.8422 11.4876 48.5576 11.1819C48.273 10.8763 47.9029 10.6671 47.4975 10.5826Z"/>
</mask>
<path d="M39.2951 8.78064L38.8636 10.7335L38.866 10.7341L39.2951 8.78064ZM35.298 9.66837L36.4873 11.2764L36.4995 11.2674L36.5115 11.2582L35.298 9.66837ZM10.5215 27.9929L10.4325 29.9909L11.1407 30.0225L11.7107 29.6009L10.5215 27.9929ZM4.57144 27.7279L4.66042 25.7299L4.65051 25.7294L4.64059 25.7291L4.57144 27.7279ZM3.4908 30.6694L2.21747 32.2116L2.22595 32.2187L2.23452 32.2256L3.4908 30.6694ZM9.28459 35.3466L10.5536 33.8008L10.5473 33.7955L10.5409 33.7904L9.28459 35.3466ZM9.97463 35.4658L10.6566 37.3459L10.6812 37.337L10.7056 37.3274L9.97463 35.4658ZM25.0645 27.4232L27.0554 27.2328L26.7638 24.1823L24.0888 25.6773L25.0645 27.4232ZM26.5227 42.6737L28.514 42.4872L28.5136 42.4833L26.5227 42.6737ZM27.6945 43.164L26.4021 41.6376L26.3995 41.6398L27.6945 43.164ZM30.9494 40.408L32.2418 41.9344L32.2479 41.9292L30.9494 40.408ZM31.288 39.8118L29.318 39.4665L29.3175 39.4695L31.288 39.8118ZM34.3736 22.2027L33.3901 20.4613L32.5668 20.9263L32.4037 21.8575L34.3736 22.2027ZM48.0574 14.3986L47.0885 12.6489L47.0744 12.6567L47.0604 12.6648L48.0574 14.3986ZM47.9267 8.6292L39.7242 6.82722L38.866 10.7341L47.0684 12.536L47.9267 8.6292ZM39.7266 6.82773C38.7518 6.61237 37.7425 6.61293 36.768 6.82938L37.6353 10.7342C38.0401 10.6443 38.4588 10.6441 38.8636 10.7335L39.7266 6.82773ZM36.768 6.82938C35.7935 7.0458 34.8785 7.47256 34.0846 8.07857L36.5115 11.2582C36.847 11.0021 37.2304 10.8241 37.6353 10.7342L36.768 6.82938ZM34.1088 8.06038L9.3322 26.3849L11.7107 29.6009L36.4873 11.2764L34.1088 8.06038ZM10.6104 25.9949L4.66042 25.7299L4.48245 29.7259L10.4325 29.9909L10.6104 25.9949ZM4.64059 25.7291C3.8725 25.7025 3.11868 25.9225 2.48596 26.3532L4.73672 29.6598C4.67089 29.7046 4.58875 29.7297 4.50228 29.7267L4.64059 25.7291ZM2.48596 26.3532C1.85377 26.7835 1.37624 27.4008 1.11441 28.1135L4.86905 29.4929C4.84607 29.5554 4.80201 29.6154 4.73672 29.6598L2.48596 26.3532ZM1.11441 28.1135C0.852719 28.8258 0.817761 29.6022 1.01368 30.3348L4.87789 29.3014C4.89472 29.3643 4.8919 29.4307 4.86905 29.4929L1.11441 28.1135ZM1.01368 30.3348C1.20968 31.0677 1.62849 31.7254 2.21747 32.2116L4.76413 29.1271C4.82347 29.1761 4.86099 29.2382 4.87789 29.3014L1.01368 30.3348ZM2.23452 32.2256L8.0283 36.9028L10.5409 33.7904L4.74708 29.1132L2.23452 32.2256ZM8.01553 36.8924C8.37659 37.1888 8.80955 37.3884 9.27374 37.4686L9.9549 33.527C10.1775 33.5655 10.3833 33.6609 10.5536 33.8008L8.01553 36.8924ZM9.27374 37.4686C9.73805 37.5489 10.2146 37.5063 10.6566 37.3459L9.29262 33.5857C9.50383 33.5091 9.73222 33.4886 9.9549 33.527L9.27374 37.4686ZM10.7056 37.3274C11.6662 36.9503 13.7365 35.8902 16.3539 34.4899C19.025 33.0608 22.3958 31.2059 26.0403 29.169L24.0888 25.6773C20.4552 27.7082 17.1078 29.55 14.4669 30.9629C11.7722 32.4046 9.93656 33.3321 9.24367 33.6042L10.7056 37.3274ZM23.0736 27.6135L24.5318 42.8641L28.5136 42.4833L27.0554 27.2328L23.0736 27.6135ZM24.5315 42.8603C24.5772 43.3481 24.753 43.817 25.0437 44.2161L28.2769 41.861C28.4123 42.0469 28.4931 42.2635 28.514 42.4872L24.5315 42.8603ZM25.0437 44.2161C25.3346 44.6154 25.7304 44.9307 26.1914 45.1236L27.7352 41.4335C27.955 41.5255 28.1413 41.6748 28.2769 41.861L25.0437 44.2161ZM26.1914 45.1236C26.6527 45.3166 27.1588 45.3783 27.6542 45.3007L27.0349 41.3489C27.2726 41.3117 27.5151 41.3414 27.7352 41.4335L26.1914 45.1236ZM27.6542 45.3007C28.1495 45.2231 28.6108 45.0098 28.9895 44.6881L26.3995 41.6398C26.578 41.4882 26.7974 41.3861 27.0349 41.3489L27.6542 45.3007ZM28.9869 44.6903L32.2418 41.9344L29.6571 38.8816L26.4021 41.6376L28.9869 44.6903ZM32.2479 41.9292C32.7844 41.4713 33.139 40.8415 33.2584 40.154L29.3175 39.4695C29.3559 39.2481 29.4709 39.0406 29.651 38.8868L32.2479 41.9292ZM33.2579 40.157L36.3436 22.5479L32.4037 21.8575L29.318 39.4665L33.2579 40.157ZM35.3572 23.9442C40.5713 20.9992 45.5497 18.1477 49.0544 16.1323L47.0604 12.6648C43.5605 14.6774 38.5918 17.5233 33.3901 20.4613L35.3572 23.9442ZM49.0263 16.1482C49.7521 15.7463 50.3329 15.1305 50.6956 14.3895L47.1028 12.631C47.0966 12.6439 47.0896 12.6483 47.0885 12.6489L49.0263 16.1482ZM50.6956 14.3895C51.0581 13.6489 51.1871 12.8155 51.0676 12.001L47.11 12.5817C47.1127 12.6001 47.1093 12.6178 47.1028 12.631L50.6956 14.3895ZM51.0676 12.001C50.9481 11.1864 50.5848 10.4241 50.0213 9.81893L47.094 12.5449C47.0997 12.5511 47.1073 12.5634 47.11 12.5817L51.0676 12.001ZM50.0213 9.81893C49.4573 9.21336 48.7195 8.79424 47.9054 8.62465L47.0897 12.5406C47.0863 12.5399 47.0886 12.5392 47.094 12.5449L50.0213 9.81893Z" fill="#C1A771" mask="url(#path-2-inside-1)"/>
</svg>
