<svg width="43" height="40" viewBox="0 0 43 40" fill="none" xmlns="http://www.w3.org/2000/svg">
<path d="M1.625 28.125C7.10829 28.125 11.2202 21.5 11.2202 21.5C11.2202 21.5 15.3321 28.125 20.8154 28.125C26.2965 28.125 31.7798 21.5 31.7798 21.5C31.7798 21.5 37.2631 28.125 41.375 28.125" stroke="currentColor" stroke-widtha="1.5" stroke-linecap="round" stroke-linejoin="round"/>
<path d="M1.625 39.1667C7.10829 39.1667 11.2202 32.5417 11.2202 32.5417C11.2202 32.5417 15.3321 39.1667 20.8154 39.1667C26.2965 39.1667 31.7798 32.5417 31.7798 32.5417C31.7798 32.5417 37.2631 39.1667 41.375 39.1667" stroke="currentColor" stroke-widtha="1.5" stroke-linecap="round" stroke-linejoin="round"/>
<path d="M36.9584 17.0833C36.9584 15.0533 36.5586 13.0432 35.7817 11.1677C35.0049 9.29219 33.8662 7.58808 32.4308 6.15264C30.9953 4.7172 29.2912 3.57855 27.4157 2.8017C25.5402 2.02484 23.5301 1.625 21.5001 1.625C19.4701 1.625 17.4599 2.02484 15.5844 2.8017C13.7089 3.57855 12.0048 4.7172 10.5694 6.15264C9.13395 7.58808 7.9953 9.29219 7.21844 11.1677C6.44159 13.0432 6.04175 15.0533 6.04175 17.0833" stroke="currentColor" stroke-widtha="1.5" stroke-linecap="round" stroke-linejoin="round"/>
</svg>
