<svg width="44" height="44" viewBox="0 0 44 44" fill="none" xmlns="http://www.w3.org/2000/svg">
<path d="M20.375 0.875V3.51562C17.19 3.852 13.1275 5.11462 9.35588 7.22225C4.944 9.69225 0.875 13.329 0.875 18.191C0.875 21.0916 3.23125 23.625 6.309 23.625C7.78125 23.625 9.05037 23.0091 10.0156 22.1528C10.0351 22.1397 10.0481 22.1203 10.066 22.1007C11.0183 23.0985 12.3962 23.625 13.875 23.625C15.4805 23.625 16.8325 22.9457 17.7847 22.0504C18.4575 22.6922 19.3399 23.1684 20.375 23.4219V34.3402C17.8806 34.7904 16.1597 36.1164 16.1597 36.1164L18.0903 38.757C18.0903 38.757 19.9753 37.4375 22 37.4375C24.0247 37.4375 25.9097 38.7586 25.9097 38.7586L27.8403 36.118C27.8403 36.118 26.1194 34.7888 23.625 34.3386V23.3699C24.4853 23.1437 25.2839 22.7272 25.9618 22.1511C26.9124 23.1147 28.2644 23.6234 29.7188 23.6234C31.2005 23.6182 32.6218 23.0352 33.6805 21.9984C33.7487 22.0634 33.8138 22.1381 33.8836 22.2015C34.8667 23.0465 36.1619 23.6234 37.5886 23.6234C40.6258 23.625 43.125 21.181 43.125 18.2414C43.125 13.3924 39.1275 9.76862 34.7465 7.27262C31.0009 5.14062 26.888 3.852 23.625 3.51725V0.875H20.375ZM21.8993 7.375C22.1138 7.6805 22.3055 7.83162 22.559 8.34025C23.3894 10.0156 24.3237 12.9666 24.4375 17.7847C24.4247 17.8862 24.4247 17.9888 24.4375 18.0903C24.444 18.3113 24.4375 18.5209 24.4375 18.75C24.4375 18.776 24.2913 19.2765 23.8785 19.6649C23.4657 20.0516 22.871 20.375 22 20.375C20.2288 20.375 19.5625 18.9531 19.5625 18.75V18.0903V17.9375C19.6519 12.6367 20.5716 9.65325 21.3906 8.08512C21.5938 7.69187 21.7205 7.6155 21.8993 7.375ZM26.0105 8.39062C26.355 8.58725 26.628 8.65712 26.9774 8.89925C29.5351 10.6624 31.9401 13.4427 32.1059 18.243C32.0514 18.7277 31.8572 19.1862 31.5469 19.5625C31.1536 20.0191 30.6531 20.375 29.7188 20.375C28.9501 20.375 28.5504 20.1475 28.2465 19.816C27.941 19.4861 27.6875 18.9531 27.6875 18.0903C27.6931 17.9364 27.6761 17.7826 27.6371 17.6336C27.5234 13.4249 26.849 10.5291 26.0121 8.39062H26.0105ZM17.7344 8.94963C17.0291 11.0312 16.4653 13.7109 16.3629 17.632V17.684C16.3369 17.7836 16.32 17.8853 16.3125 17.9879V18.0903C16.3125 18.4705 16.0964 19.1059 15.7031 19.5625C15.3099 20.0191 14.8094 20.375 13.875 20.375C13.1064 20.375 12.7066 20.1475 12.4028 19.816C12.0972 19.4861 11.8438 18.9531 11.8438 18.0903C11.8438 17.9505 11.8243 17.8172 11.7934 17.684V17.6336C12.1801 13.7613 14.5347 11.1271 17.0243 9.30387C17.3785 9.04387 17.385 9.17062 17.7344 8.94963ZM12.6059 9.35588C10.4219 11.7105 8.493 14.6046 8.493 18.75C8.493 18.7874 8.34025 19.309 7.88363 19.7153C7.42538 20.1215 6.78512 20.375 6.30737 20.375C4.996 20.375 4.125 19.3529 4.125 18.191C4.125 15.2595 6.99475 12.2695 10.9305 10.066C11.47 9.76863 12.0404 9.62238 12.6043 9.35588H12.6059ZM32.0035 9.60938C32.3724 9.793 32.7656 9.86287 33.1215 10.066C37.0182 12.2874 39.875 15.2904 39.875 18.2414C39.875 19.3675 38.9422 20.375 37.5902 20.375C37.0702 20.375 36.4528 20.1394 36.0156 19.7656C35.5769 19.3919 35.4062 18.9401 35.4062 18.75C35.4062 18.5225 35.4128 18.3064 35.4062 18.0903C35.4118 17.9364 35.3948 17.7826 35.3559 17.6336C35.1007 14.1854 33.6854 11.691 32.0035 9.60938ZM5.75 35C4.85625 35 4.125 35.7313 4.125 36.625C4.125 37.5187 4.85625 38.25 5.75 38.25C6.64375 38.25 7.375 37.5187 7.375 36.625C7.375 35.7313 6.64375 35 5.75 35ZM12.25 35C11.3562 35 10.625 35.7313 10.625 36.625C10.625 37.5187 11.3562 38.25 12.25 38.25C13.1438 38.25 13.875 37.5187 13.875 36.625C13.875 35.7313 13.1438 35 12.25 35ZM31.75 35C30.8563 35 30.125 35.7313 30.125 36.625C30.125 37.5187 30.8563 38.25 31.75 38.25C32.6437 38.25 33.375 37.5187 33.375 36.625C33.375 35.7313 32.6437 35 31.75 35ZM38.25 35C37.3563 35 36.625 35.7313 36.625 36.625C36.625 37.5187 37.3563 38.25 38.25 38.25C39.1437 38.25 39.875 37.5187 39.875 36.625C39.875 35.7313 39.1437 35 38.25 35ZM9 39.875C8.10625 39.875 7.375 40.6063 7.375 41.5C7.375 42.3937 8.10625 43.125 9 43.125C9.89375 43.125 10.625 42.3937 10.625 41.5C10.625 40.6063 9.89375 39.875 9 39.875ZM15.5 39.875C14.6062 39.875 13.875 40.6063 13.875 41.5C13.875 42.3937 14.6062 43.125 15.5 43.125C16.3938 43.125 17.125 42.3937 17.125 41.5C17.125 40.6063 16.3938 39.875 15.5 39.875ZM22 39.875C21.1063 39.875 20.375 40.6063 20.375 41.5C20.375 42.3937 21.1063 43.125 22 43.125C22.8937 43.125 23.625 42.3937 23.625 41.5C23.625 40.6063 22.8937 39.875 22 39.875ZM28.5 39.875C27.6063 39.875 26.875 40.6063 26.875 41.5C26.875 42.3937 27.6063 43.125 28.5 43.125C29.3937 43.125 30.125 42.3937 30.125 41.5C30.125 40.6063 29.3937 39.875 28.5 39.875ZM35 39.875C34.1063 39.875 33.375 40.6063 33.375 41.5C33.375 42.3937 34.1063 43.125 35 43.125C35.8937 43.125 36.625 42.3937 36.625 41.5C36.625 40.6063 35.8937 39.875 35 39.875Z" fill="#C1A771"/>
</svg>
