<svg width="38" height="45" viewBox="0 0 38 45" fill="none" xmlns="http://www.w3.org/2000/svg">
<path d="M31.1875 0.28125H6.8125C5.1969 0.283078 3.64799 0.925683 2.50559 2.06809C1.36318 3.21049 0.720578 4.7594 0.71875 6.375V32.375C0.720578 33.9906 1.36318 35.5395 2.50559 36.6819C3.64799 37.8243 5.1969 38.4669 6.8125 38.4688H10.0625L6.65 43.0187C6.55397 43.1468 6.4841 43.2925 6.44438 43.4475C6.40466 43.6026 6.39586 43.7639 6.4185 43.9224C6.44113 44.0808 6.49475 44.2332 6.5763 44.3709C6.65784 44.5087 6.76571 44.629 6.89375 44.725C7.02179 44.821 7.16749 44.8909 7.32253 44.9306C7.47757 44.9703 7.63892 44.9791 7.79736 44.9565C7.9558 44.9339 8.10823 44.8802 8.24594 44.7987C8.38366 44.7172 8.50397 44.6093 8.6 44.4813L13.1094 38.4688H24.8906L29.4 44.4813C29.496 44.6093 29.6163 44.7172 29.7541 44.7987C29.8918 44.8802 30.0442 44.9339 30.2026 44.9565C30.3611 44.9791 30.5224 44.9703 30.6775 44.9306C30.8325 44.8909 30.9782 44.821 31.1063 44.725C31.2343 44.629 31.3422 44.5087 31.4237 44.3709C31.5052 44.2332 31.5589 44.0808 31.5815 43.9224C31.6041 43.7639 31.5953 43.6026 31.5556 43.4475C31.5159 43.2925 31.446 43.1468 31.35 43.0187L27.9375 38.4688H31.1875C32.8031 38.4669 34.352 37.8243 35.4944 36.6819C36.6368 35.5395 37.2794 33.9906 37.2812 32.375V6.375C37.2794 4.7594 36.6368 3.21049 35.4944 2.06809C34.352 0.925683 32.8031 0.283078 31.1875 0.28125ZM6.8125 2.71875H31.1875C32.1569 2.71983 33.0862 3.10538 33.7717 3.79083C34.4571 4.47627 34.8427 5.40563 34.8438 6.375V19.7812H3.15625V6.375C3.15733 5.40563 3.54288 4.47627 4.22833 3.79083C4.91377 3.10538 5.84313 2.71983 6.8125 2.71875ZM31.1875 36.0312H6.8125C5.84313 36.0302 4.91377 35.6446 4.22833 34.9592C3.54288 34.2737 3.15733 33.3444 3.15625 32.375V22.2188H34.8438V32.375C34.8427 33.3444 34.4571 34.2737 33.7717 34.9592C33.0862 35.6446 32.1569 36.0302 31.1875 36.0312ZM12.0938 29.9375C12.0938 30.3392 11.9746 30.732 11.7514 31.066C11.5282 31.4 11.211 31.6604 10.8398 31.8141C10.4687 31.9679 10.0602 32.0081 9.66622 31.9297C9.2722 31.8513 8.91026 31.6579 8.62619 31.3738C8.34211 31.0897 8.14866 30.7278 8.07028 30.3338C7.9919 29.9398 8.03213 29.5313 8.18587 29.1602C8.33961 28.789 8.59996 28.4718 8.934 28.2486C9.26803 28.0254 9.66076 27.9062 10.0625 27.9062C10.601 27.9069 11.1173 28.1211 11.4981 28.5019C11.8789 28.8827 12.0931 29.399 12.0938 29.9375ZM29.9688 29.9375C29.9688 30.3392 29.8496 30.732 29.6264 31.066C29.4032 31.4 29.086 31.6604 28.7148 31.8141C28.3437 31.9679 27.9352 32.0081 27.5412 31.9297C27.1472 31.8513 26.7853 31.6579 26.5012 31.3738C26.2171 31.0897 26.0237 30.7278 25.9453 30.3338C25.8669 29.9398 25.9071 29.5313 26.0609 29.1602C26.2146 28.789 26.475 28.4718 26.809 28.2486C27.143 28.0254 27.5358 27.9062 27.9375 27.9062C28.476 27.9069 28.9923 28.1211 29.3731 28.5019C29.7539 28.8827 29.9681 29.399 29.9688 29.9375Z" fill="currentColor"/>
</svg>
