<svg width="39" height="46" viewBox="0 0 39 46" fill="none" xmlns="http://www.w3.org/2000/svg">
<path d="M31.9219 0.382812H7.07812C5.43145 0.384676 3.85276 1.03964 2.68839 2.20401C1.52401 3.36838 0.869051 4.94708 0.867188 6.59375V33.0938C0.869051 34.7404 1.52401 36.3191 2.68839 37.4835C3.85276 38.6479 5.43145 39.3028 7.07812 39.3047H10.3906L6.9125 43.9422C6.81462 44.0727 6.74341 44.2212 6.70293 44.3792C6.66244 44.5372 6.65348 44.7017 6.67655 44.8632C6.69962 45.0247 6.75427 45.18 6.83738 45.3204C6.92049 45.4608 7.03044 45.5834 7.16094 45.6813C7.29144 45.7791 7.43994 45.8503 7.59796 45.8908C7.75599 45.9313 7.92043 45.9403 8.08192 45.9172C8.24341 45.8941 8.39877 45.8395 8.53914 45.7564C8.6795 45.6733 8.80212 45.5633 8.9 45.4328L13.4961 39.3047H25.5039L30.1 45.4328C30.1979 45.5633 30.3205 45.6733 30.4609 45.7564C30.6012 45.8395 30.7566 45.8941 30.9181 45.9172C31.0796 45.9403 31.244 45.9313 31.402 45.8908C31.5601 45.8503 31.7086 45.7791 31.8391 45.6813C31.9696 45.5834 32.0795 45.4608 32.1626 45.3204C32.2457 45.18 32.3004 45.0247 32.3235 44.8632C32.3465 44.7017 32.3376 44.5372 32.2971 44.3792C32.2566 44.2212 32.1854 44.0727 32.0875 43.9422L28.6094 39.3047H31.9219C33.5685 39.3028 35.1472 38.6479 36.3116 37.4835C37.476 36.3191 38.131 34.7404 38.1328 33.0938V6.59375C38.131 4.94708 37.476 3.36838 36.3116 2.20401C35.1472 1.03964 33.5685 0.384676 31.9219 0.382812ZM7.07812 2.86719H31.9219C32.9099 2.86828 33.8571 3.26125 34.5557 3.95988C35.2544 4.65851 35.6473 5.60574 35.6484 6.59375V20.2578H3.35156V6.59375C3.35266 5.60574 3.74563 4.65851 4.44426 3.95988C5.14289 3.26125 6.09012 2.86828 7.07812 2.86719ZM31.9219 36.8203H7.07812C6.09012 36.8192 5.14289 36.4262 4.44426 35.7276C3.74563 35.029 3.35266 34.0818 3.35156 33.0938V22.7422H35.6484V33.0938C35.6473 34.0818 35.2544 35.029 34.5557 35.7276C33.8571 36.4262 32.9099 36.8192 31.9219 36.8203ZM12.4609 30.6094C12.4609 31.0188 12.3395 31.4191 12.112 31.7596C11.8845 32.1 11.5612 32.3654 11.1829 32.5221C10.8046 32.6788 10.3883 32.7198 9.98673 32.6399C9.58512 32.56 9.21623 32.3628 8.92669 32.0733C8.63715 31.7838 8.43998 31.4149 8.36009 31.0133C8.28021 30.6117 8.32121 30.1954 8.47791 29.8171C8.6346 29.4388 8.89996 29.1155 9.24042 28.888C9.58088 28.6605 9.98116 28.5391 10.3906 28.5391C10.9395 28.5397 11.4657 28.7581 11.8538 29.1462C12.2419 29.5343 12.4603 30.0605 12.4609 30.6094ZM30.6797 30.6094C30.6797 31.0188 30.5583 31.4191 30.3308 31.7596C30.1033 32.1 29.7799 32.3654 29.4016 32.5221C29.0233 32.6788 28.6071 32.7198 28.2055 32.6399C27.8039 32.56 27.435 32.3628 27.1454 32.0733C26.8559 31.7838 26.6587 31.4149 26.5788 31.0133C26.499 30.6117 26.54 30.1954 26.6967 29.8171C26.8534 29.4388 27.1187 29.1155 27.4592 28.888C27.7996 28.6605 28.1999 28.5391 28.6094 28.5391C29.1583 28.5397 29.6845 28.7581 30.0726 29.1462C30.4607 29.5343 30.679 30.0605 30.6797 30.6094Z" fill="currentColor"/>
</svg>
