<svg width="31" height="26" viewBox="0 0 31 26" fill="none" xmlns="http://www.w3.org/2000/svg">
<mask id="path-1-inside-1" fill="white">
<path fill-rule="evenodd" clip-rule="evenodd" d="M1.50108 1.50108C2.4622 0.539954 3.76577 0 5.125 0H25.625C26.9842 0 28.2878 0.539954 29.2489 1.50108C30.21 2.4622 30.75 3.76577 30.75 5.125V5.64263L15.375 13.9195L0 5.64006V5.125C0 3.76577 0.539954 2.4622 1.50108 1.50108ZM15.9823 16.5024L30.75 8.55098V20.4999C30.75 21.8592 30.21 23.1627 29.2489 24.1238C28.2878 25.085 26.9842 25.6249 25.625 25.6249H5.125C3.76577 25.6249 2.4622 25.085 1.50108 24.1238C0.539954 23.1627 0 21.8592 0 20.4999V8.55098L14.7677 16.5024C14.9543 16.6029 15.163 16.6555 15.375 16.6555C15.587 16.6555 15.7957 16.6029 15.9823 16.5024Z"/>
</mask>
<path d="M1.50108 1.50108L2.20818 2.20818L1.50108 1.50108ZM29.2489 1.50108L28.5418 2.20818L28.5418 2.20818L29.2489 1.50108ZM30.75 5.64263L31.224 6.52314L31.75 6.23999V5.64263H30.75ZM15.375 13.9195L14.9009 14.8L15.3749 15.0552L15.849 14.8L15.375 13.9195ZM0 5.64006H-1V6.23734L-0.474126 6.52052L0 5.64006ZM30.75 8.55098H31.75V6.87681L30.2759 7.6705L30.75 8.55098ZM15.9823 16.5024L16.4563 17.3829L16.4564 17.3829L15.9823 16.5024ZM1.50108 24.1238L0.793971 24.831H0.793971L1.50108 24.1238ZM0 8.55098L0.474082 7.6705L-1 6.87681V8.55098H0ZM14.7677 16.5024L14.2936 17.3829L14.2937 17.3829L14.7677 16.5024ZM5.125 -1C3.50055 -1 1.94263 -0.35469 0.793971 0.793971L2.20818 2.20818C2.98177 1.4346 4.03098 1 5.125 1V-1ZM25.625 -1H5.125V1H25.625V-1ZM29.956 0.793971C28.8074 -0.35469 27.2495 -1 25.625 -1V1C26.719 1 27.7682 1.4346 28.5418 2.20818L29.956 0.793971ZM31.75 5.125C31.75 3.50055 31.1047 1.94263 29.956 0.793971L28.5418 2.20818C29.3154 2.98177 29.75 4.03098 29.75 5.125H31.75ZM31.75 5.64263V5.125H29.75V5.64263H31.75ZM15.849 14.8L31.224 6.52314L30.276 4.76211L14.901 13.039L15.849 14.8ZM-0.474126 6.52052L14.9009 14.8L15.8491 13.039L0.474126 4.75961L-0.474126 6.52052ZM-1 5.125V5.64006H1V5.125H-1ZM0.793971 0.793971C-0.35469 1.94263 -1 3.50055 -1 5.125H1C1 4.03098 1.4346 2.98177 2.20818 2.20818L0.793971 0.793971ZM30.2759 7.6705L15.5082 15.6219L16.4564 17.3829L31.2241 9.43146L30.2759 7.6705ZM31.75 20.4999V8.55098H29.75V20.4999H31.75ZM29.956 24.831C31.1047 23.6823 31.75 22.1244 31.75 20.4999H29.75C29.75 21.5939 29.3154 22.6432 28.5418 23.4167L29.956 24.831ZM25.625 26.6249C27.2495 26.6249 28.8074 25.9796 29.956 24.831L28.5418 23.4167C27.7682 24.1903 26.719 24.6249 25.625 24.6249V26.6249ZM5.125 26.6249H25.625V24.6249H5.125V26.6249ZM0.793971 24.831C1.94263 25.9796 3.50055 26.6249 5.125 26.6249V24.6249C4.03098 24.6249 2.98177 24.1903 2.20818 23.4167L0.793971 24.831ZM-1 20.4999C-1 22.1244 -0.35469 23.6823 0.793971 24.831L2.20818 23.4167C1.4346 22.6432 1 21.5939 1 20.4999H-1ZM-1 8.55098V20.4999H1V8.55098H-1ZM15.2418 15.6219L0.474082 7.6705L-0.474082 9.43146L14.2936 17.3829L15.2418 15.6219ZM15.375 15.6555C15.3285 15.6555 15.2827 15.644 15.2417 15.6219L14.2937 17.3829C14.626 17.5618 14.9976 17.6555 15.375 17.6555V15.6555ZM15.5083 15.6219C15.4673 15.644 15.4215 15.6555 15.375 15.6555V17.6555C15.7524 17.6555 16.124 17.5618 16.4563 17.3829L15.5083 15.6219Z" fill="currentColor" mask="url(#path-1-inside-1)"/>
</svg>
