<svg width="42" height="42" viewBox="0 0 42 42" fill="none" xmlns="http://www.w3.org/2000/svg">
<path d="M41.7175 16.1211V40.4961C41.7175 40.8193 41.5891 41.1293 41.3606 41.3579C41.132 41.5864 40.822 41.7148 40.4988 41.7148C40.1755 41.7148 39.8656 41.5864 39.637 41.3579C39.4084 41.1293 39.28 40.8193 39.28 40.4961V16.1211C39.2799 16.0134 39.2371 15.9101 39.1609 15.834C39.0848 15.7578 38.9815 15.715 38.8738 15.7148H25.4675V40.4961C25.4675 40.8193 25.3391 41.1293 25.1106 41.3579C24.882 41.5864 24.572 41.7148 24.2488 41.7148C23.9255 41.7148 23.6156 41.5864 23.387 41.3579C23.1584 41.1293 23.03 40.8193 23.03 40.4961V3.12109C23.0299 3.01338 22.9871 2.91011 22.9109 2.83395C22.8348 2.75779 22.7315 2.71495 22.6238 2.71484H3.12378C3.01607 2.71495 2.9128 2.75779 2.83664 2.83395C2.76047 2.91011 2.71764 3.01338 2.71753 3.12109V40.4961C2.71753 40.8193 2.58913 41.1293 2.36057 41.3579C2.13201 41.5864 1.82201 41.7148 1.49878 41.7148C1.17555 41.7148 0.865553 41.5864 0.636993 41.3579C0.408433 41.1293 0.280029 40.8193 0.280029 40.4961V3.12109C0.280889 2.36715 0.580774 1.64433 1.11389 1.11121C1.64701 0.578089 2.36983 0.278204 3.12378 0.277344H22.6238C23.3777 0.278204 24.1005 0.578089 24.6337 1.11121C25.1668 1.64433 25.4667 2.36715 25.4675 3.12109V13.2773H38.8738C39.6277 13.2782 40.3505 13.5781 40.8837 14.1112C41.4168 14.6443 41.7167 15.3671 41.7175 16.1211ZM7.99878 10.8398H14.4988C14.822 10.8398 15.132 10.7114 15.3606 10.4829C15.5891 10.2543 15.7175 9.94433 15.7175 9.62109C15.7175 9.29786 15.5891 8.98787 15.3606 8.75931C15.132 8.53075 14.822 8.40234 14.4988 8.40234H7.99878C7.67555 8.40234 7.36555 8.53075 7.13699 8.75931C6.90843 8.98787 6.78003 9.29786 6.78003 9.62109C6.78003 9.94433 6.90843 10.2543 7.13699 10.4829C7.36555 10.7114 7.67555 10.8398 7.99878 10.8398ZM17.7488 24.6523H11.2488C10.9255 24.6523 10.6156 24.7807 10.387 25.0093C10.1584 25.2379 10.03 25.5479 10.03 25.8711C10.03 26.1943 10.1584 26.5043 10.387 26.7329C10.6156 26.9614 10.9255 27.0898 11.2488 27.0898H17.7488C18.072 27.0898 18.382 26.9614 18.6106 26.7329C18.8391 26.5043 18.9675 26.1943 18.9675 25.8711C18.9675 25.5479 18.8391 25.2379 18.6106 25.0093C18.382 24.7807 18.072 24.6523 17.7488 24.6523ZM14.4988 32.7773H7.99878C7.67555 32.7773 7.36555 32.9057 7.13699 33.1343C6.90843 33.3629 6.78003 33.6729 6.78003 33.9961C6.78003 34.3193 6.90843 34.6293 7.13699 34.8579C7.36555 35.0864 7.67555 35.2148 7.99878 35.2148H14.4988C14.822 35.2148 15.132 35.0864 15.3606 34.8579C15.5891 34.6293 15.7175 34.3193 15.7175 33.9961C15.7175 33.6729 15.5891 33.3629 15.3606 33.1343C15.132 32.9057 14.822 32.7773 14.4988 32.7773ZM33.9988 29.5273H30.7488C30.4255 29.5273 30.1156 29.6557 29.887 29.8843C29.6584 30.1129 29.53 30.4229 29.53 30.7461C29.53 31.0693 29.6584 31.3793 29.887 31.6079C30.1156 31.8364 30.4255 31.9648 30.7488 31.9648H33.9988C34.322 31.9648 34.632 31.8364 34.8606 31.6079C35.0891 31.3793 35.2175 31.0693 35.2175 30.7461C35.2175 30.4229 35.0891 30.1129 34.8606 29.8843C34.632 29.6557 34.322 29.5273 33.9988 29.5273ZM33.9988 21.4023H30.7488C30.4255 21.4023 30.1156 21.5307 29.887 21.7593C29.6584 21.9879 29.53 22.2979 29.53 22.6211C29.53 22.9443 29.6584 23.2543 29.887 23.4829C30.1156 23.7114 30.4255 23.8398 30.7488 23.8398H33.9988C34.322 23.8398 34.632 23.7114 34.8606 23.4829C35.0891 23.2543 35.2175 22.9443 35.2175 22.6211C35.2175 22.2979 35.0891 21.9879 34.8606 21.7593C34.632 21.5307 34.322 21.4023 33.9988 21.4023Z" fill="#C1A771"/>
</svg>
