<svg width="46" height="43" viewBox="0 0 46 43" fill="none" xmlns="http://www.w3.org/2000/svg">
<path d="M44.9805 13.6519C44.9554 13.6153 44.9216 13.5787 44.8872 13.5399L44.8692 13.5205C44.5519 13.168 44.2338 12.8155 43.9158 12.4637C43.1261 11.5893 42.3098 10.6854 41.515 9.78943C41.2631 9.50585 40.9752 9.38811 40.5588 9.39385C39.2047 9.41539 38.1042 9.41396 37.0955 9.39026C36.6661 9.38021 36.2526 9.30268 35.8994 9.16555C29.7001 6.76981 21.5465 3.61235 13.4468 0.444123C12.8272 0.201462 12.4065 0.260332 11.8939 0.658784C10.0926 2.0609 8.25113 3.47307 6.47066 4.83858C5.18341 5.82502 3.85237 6.84592 2.54789 7.85389C2.05682 8.23368 1.59806 8.47921 0.959823 8.4469C0.726496 8.43542 0.562807 8.47706 0.458707 8.57541C0.343838 8.68382 0.287839 8.87264 0.286404 9.15335C0.277788 11.1513 0.277788 13.102 0.287122 14.9499C0.289275 15.3979 0.444349 15.5752 0.902389 15.6542C1.04526 15.6786 1.1953 15.6786 1.35397 15.6786H1.57365C3.4374 15.6801 5.36505 15.6815 7.26039 15.6786C8.09462 15.6772 8.19513 15.6054 8.45574 14.8236L8.49667 14.7008H12.0117V41.4459H6.36369V42.6233C7.39608 42.675 13.1697 42.7051 20.9068 42.6965C28.4042 42.6879 34.386 42.6463 35.3983 42.5967V41.4143H18.9404V14.6699H43.9417C43.9977 14.6699 44.0544 14.6706 44.1111 14.6721C44.2504 14.675 44.3817 14.6771 44.5095 14.6635C44.7701 14.6362 44.9733 14.5041 45.0659 14.3016C45.1578 14.1006 45.127 13.8644 44.9805 13.6519ZM14.8001 2.33587L32.0175 9.01981L31.9479 9.3996H31.2285C30.2916 9.3996 29.3547 9.39888 28.4178 9.39816C25.4923 9.39601 22.4676 9.39385 19.4925 9.41252C19.4875 9.41252 19.4825 9.41252 19.4774 9.41252C18.9038 9.41252 18.5606 9.21365 18.2569 8.70679C17.4888 7.426 16.6868 6.13516 15.9115 4.8874C15.6006 4.38772 15.2897 3.88732 14.9803 3.38692C14.8949 3.24836 14.8116 3.10693 14.7305 2.96981C14.6924 2.90519 14.6544 2.83986 14.6156 2.77525L14.5553 2.67402L14.8001 2.33587ZM13.3607 3.7904L13.4088 3.25339L17.1829 9.3558H13.477L13.4368 9.23232C13.2752 8.74269 13.2278 5.2837 13.3607 3.7904ZM7.08593 13.8781L7.08091 14.3993H1.69211L1.65406 14.2708C1.50545 13.7696 1.47099 10.8426 1.60094 9.86051L1.62104 9.70831L1.77468 9.70472C2.79486 9.68031 3.80068 9.68318 4.86609 9.68605C5.52443 9.68821 6.20575 9.68964 6.89353 9.68462L7.06942 9.68318L7.07444 9.85907C7.11393 11.2102 7.10029 12.5061 7.08593 13.8781ZM7.64592 8.43613C7.02275 8.42608 6.3881 8.42824 5.77427 8.42967C5.51007 8.43039 5.24587 8.43111 4.98167 8.43111H4.23862L4.43174 8.14968C4.70384 7.7541 10.8694 2.96981 11.7618 2.46151L12.0303 2.30859V9.22586L11.9061 9.26606C11.601 9.36514 10.8177 9.41324 10.0488 9.41324C9.48382 9.41324 8.92742 9.38739 8.57348 9.33714L8.46292 9.32134L8.40692 9.14976C8.38898 9.09663 8.37031 9.03991 8.35308 8.98248C8.20878 8.51008 8.12262 8.44331 7.64592 8.43613ZM13.1833 14.7087H17.6072V18.8914L16.6014 18.0234C15.5338 17.1023 14.5251 16.2321 13.5129 15.3505C13.4339 15.2816 13.3994 15.1919 13.3621 15.0971C13.3456 15.0555 13.3291 15.0117 13.3068 14.9657L13.1833 14.7087ZM17.3868 30.3488L13.352 33.8121V26.9006L17.3868 30.3488ZM13.5143 25.365L17.6072 21.85V28.8685L13.5143 25.365ZM17.6087 31.8263V38.9662L13.4439 35.4016L17.6087 31.8263ZM13.3484 16.8991L17.3911 20.3667L13.3484 23.8336V16.8991ZM17.567 41.2915L17.5225 41.405H13.3513V37.1728L13.6112 37.3027C13.6385 37.3163 13.6658 37.3278 13.6931 37.3393C13.7634 37.3695 13.8431 37.4032 13.912 37.4621C14.3227 37.8132 14.7319 38.1664 15.1418 38.5189C15.8397 39.1198 16.5605 39.7408 17.2762 40.3446C17.5225 40.5535 17.7494 40.8285 17.567 41.2915ZM8.39616 13.3927V10.6976L8.56774 10.6904C8.65318 10.6868 8.73717 10.6818 8.81973 10.6775C9.00065 10.6675 9.17152 10.6581 9.3467 10.6581C13.6342 10.6567 17.9209 10.6567 22.2084 10.6567H24.8562C26.0113 10.6567 27.1672 10.6574 28.3231 10.6581C32.0348 10.6603 35.8735 10.6617 39.6484 10.6438C39.6549 10.6438 39.6613 10.6438 39.6671 10.6438C40.3972 10.6438 40.8524 10.8513 41.2372 11.3574C41.5459 11.7637 41.8955 12.1407 42.266 12.5398C42.4311 12.7179 42.6027 12.9024 42.7743 13.0948L43.0421 13.3942H8.39616V13.3927Z" fill="currentColor"/>
<path d="M37.0277 16.6793L35.7641 24.298H33.7941L33.7661 24.1523C33.5371 22.9483 33.3426 21.7221 33.1545 20.5361C32.9542 19.2725 32.7467 17.9673 32.4961 16.6743L31.3115 16.884C31.4752 18.1662 31.6913 19.4412 31.9009 20.6753C32.089 21.7853 32.2836 22.9332 32.4358 24.0647L32.4516 24.181L32.3518 24.242C31.794 24.5838 31.7193 24.7417 31.7674 25.0734C31.9713 26.4769 32.1651 27.7355 32.3619 28.9208C32.4473 29.4348 32.6103 29.5784 33.1552 29.6208C33.3074 29.633 33.4589 29.6394 33.6347 29.6473C33.7202 29.6509 33.8099 29.6552 33.9061 29.6602L34.0763 29.6689V30.1456C34.0763 30.348 34.0756 30.5347 34.077 30.7213C34.0813 31.5146 34.1452 31.5908 34.9378 31.7394C35.6091 31.865 36.1181 32.4221 36.1482 33.0632C36.1777 33.6936 35.6938 34.3174 35.0469 34.4826C34.4116 34.6448 33.7137 34.316 33.423 33.7165C33.3605 33.5887 33.3153 33.4566 33.2708 33.3289C33.265 33.3123 33.2593 33.2966 33.2535 33.28H32.0732C32.0697 34.4352 32.9527 35.474 34.1897 35.7361C35.4346 35.9996 36.7714 35.2551 37.2345 34.041C37.4671 33.4308 37.4685 32.8091 37.238 32.1952C36.9466 31.4177 36.36 30.8721 35.4447 30.5282L35.3161 30.4801L35.3966 29.6157H35.5602C35.6636 29.6157 35.7627 29.6179 35.8589 29.62C36.0556 29.6243 36.2416 29.6286 36.4196 29.6121C36.8554 29.5705 37.0715 29.3759 37.1418 28.961C37.2467 28.34 37.3486 27.719 37.4506 27.0972C37.5539 26.4683 37.6602 25.8186 37.7686 25.1796C37.8246 24.8494 37.7399 24.6196 37.4951 24.4344L37.0866 24.1257L38.2582 16.8775L37.0277 16.6793ZM35.9623 28.3357H33.54L33.1344 25.6204H36.3895L35.9623 28.3357Z" fill="currentColor"/>
</svg>
