<svg width="17" height="18" viewBox="0 0 17 18" fill="none" xmlns="http://www.w3.org/2000/svg">
<path d="M11.625 0.894409L11.215 1.34378C10.2969 2.35441 9.54 2.80628 8.91 3.10191C8.28 3.39691 7.75063 3.48503 7.23063 3.88316C6.67625 4.30816 5.87063 5.12316 5.53125 6.57816C4.80375 6.73691 4.27125 7.01566 3.85125 7.37878C3.43625 7.73753 3.12375 8.14566 2.73875 8.59003C2.73563 8.59503 2.74063 8.60441 2.73875 8.60941C2.18625 9.24441 1.70312 9.92816 0.765625 10.2894L0.375 10.4457V17.125H12.2894C12.9725 17.0882 13.4462 16.615 13.7344 16.1482C14.0219 15.6819 14.1812 15.1769 14.2619 14.7619C14.4694 13.7044 14.8475 10.66 14.8475 10.66L14.8675 10.6019V10.5432C14.8475 10.1207 14.6737 9.76191 14.4569 9.42941L15.16 7.34003L16.2738 5.66003L16.5863 5.21066L16.1756 4.84003L12.0744 1.28503L11.625 0.894409ZM11.6644 2.61316L14.9256 5.44566L14.0662 6.71441L14.0081 6.77378L13.9881 6.87128L13.4219 8.55066C13.1263 8.42878 12.8219 8.34316 12.4844 8.35566H12.445L8.5 8.37503H7.875V10.7969C7.7875 11.4782 7.40875 11.7419 6.9375 11.93C6.78125 11.9932 6.76188 11.9588 6.625 11.9882V8.35628C6.5225 6.03941 7.3475 5.37253 7.9925 4.87941C8.17062 4.74253 8.6925 4.58441 9.4375 4.23503C10.06 3.94191 10.8337 3.41691 11.6644 2.61378V2.61316ZM5.41437 7.98441C5.41187 8.12628 5.3675 8.22628 5.375 8.37503V13.375H6C6 13.375 6.66875 13.3675 7.38688 13.0819C8.10437 12.7963 8.97125 12.1275 9.125 10.9532V9.62503L12.4844 9.60566H12.5037C12.7781 9.59064 13.0472 9.68493 13.2522 9.8679C13.4572 10.0509 13.5814 10.3076 13.5975 10.5819C13.595 10.5919 13.5662 10.8238 13.5588 10.875H11V12.125H13.4025C13.3363 12.6082 13.2756 12.9113 13.2069 13.375H11V14.625H13.0119C12.938 14.9274 12.8194 15.2171 12.66 15.4844C12.4894 15.7625 12.3425 15.8675 12.2113 15.875H1.625V11.2069C2.63812 10.6694 3.26813 9.89628 3.67563 9.43003C4.09812 8.94628 4.38812 8.58003 4.67188 8.33628C4.8575 8.17753 5.14812 8.08691 5.41437 7.98441Z" fill="currentColor"/>
</svg>
