<svg width="17" height="16" viewBox="0 0 17 16" fill="none" xmlns="http://www.w3.org/2000/svg">
<path fill-rule="evenodd" clip-rule="evenodd" d="M0.428166 4.9008C0.452251 2.55158 2.31832 0.553589 4.71363 0.553589C6.18413 0.553589 7.26698 1.28125 7.96018 1.96951C8.17307 2.18088 8.35268 2.3917 8.49957 2.58259C8.64645 2.3917 8.82606 2.18088 9.03895 1.96951C9.73215 1.28125 10.815 0.553589 12.2855 0.553589C14.6808 0.553589 16.5469 2.55158 16.571 4.9008L16.571 4.90096C16.6169 9.50513 12.9173 12.6974 9.17206 15.2396C8.9737 15.3744 8.7394 15.4465 8.49957 15.4465C8.25974 15.4465 8.02545 15.3744 7.8271 15.2396C4.08149 12.6974 0.38184 9.50513 0.428165 4.90091L0.428166 4.9008ZM12.2855 1.69645C11.2201 1.69645 10.4099 2.21878 9.84417 2.78052C9.5625 3.06019 9.35051 3.34129 9.20943 3.55215C9.13921 3.65711 9.08743 3.74334 9.05415 3.80149C9.03753 3.83052 9.02559 3.85243 9.01832 3.86604L9.01096 3.88002L9.01067 3.88057C9.0106 3.88069 9.01054 3.88082 9.01048 3.88094C9.01057 3.88076 9.01067 3.88057 8.49957 3.62502C7.98846 3.88057 7.98856 3.88076 7.98865 3.88094L7.98881 3.88127L7.98817 3.88002L7.98081 3.86604C7.97355 3.85243 7.9616 3.83052 7.94498 3.80149C7.9117 3.74334 7.85992 3.65711 7.7897 3.55215C7.64862 3.34129 7.43664 3.06019 7.15496 2.78052C6.58918 2.21878 5.77906 1.69645 4.71363 1.69645C2.98709 1.69645 1.58912 3.14684 1.57096 4.91241L0.999565 4.90666L1.57096 4.91252C1.53141 8.84964 4.69345 11.7315 8.46891 14.294L8.46943 14.2944C8.47832 14.3004 8.48882 14.3036 8.49957 14.3036C8.51031 14.3036 8.52081 14.3004 8.5297 14.2944L8.5302 14.294C12.3052 11.7316 15.4673 8.84967 15.4282 4.91252C15.4101 3.1469 14.0121 1.69645 12.2855 1.69645ZM8.49957 3.62502L7.98846 3.88057C7.98869 3.88102 7.98891 3.88146 7.98914 3.88191C8.08618 4.07472 8.28363 4.19645 8.49957 4.19645C8.71587 4.19645 8.91362 4.07432 9.01048 3.88094" fill="#C1A771"/>
</svg>
