<svg width="40" height="40" viewBox="0 0 40 40" fill="none" xmlns="http://www.w3.org/2000/svg">
<path class="heart-outer" d="M19.1736 37.0024L20.0006 37.5488L20.8275 37.0024C28.7175 31.7887 33.3843 26.7647 35.6944 22.2072C38.0233 17.6124 37.9572 13.4653 36.3156 10.2595C33.3402 4.44895 25.3157 2.23685 20.0005 6.36808C14.6853 2.23683 6.66081 4.4496 3.68548 10.2603C2.04391 13.4662 1.97778 17.6133 4.30672 22.2081C6.61675 26.7655 11.2837 31.7892 19.1736 37.0024Z" fill="white" stroke="white" stroke-width="3" width="3"/>
<path class="heart-inner" d="M19.2828 9.07459L19.9996 9.81139L20.7163 9.07459C24.6198 5.06208 31.5884 6.51493 34.0894 11.399C35.3068 13.7764 35.494 17.0709 33.4635 21.077C31.4697 25.0105 27.3399 29.6096 19.9995 34.5491C12.6592 29.6101 8.52939 25.0112 6.53565 21.0778C4.50515 17.0719 4.69232 13.7773 5.90975 11.3997C8.41077 6.51534 15.3794 5.06216 19.2828 9.07459Z" stroke="currentColor" stroke-width="2"/>
</svg>
