<svg width="60" height="60" viewBox="0 0 60 60" fill="none" xmlns="http://www.w3.org/2000/svg">
<path fill-rule="evenodd" clip-rule="evenodd" d="M5.78566 20.7023C5.85791 13.6547 11.4561 7.66071 18.642 7.66071C23.0535 7.66071 26.3021 9.8437 28.3817 11.9085C29.0204 12.5426 29.5592 13.175 29.9999 13.7477C30.4405 13.175 30.9794 12.5426 31.618 11.9085C33.6976 9.8437 36.9462 7.66071 41.3577 7.66071C48.5436 7.66071 54.1418 13.6547 54.2141 20.7023L54.2141 20.7028C54.3518 34.5153 43.253 44.0922 32.0173 51.7188C31.4223 52.1232 30.7194 52.3394 29.9999 52.3394C29.2804 52.3394 28.5775 52.1232 27.9825 51.7188C16.7456 44.0922 5.64668 34.5153 5.78565 20.7027L5.78566 20.7023ZM41.3577 11.0893C38.1614 11.0893 35.731 12.6563 34.0337 14.3415C33.1886 15.1805 32.5527 16.0238 32.1295 16.6564C31.9188 16.9713 31.7635 17.23 31.6636 17.4044C31.6137 17.4915 31.5779 17.5572 31.5561 17.598L31.534 17.64L31.5332 17.6416C31.533 17.642 31.5328 17.6424 31.5326 17.6428C31.5329 17.6422 31.5332 17.6416 29.9999 16.875C28.4666 17.6416 28.4668 17.6422 28.4671 17.6428L28.4676 17.6437L28.4657 17.64L28.4436 17.598C28.4218 17.5572 28.386 17.4915 28.3361 17.4044C28.2363 17.23 28.0809 16.9713 27.8703 16.6564C27.447 16.0238 26.8111 15.1805 25.966 14.3415C24.2687 12.6563 21.8383 11.0893 18.642 11.0893C13.4624 11.0893 9.26853 15.4404 9.21405 20.7372L7.49985 20.7199L9.21405 20.7375C9.09539 32.5489 18.5815 41.1946 29.9079 48.8819L29.9095 48.883C29.9361 48.9011 29.9676 48.9108 29.9999 48.9108C30.0321 48.9108 30.0636 48.9011 30.0903 48.883L30.0918 48.882C41.4169 41.1946 50.9032 32.5489 50.7857 20.7375C50.7314 15.4406 46.5374 11.0893 41.3577 11.0893ZM29.9999 16.875L28.4666 17.6416C28.4672 17.643 28.4679 17.6443 28.4686 17.6457C28.7597 18.2241 29.352 18.5893 29.9999 18.5893C30.6488 18.5893 31.242 18.2229 31.5326 17.6428" fill="currentColor"/>
</svg>
