<svg width="82" height="82" viewBox="0 0 82 82" fill="none" xmlns="http://www.w3.org/2000/svg">
<path d="M75.8574 16.8866V44.7734H37.7441V16.8866" stroke="currentColor" stroke-width="3" stroke-miterlimit="10" stroke-linecap="round" stroke-linejoin="round"/>
<path d="M67.6133 10.5093V6.05646H73.519V15.0376" stroke="currentColor" stroke-width="3" stroke-miterlimit="10" stroke-linecap="round" stroke-linejoin="round"/>
<path d="M33.7637 19.9809L56.8014 1.99982L79.8203 19.9809" stroke="currentColor" stroke-width="3" stroke-miterlimit="10" stroke-linecap="round" stroke-linejoin="round"/>
<path d="M53.1217 26.9244H44.0273V37.5281H53.1217V26.9244Z" stroke="currentColor" stroke-width="3" stroke-miterlimit="10" stroke-linecap="round" stroke-linejoin="round"/>
<path d="M60.6699 44.7734V26.9244H70.5756V44.7734" stroke="currentColor" stroke-width="3" stroke-miterlimit="10" stroke-linecap="round" stroke-linejoin="round"/>
<path d="M60.6699 35.8489H63.7643" stroke="currentColor" stroke-width="3" stroke-miterlimit="10" stroke-linecap="round" stroke-linejoin="round"/>
<path d="M18.3861 31.1885L13.3672 35.0941L8.36719 31.1885" stroke="currentColor" stroke-width="3" stroke-miterlimit="10" stroke-linecap="round" stroke-linejoin="round"/>
<path d="M25.0653 15.0375H13.3672V35.0941" stroke="currentColor" stroke-width="3" stroke-miterlimit="10" stroke-linecap="round" stroke-linejoin="round"/>
<path d="M70.1016 59.5092L75.1204 55.6036L80.1204 59.5092" stroke="currentColor" stroke-width="3" stroke-miterlimit="10" stroke-linecap="round" stroke-linejoin="round"/>
<path d="M63.4238 75.6602H75.1219V55.6036" stroke="currentColor" stroke-width="3" stroke-miterlimit="10" stroke-linecap="round" stroke-linejoin="round"/>
<path d="M20.3487 42.7545C30.5373 42.7545 38.8204 51.0187 38.8204 61.2262V79.9998H1.87695V61.2262C1.87695 51.0187 10.1411 42.7545 20.3487 42.7545Z" stroke="currentColor" stroke-width="3" stroke-miterlimit="10" stroke-linecap="round" stroke-linejoin="round"/>
<path d="M20.3505 69.1319C24.602 69.1319 28.0486 65.6853 28.0486 61.4338C28.0486 57.1822 24.602 53.7357 20.3505 53.7357C16.0989 53.7357 12.6523 57.1822 12.6523 61.4338C12.6523 65.6853 16.0989 69.1319 20.3505 69.1319Z" stroke="currentColor" stroke-width="3" stroke-miterlimit="10" stroke-linecap="round" stroke-linejoin="round"/>
<path d="M20.3484 63.3017C21.38 63.3017 22.2163 62.4654 22.2163 61.4338C22.2163 60.4022 21.38 59.5659 20.3484 59.5659C19.3168 59.5659 18.4805 60.4022 18.4805 61.4338C18.4805 62.4654 19.3168 63.3017 20.3484 63.3017Z" stroke="currentColor" stroke-width="3" stroke-miterlimit="10" stroke-linecap="round" stroke-linejoin="round"/>
<path d="M7.23438 61.4338C7.23438 54.1885 13.1023 48.3206 20.3476 48.3206" stroke="currentColor" stroke-width="3" stroke-miterlimit="10" stroke-linecap="round" stroke-linejoin="round"/>
<path d="M38.8008 79.9998H58.6876V70.4149" stroke="currentColor" stroke-width="3" stroke-miterlimit="10" stroke-linecap="round" stroke-linejoin="round"/>
<path d="M58.6876 72.4904H38.8008" stroke="currentColor" stroke-width="3" stroke-miterlimit="10" stroke-linecap="round" stroke-linejoin="round"/>
<path d="M43.2539 79.9998V77.7168" stroke="currentColor" stroke-width="3" stroke-miterlimit="10" stroke-linecap="round" stroke-linejoin="round"/>
<path d="M47.2344 79.9998V77.7168" stroke="currentColor" stroke-width="3" stroke-miterlimit="10" stroke-linecap="round" stroke-linejoin="round"/>
<path d="M51.1992 79.9998V77.7168" stroke="currentColor" stroke-width="3" stroke-miterlimit="10" stroke-linecap="round" stroke-linejoin="round"/>
<path d="M55.1797 79.9998V77.7168" stroke="currentColor" stroke-width="3" stroke-miterlimit="10" stroke-linecap="round" stroke-linejoin="round"/>
<path d="M44.0273 32.2263H53.1217" stroke="currentColor" stroke-width="3" stroke-miterlimit="10" stroke-linecap="round" stroke-linejoin="round"/>
<path d="M56.8002 18.6224C58.3737 18.6224 59.6493 17.3469 59.6493 15.7734C59.6493 14.1999 58.3737 12.9243 56.8002 12.9243C55.2267 12.9243 53.9512 14.1999 53.9512 15.7734C53.9512 17.3469 55.2267 18.6224 56.8002 18.6224Z" stroke="currentColor" stroke-width="3" stroke-miterlimit="10" stroke-linecap="round" stroke-linejoin="round"/>
</svg>
