<svg width="50" height="42" viewBox="0 0 50 42" fill="none" xmlns="http://www.w3.org/2000/svg">
<path d="M33.9689 41.5772C33.3956 41.4914 32.817 41.4325 32.2544 41.3146C28.5735 40.5431 25.6374 38.6143 23.4514 35.5603C22.1494 33.7386 21.319 31.708 21.0189 29.4951C20.4188 25.1017 21.5708 21.2012 24.5176 17.8793C26.7465 15.3664 29.5487 13.8341 32.8759 13.3411C37.4837 12.6553 41.5128 13.9359 44.899 17.1238C47.1332 19.2295 48.4888 21.8441 49.0674 24.8552C49.1799 25.4392 49.2228 26.034 49.2978 26.6287C49.2978 27.1805 49.2978 27.7378 49.2978 28.2896C49.2764 28.4718 49.2549 28.654 49.2335 28.8415C48.9281 31.6437 47.8994 34.1511 46.1045 36.3264C43.8649 39.0429 41.0092 40.7306 37.5426 41.3736C37.0711 41.4593 36.5943 41.5129 36.1174 41.5825C35.3995 41.5772 34.6815 41.5772 33.9689 41.5772ZM35.0994 15.8969C28.7343 15.8433 23.4782 21.1154 23.5639 27.5288C23.6443 33.5993 28.7021 38.9572 35.0673 38.8875C41.5128 38.8179 46.7099 33.6421 46.5653 27.0948C46.4313 20.9118 41.3467 15.8808 35.0994 15.8969Z" fill="#C1A771"/>
<path d="M0 18.1632C0.171452 17.4399 0.637587 16.9523 1.2216 16.513C4.20593 14.2627 7.16884 11.9856 10.1371 9.71383C13.9412 6.8045 17.7506 3.90053 21.5547 0.985849C22.1816 0.508998 22.8513 0.144663 23.6282 0C23.8801 0 24.1265 0 24.3783 0C25.5732 0.166094 26.3983 0.969776 27.2716 1.68237C29.3772 3.39154 31.4722 5.11141 33.5778 6.83129C34.3976 7.50103 35.2227 8.17612 36.0424 8.85121C36.1282 8.92087 36.2085 9.00659 36.2943 9.08696C34.9441 10.3407 33.0956 10.7372 31.515 9.45129C30.3577 8.51367 29.2112 7.55996 28.0485 6.62769C26.9662 5.76508 25.8785 4.91853 24.7748 4.07734C24.164 3.61121 23.5372 3.60585 22.9264 4.07199C21.7155 4.9989 20.526 5.9526 19.3259 6.89559C16.6951 8.97444 14.0591 11.0533 11.4284 13.1322C8.91015 15.1253 6.38659 17.1131 3.86303 19.1008C3.41297 19.4545 2.99505 19.8724 2.39497 20.001C1.89133 20.1081 1.39841 20.0867 0.916197 19.9367C0.503641 19.8081 0.262536 19.492 0.1018 19.1062C0.0642945 19.0097 0.0321473 18.9079 0 18.8061C0 18.5918 0 18.3775 0 18.1632Z" fill="#C1A771"/>
<path d="M28.1717 11.2944C27.8127 11.5248 27.4751 11.7391 27.1429 11.9588C25.8088 12.8267 24.5069 13.7269 23.371 14.852C21.3564 16.8451 20.0116 19.2026 19.5616 22.0262C19.2615 23.88 19.2454 25.7606 19.224 27.6305C19.1758 31.8258 19.1597 36.021 19.1329 40.2162C19.1276 40.6341 19.0365 40.7359 18.6132 40.7306C16.3736 40.7252 14.134 40.7198 11.8891 40.7038C11.139 40.6984 10.3889 40.6877 9.64414 40.6288C8.4547 40.5323 7.57065 39.9001 6.85805 38.9732C6.44014 38.432 6.24725 37.848 6.25261 37.1461C6.27404 32.0508 6.26868 26.9501 6.25797 21.8548C6.25797 21.4797 6.39192 21.2118 6.67588 20.9814C9.40304 18.79 12.1248 16.5933 14.8413 14.3966C17.0487 12.6124 19.2562 10.8282 21.4582 9.03871C21.8654 8.70652 22.2405 8.33683 22.6423 7.99928C22.7924 7.87605 22.9638 7.76889 23.1353 7.68317C23.7139 7.38313 24.2872 7.3992 24.7694 7.85462C25.5249 8.57257 26.2589 9.31732 26.9929 10.0621C27.3894 10.4585 27.7645 10.8711 28.1717 11.2944Z" fill="#C1A771"/>
<path d="M6.91699 10.0568C6.91699 8.36367 6.91699 6.74024 6.91699 5.1168C6.91699 4.78462 6.92771 4.45779 6.94378 4.1256C6.97593 3.58981 7.26525 3.24155 7.75282 3.03795C8.22431 2.83971 8.71724 2.87721 9.20481 2.90936C10.8765 3.02188 12.5481 3.13975 14.2251 3.25762C14.4823 3.2737 14.7395 3.29513 14.9967 3.31656C15.0717 3.32192 15.1413 3.36478 15.2806 3.413C12.4785 5.64723 9.72452 7.82788 6.91699 10.0568Z" fill="#C1A771"/>
<path d="M35.9193 36.5407C35.4263 36.5407 34.9655 36.5407 34.4673 36.5407C34.4673 36.0907 34.4673 35.6513 34.4673 35.2066C34.4673 34.5047 34.4619 34.5154 33.7922 34.3333C32.8974 34.0922 32.008 33.835 31.1186 33.5832C31.0704 33.5671 31.0221 33.5403 30.9632 33.5135C31.1614 32.9617 31.349 32.4152 31.5526 31.8472C31.9651 32.0347 32.3562 32.2223 32.7581 32.383C33.6957 32.7634 34.6601 32.9027 35.6621 32.6777C36.9372 32.3884 37.7195 31.2257 37.4034 30.047C37.2587 29.5112 36.9426 29.0826 36.4711 28.82C35.6567 28.3592 34.8209 27.9413 33.985 27.5288C33.3046 27.1912 32.6134 26.8697 32.083 26.3072C31.2632 25.4285 31.0757 24.3837 31.3115 23.2478C31.6276 21.7369 32.6777 20.9546 34.0708 20.5314C34.6119 20.3653 34.6173 20.376 34.6173 19.8188C34.6173 19.2937 34.6173 18.7686 34.6173 18.2275C35.0888 18.2275 35.5388 18.2275 36.0103 18.2275C36.0103 18.8008 36.0211 19.3633 36.005 19.9206C35.9996 20.1242 36.0532 20.2153 36.2622 20.2688C37.1676 20.4992 38.0678 20.751 39 20.9975C38.8018 21.5226 38.6143 22.0369 38.416 22.562C37.9231 22.4013 37.457 22.2352 36.9801 22.0959C36.1282 21.8494 35.2709 21.8494 34.4244 22.1334C33.7439 22.3584 33.2832 22.8138 33.176 23.5318C33.0742 24.2497 33.3689 24.8338 33.9636 25.2356C34.344 25.4928 34.7619 25.7017 35.1691 25.9214C36.0318 26.3875 36.9319 26.7894 37.7517 27.3145C38.9572 28.0967 39.5465 29.2647 39.4394 30.706C39.3322 32.1848 38.5339 33.2296 37.2105 33.8671C36.8676 34.0332 36.4979 34.1511 36.1336 34.2636C35.9568 34.3172 35.9032 34.3922 35.9085 34.5797C35.93 35.2227 35.9193 35.8656 35.9193 36.5407Z" fill="#C1A771"/>
</svg>
