<svg width="85" height="74" viewBox="0 0 85 74" fill="none" xmlns="http://www.w3.org/2000/svg">
<path d="M50.5336 19.1198C49.8843 19.531 49.2782 19.9206 48.683 20.321C46.2805 21.8902 43.9321 23.5136 41.8759 25.5373C38.2396 29.1303 35.8155 33.3834 35.0038 38.4806C34.4627 41.8247 34.4302 45.212 34.3978 48.5885C34.3112 56.1532 34.2787 63.7179 34.2354 71.2934C34.2246 72.051 34.0623 72.2349 33.2939 72.2241C29.2572 72.2133 25.2097 72.2025 21.1623 72.1808C19.8095 72.17 18.4567 72.1484 17.1148 72.051C14.972 71.8778 13.3703 70.7415 12.0933 69.064C11.3357 68.09 10.9894 67.0295 11.0002 65.7633C11.0435 56.5753 11.0327 47.3764 11.0111 38.1776C11.0111 37.4958 11.2492 37.0196 11.7686 36.5976C16.6927 32.6475 21.5951 28.6866 26.4976 24.7257C30.4801 21.5115 34.4627 18.2865 38.4344 15.0615C39.1703 14.4662 39.8413 13.7953 40.5664 13.1892C40.8369 12.962 41.1508 12.778 41.4538 12.6157C42.4927 12.0745 43.5317 12.107 44.3974 12.9295C45.761 14.2282 47.0813 15.5701 48.4125 16.9121C49.1267 17.6047 49.7977 18.3514 50.5336 19.1198Z" stroke="currentColor" stroke-width="3" stroke-miterlimit="10" stroke-linecap="round" stroke-linejoin="round"/>
<path d="M2.43945 31.9656L42.8927 1.8259L60.1324 15.148" stroke="currentColor" stroke-width="3" stroke-miterlimit="10" stroke-linecap="round" stroke-linejoin="round"/>
<path d="M12.2002 24.6931V3.94699H25.8686V14.5094" stroke="currentColor" stroke-width="3" stroke-miterlimit="10" stroke-linecap="round" stroke-linejoin="round"/>
<path d="M61.8855 65.9905C73.5465 65.9905 82.9996 56.5374 82.9996 44.8765C82.9996 33.2155 73.5465 23.7625 61.8855 23.7625C50.2246 23.7625 40.7715 33.2155 40.7715 44.8765C40.7715 56.5374 50.2246 65.9905 61.8855 65.9905Z" stroke="currentColor" stroke-width="3" stroke-miterlimit="10" stroke-linecap="round" stroke-linejoin="round"/>
<path d="M59.2659 58.1904V33.7512H65.3569C69.0259 33.7512 71.9995 36.7248 71.9995 40.3938C71.9995 44.0628 69.0259 47.0364 65.3569 47.0364H54.1299" stroke="currentColor" stroke-width="3" stroke-miterlimit="10" stroke-linecap="round" stroke-linejoin="round"/>
<path d="M54.1299 52.6507L65.2092 52.6507" stroke="currentColor" stroke-width="3" stroke-miterlimit="10" stroke-linecap="round" stroke-linejoin="round"/>
</svg>
