<svg width="76" height="78" viewBox="0 0 76 78" fill="none" xmlns="http://www.w3.org/2000/svg">
<path d="M6.44727 41.3823V76.3087H53.6679V41.3823" stroke="currentColor" stroke-width="3" stroke-miterlimit="10" stroke-linecap="round" stroke-linejoin="round"/>
<path d="M2.30078 44.4852L30.0508 23.7205L57.8155 44.4852V36.6911L30.0508 15.9411L2.30078 36.6911V44.4852Z" stroke="currentColor" stroke-width="3" stroke-miterlimit="10" stroke-linecap="round" stroke-linejoin="round"/>
<path d="M27.5512 50.0881H11.4336V66.2058H27.5512V50.0881Z" stroke="currentColor" stroke-width="3" stroke-miterlimit="10" stroke-linecap="round" stroke-linejoin="round"/>
<path d="M48.1835 76.3087V50.0881H33.2129V76.3087" stroke="currentColor" stroke-width="3" stroke-miterlimit="10" stroke-linecap="round" stroke-linejoin="round"/>
<path d="M19.4922 50.0881V66.2058" stroke="currentColor" stroke-width="3" stroke-miterlimit="10" stroke-linecap="round" stroke-linejoin="round"/>
<path d="M36.3751 35.2205H23.8457V43.2794H36.3751V35.2205Z" stroke="currentColor" stroke-width="3" stroke-miterlimit="10" stroke-linecap="round" stroke-linejoin="round"/>
<path d="M30.1094 35.2205V43.2794" stroke="currentColor" stroke-width="3" stroke-miterlimit="10" stroke-linecap="round" stroke-linejoin="round"/>
<path d="M44.7871 61.8235V66.044" stroke="currentColor" stroke-width="3" stroke-miterlimit="10" stroke-linecap="round" stroke-linejoin="round"/>
<path d="M11.4336 58.147H27.5512" stroke="currentColor" stroke-width="3" stroke-miterlimit="10" stroke-linecap="round" stroke-linejoin="round"/>
<path d="M61.0056 27.0735C68.0148 27.0735 73.6968 21.3914 73.6968 14.3823C73.6968 7.37313 68.0148 1.6911 61.0056 1.6911C53.9965 1.6911 48.3145 7.37313 48.3145 14.3823C48.3145 21.3914 53.9965 27.0735 61.0056 27.0735Z" stroke="currentColor" stroke-width="3" stroke-miterlimit="10" stroke-linecap="round" stroke-linejoin="round"/>
<path d="M59.3121 21.7216V8.21948H62.6773C64.7043 8.21948 66.3472 9.86232 66.3472 11.8894C66.3472 13.9164 64.7043 15.5592 62.6773 15.5592H56.4746" stroke="currentColor" stroke-width="3" stroke-miterlimit="10" stroke-linecap="round" stroke-linejoin="round"/>
<path d="M56.4746 19.2195L62.5957 19.2195" stroke="currentColor" stroke-width="3" stroke-miterlimit="10" stroke-linecap="round" stroke-linejoin="round"/>
</svg>
