<svg width="42" height="42" viewBox="0 0 42 42" fill="none" xmlns="http://www.w3.org/2000/svg">
<path fill-rule="evenodd" clip-rule="evenodd" d="M3.68331 0.33731L6.0439 4.12867C6.1813 4.34917 6.18828 4.62684 6.06212 4.85408C5.93594 5.08129 5.6965 5.22214 5.43671 5.22214H3.79143V8.21363C3.79143 8.60869 3.4711 8.92902 3.07604 8.92902C2.68098 8.92902 2.36066 8.60869 2.36066 8.21363V5.22214H0.715366C0.455575 5.22214 0.216129 5.08121 0.0899655 4.85408C-0.0361973 4.62693 -0.0292248 4.34925 0.108094 4.12867L2.46877 0.33731C2.59936 0.127557 2.82897 0 3.07604 0C3.32303 0 3.55272 0.127557 3.68331 0.33731ZM3.07595 2.06889L2.00349 3.79137H4.14842L3.07595 2.06889ZM42 2.96768C42 3.36274 41.6798 3.68306 41.2846 3.68306C40.8895 3.68306 40.5693 3.36274 40.5693 2.96768V1.43092H20.13V17.6089H32.8636C33.2589 17.6089 33.5791 17.9292 33.5791 18.3243C33.5791 18.7194 33.2587 19.0396 32.8636 19.0396H20.1302V23.7611C20.1302 24.1562 19.8098 24.4765 19.4147 24.4765C19.0197 24.4765 18.6993 24.1562 18.6993 23.7611V1.43092H9.62694V32.3732H18.6993V28.9117C18.6993 28.5166 19.0197 28.1963 19.4146 28.1963C19.8097 28.1963 20.13 28.5166 20.13 28.9117V32.3732H40.5691V19.0396H37.7281C37.3328 19.0396 37.0126 18.7194 37.0126 18.3243C37.0126 17.9292 37.3328 17.6089 37.7281 17.6089H40.5691V5.35222C40.5691 4.95716 40.8893 4.63683 41.2844 4.63683C41.6796 4.63683 41.9999 4.95716 41.9999 5.35222V33.0885C41.9999 33.4834 41.6796 33.8038 41.2844 33.8038H8.91155C8.51649 33.8038 8.19617 33.4834 8.19617 33.0885V0.715528C8.19617 0.320469 8.51649 0.000140409 8.91155 0.000140409H41.2846C41.6798 0.000140409 42 0.320469 42 0.715528V2.96768ZM6.06221 28.9498C5.93605 28.7226 5.6966 28.5818 5.43681 28.5818H3.79152V10.1213C3.79152 9.72628 3.47119 9.40596 3.07613 9.40596C2.68108 9.40596 2.36075 9.72628 2.36075 10.1213V28.5817H0.715545C0.455754 28.5817 0.216308 28.7226 0.0901448 28.9498C-0.036018 29.1771 -0.0290455 29.4547 0.108273 29.6751L2.46886 33.4665C2.59945 33.6763 2.82906 33.8038 3.07613 33.8038C3.32329 33.8038 3.5529 33.6763 3.68341 33.4665L6.04399 29.6751C6.18147 29.4546 6.18845 29.1769 6.06221 28.9498ZM3.07622 31.735L2.00367 30.0126H4.1486L3.07622 31.735ZM37.8713 35.9559L41.6627 38.3166C41.8724 38.447 42 38.6766 42 38.9238C42 39.1709 41.8724 39.4004 41.6627 39.5311L37.8713 41.8916C37.7559 41.9634 37.6246 41.9996 37.4933 41.9996C37.3738 41.9996 37.2542 41.9699 37.1459 41.9097C36.9189 41.7836 36.7778 41.5442 36.7778 41.2843V39.6391H13.4183V41.2843C13.4183 41.5442 13.2775 41.7836 13.0502 41.9097C12.942 41.9698 12.8224 41.9996 12.7029 41.9996C12.5716 41.9996 12.4403 41.9636 12.3248 41.8916L8.53348 39.5311C8.32373 39.4004 8.19617 39.1709 8.19617 38.9238C8.19617 38.6767 8.32373 38.447 8.53348 38.3166L12.3248 35.9559C12.5456 35.8186 12.8232 35.8116 13.0503 35.9378C13.2775 36.0639 13.4183 36.3033 13.4183 36.5631V38.2085H36.778V36.5631C36.778 36.3033 36.9188 36.0639 37.146 35.9378C37.3731 35.8116 37.6507 35.8186 37.8713 35.9559ZM10.2651 38.9238L11.9875 39.9963V37.8512L10.2651 38.9238ZM38.2086 37.8512V39.9963L39.9313 38.9238L38.2086 37.8512Z" fill="#C1A771"/>
</svg>
