<svg width="40" height="40" viewBox="0 0 40 40" fill="none" xmlns="http://www.w3.org/2000/svg">
<path fill-rule="evenodd" clip-rule="evenodd" d="M20.5242 19.7374C25.3472 19.7374 29.2151 15.8217 29.2151 11.0464C29.2151 6.2712 25.2995 2.30774 20.5242 2.30774C15.749 2.30774 11.8333 6.22345 11.8333 10.9987C11.8333 15.7739 15.7013 19.7374 20.5242 19.7374ZM20.5242 3.83582C24.4876 3.83582 27.6871 7.03523 27.6871 10.9987C27.6871 14.9621 24.4876 18.1616 20.5242 18.1616C16.5608 18.1616 13.3613 14.9621 13.3613 10.9987C13.3613 7.03523 16.5608 3.83582 20.5242 3.83582ZM30.2664 23.7485H29.6456V21.4087C29.6456 20.9788 29.3113 20.6446 28.8816 20.6446H13.171C12.7412 20.6446 12.4069 20.9788 12.4069 21.4087V24.5125C12.4069 24.9423 12.7412 25.2766 13.171 25.2766H13.7918V26.8524H12.5979C12.1682 26.8524 11.8339 27.1867 11.8339 27.6165V29.9564H9.73279C9.30303 29.9564 8.96875 30.2906 8.96875 30.7203V33.8243C8.96875 34.254 9.30303 34.5883 9.73279 34.5883H10.5923V36.9282C10.5923 37.358 10.9266 37.6922 11.3564 37.6922H27.0669C27.4967 37.6922 27.831 37.358 27.831 36.9282V33.8243C27.831 33.3945 27.4967 33.0602 27.0669 33.0602H26.2075V31.4844H28.3086C28.7383 31.4844 29.0725 31.1502 29.0725 30.7203V28.3805H30.2664C30.6962 28.3805 31.0304 28.0462 31.0304 27.6165V24.5125C31.0304 24.1305 30.6962 23.7485 30.2664 23.7485ZM13.935 22.2204H28.1175V23.7963H14.5558H13.935V22.2204ZM10.4968 33.0125V31.4367H12.5979H24.6793V33.0125H11.3564H10.4968ZM26.3029 34.5405V36.1163H12.1204V34.5405H25.4434H26.3029ZM27.5445 29.9564H25.4434H13.362V28.3805H14.5558H27.5445V29.9564ZM29.5024 26.8524H28.3086H15.3198V25.2766H28.8816H29.5024V26.8524ZM18.7586 15.4397L18.3289 15.2964C18.2856 15.2819 18.2423 15.2631 18.195 15.2426C18.0859 15.1952 17.9557 15.1387 17.7558 15.1053L17.5648 15.0098L17.6125 14.8188L17.7558 13.7205L17.8036 13.3385L18.1856 13.5295C18.2095 13.5534 18.2334 13.5654 18.2573 13.5773C18.2811 13.5892 18.305 13.6012 18.3289 13.625C18.3527 13.625 18.3766 13.6369 18.4004 13.6489C18.4243 13.6608 18.4482 13.6728 18.4721 13.6728C18.5672 13.7204 18.71 13.768 18.8527 13.8156L18.8542 13.816C18.9058 13.8419 18.9715 13.8538 19.0437 13.8668C19.1048 13.8778 19.1705 13.8897 19.2362 13.9115C19.2839 13.9115 19.3435 13.9235 19.4032 13.9354C19.4629 13.9473 19.5226 13.9593 19.5704 13.9593C19.6659 14.007 19.8092 14.007 19.9047 14.007H20.1434H20.3822C20.4777 14.007 20.5732 14.007 20.6687 13.9593C20.7386 13.9593 20.783 13.9337 20.8393 13.9012C20.8598 13.8893 20.8819 13.8766 20.9074 13.8638L20.9074 13.8638C21.003 13.816 21.0985 13.7683 21.1462 13.7205C21.2418 13.6728 21.2895 13.625 21.3373 13.5295C21.385 13.4818 21.4327 13.3863 21.4327 13.2908V13.0042C21.4327 12.9087 21.4327 12.8132 21.385 12.7177C21.385 12.6222 21.3373 12.5267 21.2895 12.479C21.2419 12.3837 21.1941 12.3359 21.1465 12.2883L21.1462 12.288C21.0985 12.2402 21.0507 12.1924 20.9553 12.1447C20.9075 12.1208 20.8717 12.0969 20.8359 12.0731C20.8001 12.0492 20.7643 12.0253 20.7165 12.0014C20.6896 11.9746 20.6477 11.9629 20.5993 11.9493C20.5614 11.9386 20.5196 11.9269 20.4777 11.9059C20.2867 11.8582 20.1434 11.8104 19.9524 11.7149C19.8569 11.6672 19.7734 11.6314 19.6898 11.5955C19.6062 11.5597 19.5226 11.5239 19.4271 11.4762C19.2362 11.3807 19.0928 11.2851 18.9496 11.1896C18.8542 11.0941 18.7109 10.9986 18.5675 10.9031C18.4243 10.8076 18.3289 10.7121 18.2333 10.5689C18.1378 10.4734 18.0423 10.3301 17.9946 10.1868C17.9707 10.1152 17.9468 10.0316 17.9229 9.94808C17.899 9.86451 17.8752 9.78095 17.8513 9.70932C17.8036 9.56606 17.8036 9.37505 17.8036 9.23179C17.8036 8.99303 17.8036 8.80203 17.8513 8.61101C17.899 8.42001 17.9468 8.22899 18.0423 8.03799C18.09 7.96636 18.1378 7.88279 18.1856 7.79922C18.2333 7.71565 18.2811 7.63208 18.3289 7.56045C18.4243 7.41719 18.5675 7.27394 18.7109 7.13069C18.8148 7.02679 18.9438 6.94801 19.0615 6.87613C19.106 6.8489 19.149 6.82265 19.1884 6.79641C19.3316 6.70091 19.5227 6.60541 19.7136 6.55765H19.8092V5.6026V5.31609H20.0957H20.9553H21.3373V5.6026V6.46215H21.4327C21.4805 6.46215 21.5283 6.4741 21.5761 6.48604C21.6238 6.49797 21.6715 6.5099 21.7192 6.5099C21.767 6.5099 21.8147 6.52184 21.8625 6.53377C21.9103 6.54571 21.9581 6.55765 22.0058 6.55765C22.0617 6.55765 22.1177 6.57404 22.164 6.58762C22.1968 6.59722 22.2247 6.60541 22.2445 6.60541C22.34 6.60541 22.3879 6.60541 22.4833 6.65316L22.7221 6.74867L22.6743 6.98743L22.5311 7.99023L22.4833 8.32449L22.1491 8.22899C22.1012 8.22899 22.0058 8.22899 21.9103 8.18123C21.8625 8.18123 21.8267 8.1693 21.7909 8.15736C21.7551 8.14542 21.7193 8.13349 21.6715 8.13349C21.6237 8.13349 21.564 8.12154 21.5043 8.1096C21.4446 8.09766 21.385 8.08573 21.3373 8.08573C21.1939 8.03799 21.0985 8.03799 21.003 8.03799H20.812H20.6209C20.4777 8.03799 20.3822 8.03799 20.2867 8.08573L20.0001 8.22899C19.9857 8.24346 19.9668 8.25793 19.9462 8.27373C19.8989 8.31007 19.8424 8.35343 19.8092 8.42001C19.7853 8.46776 19.7614 8.50357 19.7375 8.53939C19.7137 8.5752 19.6898 8.61102 19.6659 8.65877C19.6181 8.70651 19.5704 8.80203 19.5704 8.89753V9.18405C19.5704 9.27955 19.5704 9.37505 19.6181 9.47055L19.6188 9.47193C19.6664 9.56698 19.7139 9.6618 19.7615 9.70932C19.7947 9.77589 19.8512 9.81927 19.8986 9.85561C19.9191 9.8714 19.938 9.88586 19.9524 9.90033C20.0002 9.92421 20.036 9.94808 20.0718 9.97196C20.1076 9.99583 20.1434 10.0197 20.1912 10.0436C20.2389 10.0436 20.3344 10.0913 20.4299 10.139L20.43 10.1391C20.4777 10.163 20.5255 10.1749 20.5732 10.1869C20.621 10.1988 20.6687 10.2107 20.7165 10.2346C20.9074 10.2823 21.0507 10.3301 21.2418 10.4256C21.385 10.4734 21.576 10.5689 21.7192 10.6644L22.1491 10.9509C22.2207 10.9986 22.2804 11.0583 22.3401 11.118C22.3998 11.1777 22.4595 11.2374 22.5311 11.2851C22.6743 11.3807 22.7698 11.4762 22.8653 11.6194C22.9608 11.7149 23.0564 11.8582 23.1041 12.0014C23.1279 12.0731 23.1518 12.1566 23.1757 12.2402C23.1996 12.3238 23.2235 12.4073 23.2473 12.479C23.295 12.6222 23.295 12.8132 23.295 12.9565C23.295 13.1475 23.295 13.3385 23.2473 13.5295C23.1996 13.7205 23.1518 13.9115 23.0564 14.1026C23.0086 14.1742 22.9609 14.2577 22.9131 14.3413C22.8653 14.4248 22.8175 14.5084 22.7698 14.5801C22.6743 14.7233 22.5311 14.8665 22.3879 15.0098C22.2445 15.1532 22.1012 15.2486 21.9103 15.3441C21.7192 15.4397 21.5283 15.5351 21.3373 15.5829H21.2418V16.5379V16.8244H20.9553H20.0957H19.8092V16.5379V15.6306H19.7136C19.6421 15.6068 19.5586 15.5949 19.4752 15.5829C19.3915 15.571 19.3079 15.559 19.2362 15.5351C19.0451 15.5351 18.9019 15.4874 18.7586 15.4397Z" fill="#C1A771"/>
</svg>
