<svg width="43" height="43" viewBox="0 0 43 43" fill="none" xmlns="http://www.w3.org/2000/svg">
<path fill-rule="evenodd" clip-rule="evenodd" d="M13.3017 4.89763C10.3257 4.89763 7.90776 7.30989 7.90776 10.2916C7.90776 10.6752 7.94841 11.0472 8.02413 11.4084C8.07789 11.6647 7.91364 11.9161 7.65729 11.9699C7.40094 12.0236 7.14954 11.8594 7.09579 11.603C7.0071 11.1801 6.95923 10.7427 6.95923 10.2916C6.95923 6.78536 9.80249 3.9491 13.3017 3.9491C16.8013 3.9491 19.6442 6.79202 19.6442 10.2916C19.6442 13.7912 16.8013 16.6341 13.3017 16.6341C13.0398 16.6341 12.8275 16.4218 12.8275 16.1598C12.8275 15.8979 13.0398 15.6856 13.3017 15.6856C16.2774 15.6856 18.6957 13.2673 18.6957 10.2916C18.6957 7.31588 16.2774 4.89763 13.3017 4.89763Z" fill="currentColor"/>
<path fill-rule="evenodd" clip-rule="evenodd" d="M13.3712 14.6991C12.568 14.6991 11.9168 15.3503 11.9168 16.1536C11.9168 16.9568 12.568 17.608 13.3712 17.608C14.1745 17.608 14.8256 16.9568 14.8256 16.1536C14.8256 15.3503 14.1745 14.6991 13.3712 14.6991ZM10.9683 16.1536C10.9683 14.8264 12.0441 13.7506 13.3712 13.7506C14.6983 13.7506 15.7741 14.8264 15.7741 16.1536C15.7741 17.4807 14.6983 18.5565 13.3712 18.5565C12.0441 18.5565 10.9683 17.4807 10.9683 16.1536Z" fill="currentColor"/>
<path fill-rule="evenodd" clip-rule="evenodd" d="M17.3183 10.8889C17.3551 11.1483 17.1747 11.3883 16.9153 11.4251L9.25 12.5124L8.05905 22.0817L24.1592 37.906L34.8957 26.9789L20.8227 13.153C20.6358 12.9694 20.6332 12.6691 20.8167 12.4823C21.0003 12.2954 21.3006 12.2928 21.4874 12.4763L35.8988 26.6347C35.9885 26.7229 36.0395 26.8431 36.0406 26.9688C36.0417 27.0946 35.9928 27.2157 35.9047 27.3054L24.5034 38.9091C24.4152 38.9988 24.295 39.0499 24.1692 39.0509C24.0434 39.052 23.9223 39.0031 23.8326 38.9149L7.22703 22.5939C7.12169 22.4904 7.0706 22.3437 7.08884 22.1971L8.35355 12.0352C8.37999 11.8227 8.54556 11.6543 8.75757 11.6242L16.7821 10.486C17.0415 10.4492 17.2815 10.6296 17.3183 10.8889Z" fill="currentColor"/>
<path fill-rule="evenodd" clip-rule="evenodd" d="M23.2365 19.1512C23.4214 19.3367 23.421 19.637 23.2355 19.822L16.7349 26.3036C16.5494 26.4885 16.2491 26.4881 16.0642 26.3026C15.8793 26.1171 15.8797 25.8168 16.0652 25.6319L22.5658 19.1503C22.7512 18.9653 23.0515 18.9658 23.2365 19.1512Z" fill="currentColor"/>
<path fill-rule="evenodd" clip-rule="evenodd" d="M19.8514 20.1337C20.0358 20.3197 20.0345 20.62 19.8484 20.8044L15.5112 25.103C15.3252 25.2874 15.0249 25.2861 14.8405 25.1C14.6562 24.914 14.6575 24.6137 14.8435 24.4293L19.1807 20.1307C19.3668 19.9463 19.6671 19.9477 19.8514 20.1337Z" fill="currentColor"/>
<path d="M25.5903 27.6131C26.0176 27.1726 26.2524 26.5804 26.2431 25.9668C26.2338 25.3532 25.9811 24.7684 25.5406 24.3412C25.1001 23.9139 24.508 23.679 23.8944 23.6884C23.2808 23.6977 22.696 23.9504 22.2687 24.3908L20.7583 25.9478C20.6782 26.0304 20.6341 26.1414 20.6359 26.2565C20.6376 26.3715 20.685 26.4812 20.7676 26.5613L23.155 28.8773L22.6515 29.3963C22.5714 29.4789 22.5274 29.5899 22.5291 29.7049C22.5308 29.82 22.5782 29.9296 22.6608 30.0098C22.7434 30.0899 22.8544 30.1339 22.9695 30.1322C23.0845 30.1304 23.1942 30.083 23.2743 30.0004L23.7778 29.4814L24.193 29.8842L23.6895 30.4032C23.6094 30.4858 23.5653 30.5968 23.5671 30.7119C23.5688 30.8269 23.6162 30.9366 23.6988 31.0167C23.7814 31.0968 23.8924 31.1408 24.0075 31.1391C24.1225 31.1374 24.2322 31.09 24.3123 31.0074L24.8158 30.4884L25.3348 30.9919C25.4173 31.072 25.5284 31.116 25.6434 31.1143C25.7585 31.1125 25.8681 31.0651 25.9482 30.9826C26.0284 30.9 26.0724 30.7889 26.0706 30.6739C26.0689 30.5588 26.0215 30.4492 25.9389 30.3691L25.4199 29.8656L26.5276 28.7238C26.6077 28.6412 26.6517 28.5302 26.65 28.4151C26.6482 28.3001 26.6008 28.1904 26.5183 28.1103C26.4357 28.0302 26.3246 27.9862 26.2096 27.9879C26.0945 27.9897 25.9849 28.037 25.9048 28.1196L24.7971 29.2614L24.3819 28.8586L25.5903 27.6131ZM21.6832 26.2406L22.8915 24.995C23.1586 24.7197 23.524 24.5618 23.9075 24.5559C24.291 24.5501 24.6611 24.6969 24.9364 24.9639C25.2117 25.231 25.3697 25.5965 25.3755 25.98C25.3813 26.3635 25.2345 26.7336 24.9675 27.0089L23.7591 28.2545L21.6832 26.2406Z" fill="currentColor"/>
</svg>
