<svg width="37" height="61" viewBox="0 0 37 61" fill="none" xmlns="http://www.w3.org/2000/svg">
<path fill-rule="evenodd" clip-rule="evenodd" d="M19.3797 30.0598C27.4583 30.0598 33.9371 23.5012 33.9371 15.5026C33.9371 7.50402 27.3784 0.865234 19.3797 0.865234C11.3812 0.865234 4.82243 7.42405 4.82243 15.4226C4.82243 23.4211 11.3013 30.0598 19.3797 30.0598ZM19.3797 3.42477C26.0185 3.42477 31.3777 8.78379 31.3777 15.4226C31.3777 22.0613 26.0185 27.4205 19.3797 27.4205C12.741 27.4205 7.38197 22.0613 7.38197 15.4226C7.38197 8.78379 12.741 3.42477 19.3797 3.42477ZM35.698 36.7787H34.6581V32.8596C34.6581 32.1396 34.0981 31.5798 33.3783 31.5798H7.0631C6.34323 31.5798 5.78333 32.1396 5.78333 32.8596V38.0585C5.78333 38.7784 6.34323 39.3384 7.0631 39.3384H8.10291V41.9779H6.10327C5.38339 41.9779 4.8235 42.5379 4.8235 43.2577V47.177H1.30413C0.584279 47.177 0.0243683 47.7368 0.0243683 48.4566V53.6558C0.0243683 54.3756 0.584279 54.9356 1.30413 54.9356H2.74389V58.8549C2.74389 59.5747 3.30378 60.1345 4.02365 60.1345H30.3388C31.0586 60.1345 31.6186 59.5747 31.6186 58.8549V53.6558C31.6186 52.9359 31.0586 52.3759 30.3388 52.3759H28.8992V49.7364H32.4186C33.1384 49.7364 33.6982 49.1766 33.6982 48.4566V44.5375H35.698C36.4178 44.5375 36.9776 43.9775 36.9776 43.2577V38.0585C36.9776 37.4186 36.4178 36.7787 35.698 36.7787ZM8.34287 34.2193H32.0985V36.8589H9.38265H8.34287V34.2193ZM2.5839 52.296V49.6565H6.10327H26.3396V52.296H4.02365H2.5839ZM29.059 54.8554V57.495H5.30342V54.8554H27.6194H29.059ZM31.1388 47.177H27.6194H7.38303V44.5375H9.38265H31.1388V47.177ZM34.4182 41.9779H32.4186H10.6625V39.3384H33.3783H34.4182V41.9779ZM16.4222 22.8612C16.1823 22.7811 15.9423 22.7012 15.7024 22.6213C15.6299 22.5971 15.5573 22.5656 15.4782 22.5312C15.2954 22.4519 15.0773 22.3572 14.7424 22.3013L14.4226 22.1412L14.5025 21.8214L14.7424 19.9817L14.8225 19.3418L15.4624 19.6618C15.5024 19.7018 15.5424 19.7218 15.5824 19.7418C15.6224 19.7618 15.6624 19.7818 15.7024 19.8217C15.7423 19.8217 15.7822 19.8417 15.8222 19.8617C15.8622 19.8817 15.9022 19.9017 15.9423 19.9017C16.1016 19.9815 16.3407 20.0612 16.5798 20.1409L16.5822 20.1417C16.6688 20.185 16.7788 20.2049 16.8997 20.2267C17.002 20.2451 17.112 20.265 17.2221 20.3017C17.302 20.3017 17.4019 20.3216 17.5019 20.3416C17.6019 20.3616 17.7019 20.3816 17.7819 20.3816C17.9419 20.4616 18.1819 20.4616 18.3419 20.4616H18.7417H19.1416C19.3017 20.4616 19.4617 20.4616 19.6215 20.3816C19.7387 20.3816 19.8131 20.3387 19.9073 20.2843C19.9417 20.2645 19.9787 20.2431 20.0215 20.2217L20.0215 20.2217C20.1815 20.1417 20.3415 20.0617 20.4214 19.9817C20.5815 19.9017 20.6614 19.8217 20.7415 19.6618C20.8214 19.5818 20.9013 19.4218 20.9013 19.2618V18.7819C20.9013 18.622 20.9013 18.462 20.8214 18.302C20.8214 18.142 20.7415 17.9821 20.6614 17.9021C20.5817 17.7425 20.5017 17.6625 20.422 17.5827L20.4214 17.5822C20.3415 17.5022 20.2614 17.4222 20.1016 17.3422C20.0216 17.3022 19.9616 17.2622 19.9016 17.2222C19.8416 17.1822 19.7816 17.1422 19.7016 17.1022C19.6566 17.0573 19.5865 17.0376 19.5053 17.0148C19.4419 16.997 19.3718 16.9773 19.3017 16.9423C18.9818 16.8623 18.7417 16.7823 18.4218 16.6223C18.2619 16.5423 18.1219 16.4823 17.9819 16.4224C17.8419 16.3624 17.7019 16.3024 17.542 16.2224C17.2221 16.0624 16.982 15.9024 16.7421 15.7425C16.5822 15.5825 16.3423 15.4225 16.1021 15.2626C15.8622 15.1026 15.7024 14.9426 15.5424 14.7027C15.3823 14.5427 15.2223 14.3027 15.1424 14.0628C15.1024 13.9428 15.0624 13.8028 15.0224 13.6629C14.9824 13.5229 14.9424 13.3829 14.9025 13.2629C14.8225 13.023 14.8225 12.703 14.8225 12.4631C14.8225 12.0631 14.8225 11.7432 14.9025 11.4233C14.9824 11.1033 15.0625 10.7834 15.2223 10.4635C15.3023 10.3435 15.3823 10.2035 15.4623 10.0635C15.5424 9.92354 15.6224 9.78356 15.7024 9.66358C15.8622 9.42362 16.1021 9.18367 16.3423 8.94373C16.5163 8.7697 16.7323 8.63774 16.9295 8.51734C17.0041 8.47173 17.0761 8.42777 17.142 8.38382C17.382 8.22385 17.702 8.06389 18.0219 7.98389H18.1819V6.38418V5.90428H18.6618H20.1016H20.7415V6.38418V7.82393H20.9013C20.9814 7.82393 21.0614 7.84393 21.1414 7.86393C21.2214 7.88392 21.3013 7.9039 21.3812 7.9039C21.4612 7.9039 21.5412 7.9239 21.6212 7.9439C21.7013 7.96389 21.7813 7.98389 21.8613 7.98389C21.9549 7.98389 22.0486 8.01134 22.1262 8.03408C22.1811 8.05016 22.2279 8.06389 22.261 8.06389C22.4211 8.06389 22.5012 8.06389 22.661 8.14386L23.061 8.30384L22.9811 8.70377L22.7411 10.3835L22.661 10.9433L22.1012 10.7834C22.0211 10.7834 21.8613 10.7834 21.7013 10.7034C21.6212 10.7034 21.5613 10.6834 21.5013 10.6634C21.4413 10.6434 21.3813 10.6234 21.3013 10.6234C21.2213 10.6234 21.1212 10.6034 21.0212 10.5834C20.9213 10.5634 20.8214 10.5434 20.7415 10.5434C20.5014 10.4635 20.3415 10.4635 20.1815 10.4635H19.8617H19.5416C19.3017 10.4635 19.1416 10.4635 18.9818 10.5434L18.5017 10.7834C18.4775 10.8076 18.446 10.8319 18.4115 10.8583C18.3322 10.9192 18.2376 10.9918 18.1819 11.1033C18.1419 11.1833 18.1019 11.2433 18.0619 11.3033C18.0219 11.3633 17.9819 11.4233 17.9419 11.5033C17.8618 11.5832 17.7819 11.7432 17.7819 11.9032V12.3831C17.7819 12.5431 17.7819 12.703 17.8618 12.863L17.863 12.8653C17.9427 13.0245 18.0222 13.1833 18.102 13.2629C18.1577 13.3744 18.2523 13.4471 18.3316 13.508C18.3661 13.5344 18.3976 13.5586 18.4218 13.5829C18.5018 13.6229 18.5618 13.6629 18.6218 13.7029C18.6818 13.7428 18.7418 13.7828 18.8218 13.8228C18.9017 13.8228 19.0616 13.9027 19.2215 13.9827L19.2218 13.9828C19.3017 14.0228 19.3817 14.0428 19.4617 14.0628C19.5417 14.0828 19.6216 14.1028 19.7016 14.1428C20.0215 14.2228 20.2614 14.3027 20.5815 14.4627C20.8214 14.5427 21.1413 14.7027 21.3812 14.8626L22.1012 15.3426C22.2212 15.4225 22.3212 15.5225 22.4212 15.6225C22.5212 15.7225 22.6212 15.8225 22.7411 15.9024C22.9811 16.0624 23.1409 16.2224 23.3009 16.4624C23.4609 16.6223 23.621 16.8623 23.7009 17.1022C23.7408 17.2222 23.7808 17.3622 23.8208 17.5021C23.8608 17.6421 23.9009 17.7821 23.9408 17.9021C24.0207 18.142 24.0207 18.462 24.0207 18.702C24.0207 19.0219 24.0207 19.3418 23.9408 19.6618C23.8609 19.9817 23.7808 20.3017 23.621 20.6216C23.541 20.7416 23.461 20.8815 23.381 21.0214C23.3009 21.1614 23.2209 21.3014 23.1409 21.4214C22.9811 21.6614 22.7411 21.9013 22.5012 22.1412C22.261 22.3814 22.0211 22.5412 21.7013 22.7012C21.3812 22.8612 21.0613 23.0211 20.7415 23.1012H20.5815V24.7008V25.1807H20.1016H18.6618H18.1819V24.7008V23.1811H18.0219C17.902 23.1412 17.7623 23.1212 17.6225 23.1012C17.4824 23.0812 17.3422 23.0612 17.2221 23.0211C16.9021 23.0211 16.6621 22.9412 16.4222 22.8612Z" fill="currentColor"/>
</svg>
