<svg width="41" height="41" viewBox="0 0 41 41" fill="none" xmlns="http://www.w3.org/2000/svg">
<path d="M32.8969 40.0607C32.1662 39.3401 31.4345 38.6216 30.7078 37.898C30.5345 37.7257 30.3734 37.5555 30.0998 37.6923C30.0714 37.7065 30.0339 37.7045 30.0005 37.7024C29.4705 37.6741 28.6304 36.7164 28.6942 36.1792C28.7175 35.9847 28.6688 35.8641 28.5442 35.7333C28.3232 35.5012 28.2452 35.2388 28.3171 34.9033C28.4205 34.426 28.1186 34.0115 27.6352 33.8858C27.0656 33.7369 26.9024 33.4845 27.0109 32.9018C27.1051 32.3961 27.0504 31.9745 26.6217 31.5904C25.9154 30.956 25.9397 30.9276 25.0002 31.0685C24.9171 31.0806 24.8371 31.109 24.755 31.1262C24.2787 31.2286 23.9057 31.1262 23.5368 30.7513C21.2444 28.4234 18.9236 26.1219 16.615 23.8092C16.4843 23.6785 16.3799 23.5224 16.2623 23.3765C12.9403 24.5541 9.73382 24.4518 6.61548 22.9174C4.24505 21.752 2.53839 19.9126 1.38916 17.5604C-0.847493 12.9837 0.188237 7.1889 4.17611 3.75436C8.19134 0.296523 13.7126 -0.109865 18.198 2.68215C22.5497 5.39106 24.9941 11.2355 22.7899 16.9311C22.875 17.0283 22.9653 17.1459 23.0696 17.2503C25.8353 20.0109 28.6009 22.7725 31.3706 25.529C34.3795 28.5227 37.3874 31.5164 40.4105 34.4959C40.8361 34.9155 40.9547 35.3371 40.7814 35.9016C40.5007 36.8167 40.2463 37.7409 40.0102 38.6682C39.8825 39.1689 39.5775 39.3888 39.086 39.4384C37.8344 39.5651 36.5838 39.708 35.3322 39.8387C34.8812 39.8854 34.4282 39.9117 33.9782 39.9583C33.885 39.9685 33.7958 40.0262 33.7046 40.0627C33.436 40.0607 33.1665 40.0607 32.8969 40.0607ZM39.4873 35.3796C39.3241 35.2438 39.1579 35.1253 39.015 34.9834C33.2597 29.2331 27.5105 23.4768 21.746 17.7357C21.3579 17.3486 21.3113 17.0101 21.5099 16.5257C22.2933 14.6123 22.5011 12.6392 22.1089 10.5971C21.6224 8.06248 20.3982 5.96669 18.3764 4.37661C15.9776 2.49061 13.223 1.79033 10.2192 2.27272C7.72514 2.67404 5.63043 3.85875 3.99069 5.80758C1.90098 8.29152 1.15813 11.1666 1.67904 14.3326C2.14319 17.15 3.60762 19.4079 5.94764 21.0527C7.69784 22.283 9.6527 22.9103 11.8154 22.9083C13.2504 22.9073 14.6266 22.6803 15.9411 22.1148C16.3454 21.9405 16.6343 22.0286 16.9322 22.3246C18.0561 23.4383 19.1983 24.5349 20.3262 25.6456C21.6103 26.9104 22.8912 28.1782 24.1611 29.4571C24.4134 29.7105 24.6455 29.8939 25.0326 29.7743C25.2535 29.7064 25.4957 29.6983 25.7288 29.6831C26.0754 29.6608 26.4322 29.5797 26.725 29.8828C27.2054 30.3793 27.699 30.8617 28.1875 31.3502C28.378 31.5407 28.459 31.7718 28.4357 32.0393C28.4144 32.2704 28.3881 32.5005 28.3638 32.7406C29.1775 33.218 29.5647 33.9426 29.6549 34.8537C29.6681 34.9905 29.7613 35.1303 29.8495 35.2448C30.0005 35.4435 30.0663 35.6512 30.04 35.9026C30.0025 36.2644 30.0532 36.3505 30.3927 36.3252C30.8336 36.2927 31.1183 36.4985 31.399 36.7913C31.9594 37.3741 32.534 37.9426 33.1147 38.5051C33.2262 38.6135 33.3915 38.727 33.5344 38.73C33.8506 38.7351 34.1678 38.6713 34.484 38.6358C35.317 38.5415 36.1511 38.4514 36.9831 38.352C37.5638 38.2831 38.1424 38.202 38.7474 38.124C38.9896 37.2261 39.2248 36.3525 39.4873 35.3796Z" fill="currentColor"/>
<path d="M9.97932 15.2799C7.52985 15.2434 5.34587 13.3655 5.3479 10.5999C5.34993 7.79873 7.70611 5.96441 10.033 5.9786C12.5088 5.9938 14.6938 8.03486 14.6674 10.6546C14.6401 13.328 12.4805 15.2769 9.97932 15.2799ZM13.3034 10.685C13.4381 8.95708 11.8572 7.3143 10.1151 7.27275C8.45712 7.23323 6.68057 8.69562 6.66537 10.5624C6.65321 12.1038 7.92604 13.9827 9.9904 13.9817C11.9494 13.9807 13.4108 12.2609 13.3034 10.685Z" fill="currentColor"/>
</svg>
