<svg width="16" height="17" viewBox="0 0 16 17" fill="none" xmlns="http://www.w3.org/2000/svg">
<path d="M8.32002 0.0130157C7.67311 -0.0390503 7.02325 0.0670742 6.42651 0.322231C5.82977 0.577388 5.30408 0.973915 4.8948 1.47759C4.48552 1.98127 4.20494 2.57697 4.07728 3.21329C3.94961 3.84962 3.9787 4.50745 4.16202 5.13002L0.175023 9.11602C0.0624695 9.22843 -0.000836521 9.38094 -0.000976562 9.54002V12.4C-0.000976563 12.5591 0.0622377 12.7118 0.17476 12.8243C0.287281 12.9368 0.439894 13 0.599024 13H3.39902C3.55815 13 3.71077 12.9368 3.82329 12.8243C3.93581 12.7118 3.99902 12.5591 3.99902 12.4V11H5.89902C6.05815 11 6.21077 10.9368 6.32329 10.8243C6.43581 10.7118 6.49902 10.5591 6.49902 10.4V8.70702L7.23402 7.97202C7.01862 7.70821 6.82814 7.425 6.66502 7.12602L5.67502 8.11702C5.56247 8.22943 5.49916 8.38194 5.49902 8.54102V10H3.60002C3.44089 10 3.28828 10.0632 3.17576 10.1758C3.06324 10.2883 3.00002 10.4409 3.00002 10.6V12H1.00002V9.70702L5.32002 5.38702L5.20202 5.08402C5.05187 4.69619 4.98396 4.28139 5.0026 3.86594C5.02125 3.45048 5.12604 3.04343 5.31033 2.67062C5.49462 2.2978 5.75439 1.96736 6.07315 1.70026C6.39191 1.43316 6.76271 1.23522 7.16202 1.11902C7.49202 0.696016 7.88203 0.323016 8.31903 0.0130157H8.32002ZM11.5 4.25002C11.5985 4.25002 11.696 4.23062 11.787 4.19293C11.878 4.15523 11.9607 4.09999 12.0304 4.03035C12.1 3.9607 12.1552 3.87802 12.1929 3.78703C12.2306 3.69603 12.25 3.59851 12.25 3.50002C12.25 3.40152 12.2306 3.304 12.1929 3.213C12.1552 3.12201 12.1 3.03933 12.0304 2.96969C11.9607 2.90004 11.878 2.8448 11.787 2.80711C11.696 2.76942 11.5985 2.75002 11.5 2.75002C11.3011 2.75002 11.1103 2.82903 10.9697 2.96969C10.829 3.11034 10.75 3.3011 10.75 3.50002C10.75 3.69893 10.829 3.88969 10.9697 4.03035C11.1103 4.171 11.3011 4.25002 11.5 4.25002ZM7.00002 4.50002C7.00008 3.72259 7.20155 2.95845 7.58479 2.28205C7.96802 1.60565 8.51996 1.04007 9.1868 0.640437C9.85364 0.240803 10.6126 0.0207446 11.3898 0.00170779C12.167 -0.017329 12.9359 0.165306 13.6215 0.531812C14.3071 0.898319 14.8861 1.43619 15.302 2.09302C15.7179 2.74984 15.9565 3.50321 15.9946 4.2797C16.0327 5.05619 15.869 5.82931 15.5195 6.52371C15.1699 7.21811 14.6464 7.81011 14 8.24202V10.292L14.783 11.076C14.8954 11.1885 14.9585 11.341 14.9585 11.5C14.9585 11.659 14.8954 11.8115 14.783 11.924L13.707 13L14.775 14.067C14.8347 14.1267 14.8811 14.1984 14.9112 14.2772C14.9413 14.3561 14.9544 14.4404 14.9497 14.5247C14.945 14.609 14.9225 14.6913 14.8838 14.7663C14.8451 14.8413 14.791 14.9073 14.725 14.96L12.375 16.84C12.2686 16.9252 12.1363 16.9716 12 16.9716C11.8637 16.9716 11.7314 16.9252 11.625 16.84L9.22503 14.92C9.15486 14.8638 9.09822 14.7926 9.05927 14.7116C9.02033 14.6306 9.00008 14.5419 9.00002 14.452V8.24202C8.3844 7.8311 7.87974 7.27456 7.53084 6.62178C7.18195 5.969 6.99962 5.24018 7.00002 4.50002ZM11.5 1.00002C10.7293 0.999668 9.97994 1.25375 9.36836 1.72284C8.75677 2.19192 8.31713 2.84976 8.11767 3.59427C7.91821 4.33877 7.97008 5.1283 8.26524 5.84031C8.5604 6.55232 9.08233 7.14698 9.75002 7.53202C9.82603 7.5759 9.88915 7.63902 9.93303 7.71502C9.97692 7.79103 10 7.87725 10 7.96502V14.26L12 15.86L13.751 14.459L12.717 13.424C12.6047 13.3115 12.5416 13.159 12.5416 13C12.5416 12.841 12.6047 12.6885 12.717 12.576L13.793 11.5L13.176 10.883C13.0635 10.7706 13.0002 10.6181 13 10.459V7.96502C13 7.87725 13.0231 7.79103 13.067 7.71502C13.1109 7.63902 13.174 7.5759 13.25 7.53202C13.9177 7.14698 14.4397 6.55232 14.7348 5.84031C15.03 5.1283 15.0818 4.33877 14.8824 3.59427C14.6829 2.84976 14.2433 2.19192 13.6317 1.72284C13.0201 1.25375 12.2708 0.999668 11.5 1.00002Z" fill="#C1A771"/>
</svg>
