<svg width="41" height="41" viewBox="0 0 41 41" fill="none" xmlns="http://www.w3.org/2000/svg">
<path d="M40.3709 28.7381C40.3715 27.7262 40.3715 26.715 40.3715 25.7031V21.4809C40.3715 15.7916 40.3715 9.90879 40.3741 4.12308C40.3741 3.53173 40.2633 3.03883 40.0344 2.61504C39.3185 1.29152 38.2817 0.642791 36.8649 0.630403C35.8888 0.621928 34.8951 0.623883 33.9346 0.625839C33.5166 0.626491 33.1013 0.627795 32.6801 0.627795C32.4936 0.627795 32.3078 0.627143 32.1213 0.626491C31.6479 0.625187 31.1589 0.623883 30.679 0.631707C30.2023 0.639531 29.9774 0.85925 29.9709 1.32281C29.9598 2.06738 29.9637 2.82629 29.9676 3.56042L29.9696 3.95683C29.9702 4.11982 30.0132 4.25413 30.1006 4.36693C30.2623 4.57556 30.5127 4.65445 30.7709 4.57817C31.007 4.50841 31.183 4.27956 31.1889 4.03376C31.1967 3.7169 31.1954 3.39286 31.1941 3.0786C31.1934 2.89931 31.1928 2.72001 31.1934 2.54072C31.1941 2.4514 31.2 2.36664 31.2058 2.28384C31.2084 2.24928 31.211 2.21407 31.213 2.17952L31.2293 1.89264L31.5162 1.87309C31.5514 1.87048 31.5814 1.86787 31.6081 1.86591C31.6662 1.86135 31.7164 1.85679 31.7718 1.85679L32.8757 1.85613C34.245 1.85483 35.6612 1.85353 37.0546 1.86135C37.3089 1.86265 37.5873 1.90894 37.882 1.99957C38.3926 2.15605 38.7714 2.50616 38.9501 2.98667C39.0707 3.31201 39.1359 3.64583 39.1379 3.95161C39.1483 5.52485 39.147 7.12417 39.1457 8.67067C39.145 9.2066 39.145 9.74188 39.145 10.2778L39.1457 14.045C39.1463 17.6029 39.147 21.1607 39.147 24.7186C39.147 24.8008 39.1411 24.879 39.1353 24.9625C39.1326 25.0016 39.1294 25.0426 39.1268 25.0876L39.1085 25.3941L37.3656 25.3928C35.6605 25.3908 33.9542 25.3908 32.2491 25.3908C28.7111 25.3908 25.1738 25.3908 21.6365 25.3915C21.6352 25.3915 21.6339 25.3915 21.632 25.3915C21.5276 25.3915 21.4233 25.3908 21.3196 25.3902C21.0314 25.3882 20.7334 25.3862 20.4446 25.3993C20.2118 25.4097 20.0436 25.5297 19.9445 25.7566C19.8493 25.9743 19.8701 26.1712 20.0077 26.3597C20.1434 26.5448 20.3324 26.6205 20.6598 26.6205C20.6604 26.6205 20.6604 26.6205 20.6611 26.6205C22.612 26.6191 24.5629 26.6198 26.5144 26.6198L31.8566 26.6205C34.0578 26.6205 36.2598 26.6205 38.4617 26.6211C38.553 26.6211 38.6384 26.6283 38.7219 26.6354C38.7571 26.6387 38.7916 26.6413 38.8275 26.6439L39.1144 26.6628L39.1313 26.9497C39.134 26.9888 39.1359 27.0227 39.1385 27.0534C39.1431 27.1186 39.147 27.1746 39.147 27.2353V28.8796C39.1476 31.5462 39.1483 34.3034 39.1405 37.0157C39.1398 37.3215 39.0863 37.6338 38.9859 37.9193C38.7799 38.5061 38.3561 38.8973 37.7914 39.0212C37.4165 39.1033 37.1087 39.1425 36.8238 39.1431C34.3812 39.1496 31.8983 39.149 29.4968 39.1483H27.499H26.3775C24.8817 39.1483 23.3866 39.1483 21.8915 39.1477C21.7839 39.1477 21.6802 39.1418 21.57 39.1359C21.5191 39.1333 21.4657 39.1307 21.4103 39.1281L21.0979 39.1151L21.0986 36.9922C21.0992 35.3362 21.0999 33.6795 21.1005 32.0234C21.1005 31.9772 21.1005 31.9302 21.1012 31.8833C21.1025 31.7248 21.1031 31.5749 21.0927 31.4275C21.0712 31.1341 20.8241 30.9014 20.517 30.8864C20.2418 30.8746 19.9562 31.0937 19.9093 31.3597C19.8949 31.4406 19.8962 31.5371 19.8969 31.6388C19.8969 31.6675 19.8975 31.6968 19.8975 31.7255C19.8969 32.9095 19.8969 34.0928 19.8962 35.2768C19.8962 36.3422 19.8956 37.4075 19.8956 38.4735C19.8956 38.5537 19.891 38.6326 19.8871 38.7082C19.8851 38.7421 19.8832 38.7767 19.8819 38.8119L19.8682 39.1236H15.641L15.6241 38.8152C15.6221 38.7773 15.6195 38.7421 15.6176 38.7082C15.6123 38.6326 15.6078 38.5615 15.6078 38.4866C15.6071 37.9291 15.6078 37.3717 15.6078 36.8149C15.6078 36.3722 15.6084 35.9301 15.6084 35.4874C15.6084 34.1509 15.6071 32.8143 15.6058 31.4784C15.6058 31.3213 15.566 31.0957 15.2244 30.947C14.9877 30.844 14.7758 30.8825 14.5769 31.0657C14.4374 31.1941 14.378 31.3702 14.3787 31.6551C14.3826 33.3607 14.3819 35.0949 14.3813 36.7718V39.1496H11.9348C9.33713 39.1496 6.73941 39.149 4.14234 39.1483C3.8098 39.1483 3.48248 39.1379 3.13755 39.0147C2.51681 38.793 2.12233 38.377 1.96584 37.7779C1.89477 37.506 1.85825 37.2087 1.85695 36.8938C1.85173 35.2495 1.85239 33.5784 1.85304 31.9622C1.85304 31.3891 1.85369 30.816 1.85369 30.2422V27.3474C1.85369 25.4977 1.85304 23.6487 1.85369 21.799C1.85369 21.7097 1.85956 21.6243 1.86543 21.5415C1.86803 21.5056 1.87064 21.4698 1.87195 21.4333L1.88825 21.1249H14.3813V22.7744C14.3813 23.62 14.3806 24.4656 14.3806 25.3113C14.3806 25.3856 14.3793 25.4593 14.378 25.5336C14.3754 25.7083 14.3728 25.8733 14.3859 26.0337C14.4087 26.3075 14.5443 26.4816 14.8129 26.5813C14.9681 26.6387 15.18 26.6707 15.448 26.4027C15.5667 26.284 15.6149 26.136 15.6143 25.8902C15.6097 23.6076 15.6104 21.2872 15.6104 19.0437V16.795C15.6104 16.6425 15.6104 16.4906 15.611 16.338C15.6117 15.9018 15.613 15.45 15.6052 15.008C15.5993 14.6611 15.3574 14.4055 15.017 14.3866C14.7171 14.371 14.4361 14.62 14.3891 14.9447C14.38 15.0073 14.3806 15.081 14.3813 15.1599V15.2244V16.8185C14.3813 17.6022 14.3813 18.3852 14.3806 19.1689C14.3806 19.2628 14.3754 19.356 14.3709 19.446C14.3689 19.4871 14.3663 19.5288 14.3643 19.5718L14.3506 19.8835H1.85434L1.85369 16.9359C1.85304 14.3951 1.85239 11.8537 1.85173 9.31288C1.85173 7.51992 1.85173 5.72696 1.85304 3.93401C1.85304 3.47436 1.96258 3.07078 2.17775 2.73501C2.54355 2.16452 3.12582 1.862 3.86197 1.86135C6.73419 1.85744 9.65467 1.85809 12.4786 1.85874H13.7403C13.8186 1.85874 13.8916 1.86591 13.9686 1.87374C14.0025 1.877 14.039 1.88091 14.0787 1.88417L14.3787 1.90829V3.97443C14.3787 5.73935 14.3793 7.50362 14.38 9.26854C14.38 9.29462 14.38 9.32005 14.3793 9.34613C14.3787 9.42176 14.378 9.49282 14.3852 9.55476C14.4191 9.83316 14.618 10.049 14.8808 10.0913C15.0979 10.1266 15.3874 10.0959 15.5374 9.75101C15.5791 9.65517 15.6019 9.52216 15.6026 9.37612C15.6071 7.57729 15.6071 5.74848 15.6065 3.97965V1.87439H23.5203L23.5392 2.18017C23.5411 2.21407 23.5437 2.24602 23.5457 2.27601C23.5509 2.34317 23.5555 2.40706 23.5561 2.47487C23.5568 2.65547 23.5568 2.83607 23.5568 3.01667C23.5561 3.34005 23.5561 3.67517 23.562 4.00247C23.5685 4.33498 23.8058 4.58664 24.126 4.60229C24.4722 4.61924 24.7102 4.42234 24.7578 4.07744C24.7761 3.94639 24.7852 3.80817 24.7852 3.66735C24.7865 2.928 24.7846 2.12997 24.7806 1.22632C24.78 1.10766 24.7383 0.998122 24.6502 0.882721C24.51 0.698862 24.321 0.630403 23.9545 0.630403C23.9539 0.630403 23.9526 0.630403 23.9519 0.630403C22.0062 0.632359 20.0605 0.631707 18.1149 0.631707H15.9318H11.987C9.35734 0.631707 6.72702 0.631707 4.09735 0.631707H4.0967C3.17146 0.631707 2.36032 0.964219 1.68677 1.62077C0.979959 2.30665 0.62199 3.15945 0.623295 4.15373C0.627207 7.84982 0.626555 11.6072 0.625903 15.2414L0.624599 24.894C0.623947 28.9011 0.623295 32.9082 0.623947 36.9153C0.623947 37.8704 0.981915 38.7011 1.68742 39.3837C2.36815 40.0422 3.2008 40.3767 4.1619 40.3767C4.16321 40.3767 4.16386 40.3767 4.16516 40.3767C10.1131 40.3721 16.1607 40.3728 22.0088 40.3734H27.6711L30.3425 40.3728C32.491 40.3721 34.7125 40.3714 36.8975 40.3741C36.8988 40.3741 36.9007 40.3741 36.902 40.3741C37.8625 40.3741 38.7003 40.0122 39.3928 39.2989C40.0468 38.6248 40.3774 37.7909 40.3748 36.8194C40.3689 34.1254 40.3702 31.3865 40.3709 28.7381Z" fill="#C1A771"/>
<path d="M22.0553 13.9536L21.7424 14.2659C21.5298 14.4778 21.4887 14.6943 21.6041 14.989C21.6602 15.1318 21.8154 15.2635 21.9895 15.3163C22.0762 15.3424 22.2431 15.3711 22.3898 15.2687C22.5385 15.165 22.695 15.0509 22.826 14.9205C23.8132 13.9354 24.8148 12.932 25.7837 11.9612C26.317 11.4266 26.8511 10.8919 27.3844 10.3573C27.4425 10.2986 27.5031 10.2517 27.567 10.2021C27.5957 10.18 27.627 10.1552 27.6615 10.1272L27.8976 9.93416L28.1056 10.1565C28.1604 10.2145 28.2125 10.2719 28.2647 10.328C28.3716 10.4434 28.472 10.5529 28.5757 10.6572C29.2825 11.3666 29.9913 12.0753 30.7 12.7833L32.0654 14.1473C32.3992 14.4811 32.7337 14.8149 33.0676 15.1487C33.2123 15.2935 33.3695 15.358 33.5371 15.3404C33.8083 15.3124 33.983 15.1898 34.0711 14.9662C34.1806 14.6884 34.1389 14.4759 33.9354 14.2764C33.7881 14.1316 33.6433 13.9823 33.5038 13.8376C33.2345 13.5585 32.9796 13.2951 32.6998 13.0565C32.2486 12.6725 32.0641 12.2233 32.1006 11.6006C32.1332 11.0464 32.1241 10.474 32.115 9.92047C32.1124 9.77117 32.1104 9.62186 32.1084 9.47256C32.1058 9.22285 31.9213 8.98618 31.6696 8.91055C31.4212 8.83557 31.1643 8.93141 31 9.16221C30.9217 9.2724 30.8878 9.40736 30.8833 9.62838C30.88 9.79268 30.8807 9.95633 30.8813 10.1461C30.882 10.2347 30.882 10.3273 30.882 10.4271V11.1801L30.3329 10.665C30.3023 10.6364 30.2782 10.6142 30.2573 10.5946C30.2175 10.5575 30.1901 10.5327 30.1641 10.506C29.9893 10.3299 29.8139 10.1545 29.6385 9.97915C29.2206 9.56188 28.7889 9.13027 28.3716 8.6967C28.2125 8.53109 28.0306 8.44308 27.8454 8.44177C27.8441 8.44177 27.8428 8.44177 27.8415 8.44177C27.6583 8.44177 27.4725 8.52718 27.3179 8.68366C25.5711 10.4479 23.7839 12.2305 22.0553 13.9536Z" fill="#C1A771"/>
<path d="M32.1093 16.0401V15.9983C32.1093 15.9358 32.1099 15.8764 32.1028 15.8295C32.0669 15.5967 31.958 15.4533 31.75 15.3627C31.5283 15.2662 31.3425 15.2864 31.1475 15.4272C30.963 15.5609 30.8782 15.7454 30.8815 16.0075C30.8835 16.1587 30.8874 16.3107 30.8919 16.4619C30.8978 16.6653 30.9037 16.8766 30.903 17.0859C30.9024 17.3929 30.8959 17.7033 30.8893 18.0032C30.8861 18.144 30.8835 18.2849 30.8809 18.4257C30.8802 18.4713 30.8802 18.517 30.8809 18.5652V18.9662H24.8175L24.7882 18.6728C24.7862 18.6519 24.7836 18.6324 24.7817 18.6148C24.7758 18.5685 24.7699 18.5202 24.7699 18.4648C24.7719 18.1995 24.7739 17.9341 24.7758 17.6687C24.7797 17.1856 24.7836 16.7025 24.7843 16.2194C24.7843 16.0538 24.7745 15.9136 24.7523 15.791C24.708 15.5439 24.5711 15.3979 24.3207 15.3327C24.2653 15.3183 24.2092 15.3112 24.1544 15.3112C24.0221 15.3112 23.8956 15.3522 23.7925 15.4318C23.6471 15.5433 23.5656 15.7115 23.5643 15.9051C23.5539 17.1465 23.5552 18.3833 23.5682 19.581C23.5695 19.6886 23.6119 19.8235 23.6771 19.9259C23.7938 20.1098 23.951 20.1919 24.187 20.1919C24.1896 20.1919 24.1922 20.1919 24.1948 20.1919C25.1312 20.1847 26.0825 20.1867 27.0025 20.188C27.7472 20.1893 28.4918 20.1893 29.2364 20.188C29.9673 20.1867 30.7224 20.1854 31.4664 20.19C31.469 20.19 31.4709 20.19 31.4736 20.19C31.6861 20.19 31.8322 20.1254 31.9613 19.9742C32.065 19.8535 32.1106 19.7153 32.1099 19.5269C32.1073 18.7334 32.1086 17.9276 32.1093 17.1478C32.1093 16.7788 32.1093 16.4091 32.1093 16.0401Z" fill="#C1A771"/>
</svg>
