<svg width="60" height="60" viewBox="0 0 60 60" fill="none" xmlns="http://www.w3.org/2000/svg">
<path d="M8.2596 32.3822C8.43844 33.7773 9.10872 35.0584 10.1454 35.9865C11.1821 36.9146 12.5144 37.4264 13.8938 37.4264C15.2732 37.4264 16.6055 36.9146 17.6422 35.9865C18.6789 35.0584 19.3492 33.7773 19.528 32.3822H8.2596ZM38.9602 44.0498C38.9605 44.1677 38.9381 44.2846 38.8941 44.3937C38.8501 44.5028 38.7855 44.602 38.704 44.6856C38.6224 44.7692 38.5255 44.8356 38.4188 44.8809C38.312 44.9263 38.1976 44.9498 38.0819 44.95H21.6646C21.1824 44.95 20.7846 44.5461 20.7846 44.0498C20.7858 43.8127 20.8791 43.5857 21.044 43.4186C21.209 43.2516 21.4322 43.158 21.6646 43.1585H38.081C38.5668 43.1585 38.9602 43.557 38.9602 44.0498ZM20.8806 45.4087H38.8651V48H20.8806V45.4087ZM40.472 32.3822C40.6496 33.7782 41.3193 35.0606 42.356 35.9898C43.3927 36.9191 44.7256 37.4317 46.1058 37.432C47.4857 37.432 48.8184 36.9194 49.8548 35.99C50.8912 35.0607 51.5602 33.7781 51.7369 32.3822H40.472ZM51.4271 30.579L46.8133 24.0967H49.2799C49.8801 24.0967 50.3632 23.595 50.3632 22.9747C50.3632 22.3599 49.8792 21.8635 49.2799 21.8635H36.2137C35.8258 20.7738 35.1634 19.8075 34.293 19.0619C33.4227 18.3163 32.3751 17.8177 31.2558 17.6162V14.1184C31.2558 13.4964 30.7665 13 30.1602 13L30.0581 13.0117L29.956 13C29.812 12.9996 29.6694 13.0284 29.5364 13.0845C29.4033 13.1406 29.2825 13.223 29.1808 13.3269C29.0791 13.4309 28.9986 13.5543 28.944 13.6902C28.8893 13.826 28.8615 13.9715 28.8622 14.1184V17.6144C27.743 17.8157 26.6956 18.3143 25.8255 19.06C24.9554 19.8056 24.2933 20.772 23.906 21.8617H10.8371C10.2414 21.8617 9.7556 22.3581 9.7556 22.9729C9.7556 23.5941 10.2414 24.0949 10.8371 24.0949H13.1911L8.5764 30.5772H8V31.7746H19.7902V30.5772H19.2112L14.5982 24.0967H25.307C25.307 23.8436 25.3342 23.595 25.3712 23.3571C25.409 23.2449 25.4346 23.1309 25.4346 23.0133C25.6329 22.1606 26.0577 21.3801 26.6624 20.7573C27.267 20.1346 28.0281 19.6938 28.8622 19.4832V31.7772H28.8164C28.7222 36.4016 26.5654 40.4343 23.3657 42.7007H36.754C33.5534 40.4343 31.3983 36.4016 31.2989 31.7772H31.2566V19.4832C32.0906 19.6938 32.8516 20.1347 33.456 20.7574C34.0605 21.3801 34.4852 22.1607 34.6834 23.0133C34.6869 23.1309 34.7106 23.2449 34.7494 23.3571C34.7846 23.5959 34.8066 23.8436 34.8066 24.0967H45.4035L40.7888 30.579H40.2133V31.7764H52V30.579H51.4271ZM13.4252 30.579H9.7424L13.4252 25.4045V30.579ZM14.3677 30.579V25.4045L18.0505 30.579H14.3677ZM45.6358 30.579H41.9513L45.6358 25.4045V30.579ZM46.5739 30.579V25.4045L50.2611 30.579H46.5739ZM14.9881 20.3036C14.98 20.5939 14.8613 20.8695 14.6571 21.0719C14.4529 21.2744 14.1794 21.3876 13.8947 21.3876C13.6099 21.3876 13.3364 21.2744 13.1323 21.0719C12.9281 20.8695 12.8094 20.5939 12.8013 20.3036C12.8013 19.6878 13.2923 19.1852 13.8969 19.1852C14.4988 19.1843 14.9881 19.6878 14.9881 20.3036ZM47.1996 20.2443C47.1996 20.8645 46.7103 21.3564 46.1066 21.3564C45.9631 21.3574 45.8207 21.3293 45.6879 21.2738C45.555 21.2182 45.4343 21.1364 45.3327 21.033C45.231 20.9296 45.1505 20.8066 45.0957 20.6712C45.041 20.5359 45.0131 20.3908 45.0137 20.2443C45.0078 20.0942 45.0317 19.9443 45.0839 19.8038C45.1362 19.6633 45.2157 19.535 45.3178 19.4267C45.4199 19.3183 45.5424 19.2321 45.6779 19.1732C45.8135 19.1143 45.9593 19.0839 46.1066 19.0839C46.254 19.0839 46.3998 19.1143 46.5353 19.1732C46.6709 19.2321 46.7934 19.3183 46.8955 19.4267C46.9975 19.535 47.0771 19.6633 47.1294 19.8038C47.1816 19.9443 47.2055 20.0942 47.1996 20.2443Z" fill="currentColor"/>
</svg>
