<svg width="88" height="87" viewBox="0 0 88 87" fill="none" xmlns="http://www.w3.org/2000/svg">
<path d="M46.5196 17.11H41.0596V72.85H46.5196V17.11Z" stroke="currentColor" stroke-width="3" stroke-miterlimit="10" stroke-linecap="round" stroke-linejoin="round"/>
<path d="M50.4898 80.36V76.19C50.4898 74.35 48.9998 72.85 47.1498 72.85H40.4198C38.5798 72.85 37.0798 74.34 37.0798 76.19V80.36H28.9398C27.6398 80.36 26.5898 81.41 26.5898 82.71V85.47H60.9698V82.71C60.9698 81.41 59.9198 80.36 58.6198 80.36H50.4898Z" stroke="currentColor" stroke-width="3" stroke-miterlimit="10" stroke-linecap="round" stroke-linejoin="round"/>
<path d="M37.0801 80.36H44.1401" stroke="currentColor" stroke-width="3" stroke-miterlimit="10" stroke-linecap="round" stroke-linejoin="round"/>
<path d="M15.4802 23.78C17.0155 23.78 18.2602 22.5354 18.2602 21C18.2602 19.4647 17.0155 18.22 15.4802 18.22C13.9448 18.22 12.7002 19.4647 12.7002 21C12.7002 22.5354 13.9448 23.78 15.4802 23.78Z" stroke="currentColor" stroke-width="3" stroke-miterlimit="10" stroke-linecap="round" stroke-linejoin="round"/>
<path d="M72.07 7.56C73.6054 7.56 74.85 6.31535 74.85 4.78C74.85 3.24465 73.6054 2 72.07 2C70.5347 2 69.29 3.24465 69.29 4.78C69.29 6.31535 70.5347 7.56 72.07 7.56Z" stroke="currentColor" stroke-width="3" stroke-miterlimit="10" stroke-linecap="round" stroke-linejoin="round"/>
<path d="M43.7904 17.11C46.0989 17.11 47.9704 15.2386 47.9704 12.93C47.9704 10.6214 46.0989 8.75 43.7904 8.75C41.4818 8.75 39.6104 10.6214 39.6104 12.93C39.6104 15.2386 41.4818 17.11 43.7904 17.11Z" stroke="currentColor" stroke-width="3" stroke-miterlimit="10" stroke-linecap="round" stroke-linejoin="round"/>
<path d="M2 54.64H21.31" stroke="currentColor" stroke-width="3" stroke-miterlimit="10" stroke-linecap="round" stroke-linejoin="round"/>
<path d="M26.2402 54.64H28.9702" stroke="currentColor" stroke-width="3" stroke-miterlimit="10" stroke-linecap="round" stroke-linejoin="round"/>
<path d="M2 54.65C2 62.1 8.04 68.13 15.48 68.13C22.92 68.13 28.96 62.09 28.96 54.65C26.56 49.07 15.48 23.78 15.48 23.78C15.48 23.78 5.04 47.74 2 54.65Z" stroke="currentColor" stroke-width="3" stroke-miterlimit="10" stroke-linecap="round" stroke-linejoin="round"/>
<path d="M58.5898 38.43H77.8998" stroke="currentColor" stroke-width="3" stroke-miterlimit="10" stroke-linecap="round" stroke-linejoin="round"/>
<path d="M82.8203 38.43H85.5603" stroke="currentColor" stroke-width="3" stroke-miterlimit="10" stroke-linecap="round" stroke-linejoin="round"/>
<path d="M58.5898 38.43C58.5898 45.88 64.6298 51.91 72.0698 51.91C79.5198 51.91 85.5498 45.87 85.5498 38.43C83.1498 32.85 72.0698 7.56 72.0698 7.56C72.0698 7.56 61.6298 31.52 58.5898 38.43Z" stroke="currentColor" stroke-width="3" stroke-miterlimit="10" stroke-linecap="round" stroke-linejoin="round"/>
<path d="M47.7803 11.69L69.4003 5.54001" stroke="currentColor" stroke-width="3" stroke-miterlimit="10" stroke-linecap="round" stroke-linejoin="round"/>
<path d="M18.1201 20.14L39.7401 13.98" stroke="currentColor" stroke-width="3" stroke-miterlimit="10" stroke-linecap="round" stroke-linejoin="round"/>
</svg>
