<svg width="64" height="78" viewBox="0 0 64 78" fill="none" xmlns="http://www.w3.org/2000/svg">
<path d="M55.7447 76.5H7.80398C4.59959 76.5 2 73.9069 2 70.706V35.9456C2 32.7467 4.59754 30.1516 7.80398 30.1516H55.7468C58.9512 30.1516 61.5508 32.7447 61.5508 35.9456V70.708C61.5487 73.9069 58.9512 76.5 55.7447 76.5Z" stroke="currentColor" stroke-width="3" stroke-miterlimit="10"/>
<path d="M49.1925 30.1518V19.0451C49.1925 9.3557 41.3319 1.5 31.6363 1.5C21.9408 1.5 14.0801 9.3557 14.0801 19.0451V30.1518" stroke="currentColor" stroke-width="3" stroke-miterlimit="10"/>
<path d="M31.6338 55.9945C34.659 55.9945 37.1113 53.4792 37.1113 50.3765C37.1113 47.2738 34.659 44.7585 31.6338 44.7585C28.6086 44.7585 26.1562 47.2738 26.1562 50.3765C26.1562 53.4792 28.6086 55.9945 31.6338 55.9945Z" stroke="currentColor" stroke-width="3" stroke-miterlimit="10"/>
<path d="M31.7754 64.9834V55.9946" stroke="currentColor" stroke-width="3" stroke-miterlimit="10"/>
</svg>
