<svg width="19" height="23" viewBox="0 0 19 23" fill="none" xmlns="http://www.w3.org/2000/svg">
<path d="M18.3864 9.52528C18.3864 16.4369 9.50001 22.3611 9.50001 22.3611C9.50001 22.3611 0.613647 16.4369 0.613647 9.52528C0.613647 7.16847 1.54989 4.90819 3.2164 3.24167C4.88292 1.57516 7.1432 0.638916 9.50001 0.638916C11.8568 0.638916 14.1171 1.57516 15.7836 3.24167C17.4501 4.90819 18.3864 7.16847 18.3864 9.52528Z" stroke="currentColor" stroke-linecap="round" stroke-linejoin="round"/>
<path d="M9.49995 12.4875C11.1359 12.4875 12.4621 11.1613 12.4621 9.52535C12.4621 7.88942 11.1359 6.56323 9.49995 6.56323C7.86401 6.56323 6.53783 7.88942 6.53783 9.52535C6.53783 11.1613 7.86401 12.4875 9.49995 12.4875Z" stroke="currentColor" stroke-linecap="round" stroke-linejoin="round"/>
</svg>
