<svg width="54" height="42" viewBox="0 0 54 42" fill="none" xmlns="http://www.w3.org/2000/svg">
<path d="M14.0471 39.1883L26.1142 35.9532V32.7325C26.1142 32.499 26.2086 32.2759 26.3753 32.1122C26.5419 31.9486 26.7668 31.8575 27.0004 31.8575C27.234 31.8575 27.459 31.9486 27.6255 32.1122C27.7922 32.2759 27.8867 32.499 27.8867 32.7325V35.9532L39.9525 39.1883L37.5728 20.4841L37.8208 20.4525L37.5728 20.484C37.5433 20.2522 37.6089 20.019 37.7541 19.8357C37.8991 19.6527 38.1112 19.5347 38.3433 19.5062C38.5752 19.4778 38.8098 19.5409 38.9954 19.6827C39.1811 19.8247 39.3029 20.0342 39.3324 20.2659C39.3324 20.266 39.3324 20.266 39.3324 20.266L41.707 38.9248L51.413 33.0973L45.5638 12.9249L40.227 15.8677L40.2163 15.8735L40.2162 15.8733C40.0131 15.9728 39.7792 15.9917 39.5626 15.9264C39.3459 15.861 39.1618 15.716 39.0494 15.5199C38.9368 15.3236 38.9052 15.0918 38.9615 14.8727C39.0178 14.6537 39.1573 14.4656 39.3497 14.3463L39.3606 14.3395L39.3608 14.3398L45.6744 10.8602C45.6745 10.8601 45.6746 10.8601 45.6747 10.86C45.7913 10.7954 45.9211 10.7577 46.0542 10.7497C46.1875 10.7417 46.321 10.7635 46.4446 10.8137C46.5683 10.8639 46.6791 10.9412 46.7685 11.0402C46.8578 11.139 46.9233 11.2567 46.9599 11.3847C46.9599 11.3849 46.96 11.3851 46.96 11.3853L53.302 33.2591L53.3022 33.2597C53.3552 33.4442 53.3454 33.6408 53.2745 33.8192C53.2035 33.9975 53.0756 34.1473 52.9111 34.2466L52.9106 34.2469L41.4599 41.1206C41.4339 41.1366 41.4095 41.1459 41.3907 41.1514C41.3874 41.1524 41.3842 41.1532 41.3811 41.154C41.2648 41.2133 41.1365 41.246 41.0057 41.2499L40.9978 41.2501V41.25C40.9194 41.2499 40.8413 41.2394 40.7656 41.219L14.0471 39.1883ZM14.0471 39.1883L16.4268 20.4841L16.4268 20.484C16.4414 20.3694 16.4328 20.253 16.4016 20.1417C16.3705 20.0304 16.3173 19.9264 16.2455 19.8357C16.1737 19.7451 16.0846 19.6695 15.9835 19.613C15.8825 19.5566 15.7713 19.5203 15.6563 19.5062C15.5413 19.4921 15.4247 19.5004 15.3129 19.5306C15.2011 19.5608 15.0962 19.6124 15.0042 19.6827L15.156 19.8814L15.0042 19.6827C14.9122 19.753 14.835 19.8406 14.7771 19.9407C14.7191 20.0408 14.6817 20.1513 14.6672 20.266M14.0471 39.1883L14.6672 20.266M14.6672 20.266L14.6672 20.266L14.9152 20.2975L14.6672 20.266ZM14.6672 20.266L12.2939 38.9248L2.58789 33.0985L8.43703 12.9274L13.7739 15.8702L13.7737 15.8704L13.7846 15.8758C13.9878 15.9753 14.2216 15.9942 14.4382 15.9289C14.6549 15.8635 14.839 15.7185 14.9515 15.5224C15.064 15.3261 15.0956 15.0943 15.0393 14.8752C14.983 14.6562 14.8435 14.4681 14.6512 14.3488L14.6513 14.3485L14.6401 14.3423L8.32637 10.8621C8.32603 10.8619 8.32569 10.8617 8.32535 10.8615C8.20902 10.7963 8.07932 10.7582 7.94612 10.7498C7.81254 10.7414 7.67867 10.7632 7.55472 10.8136C7.43076 10.8639 7.31979 10.9417 7.23052 11.0412C7.14157 11.1404 7.07656 11.2585 7.04074 11.3867C7.04061 11.3872 7.04047 11.3877 7.04033 11.3882L0.698962 33.2599C0.698927 33.26 0.698892 33.2601 0.698858 33.2602C0.644951 33.4449 0.654346 33.642 0.725477 33.8208C0.796597 33.9996 0.925187 34.1495 1.09053 34.2483C1.09059 34.2483 1.09066 34.2484 1.09072 34.2484L12.5399 41.122C12.5701 41.1406 12.5983 41.1499 12.6179 41.1549C12.6182 41.155 12.6185 41.1551 12.6189 41.1551M14.6672 20.266L12.6189 41.1551M12.6189 41.1551C12.7356 41.2133 12.8638 41.2456 12.9944 41.2499L12.9944 41.25L13.003 41.25C13.0814 41.2499 13.1595 41.2394 13.2353 41.219L12.6189 41.1551ZM27.0004 37.5288L40.7649 41.2188L13.2359 41.2188L27.0004 37.5288ZM12.653 41.1617L12.6547 41.162L12.653 41.1617Z" fill="white" stroke="white" stroke-width="0.5"/>
<path d="M26.4006 30.395L26.4008 30.3952C26.5638 30.5429 26.7763 30.6248 26.9964 30.6257C27.2165 30.6267 27.4297 30.5467 27.594 30.4004L27.5943 30.4001C27.8122 30.2054 30.4235 27.8521 32.9822 24.3861C35.5355 20.9275 38.0667 16.3207 38.0667 11.625C38.0667 5.52399 33.2001 0.75 27.0001 0.75C20.8001 0.75 15.9336 5.52399 15.9336 11.625C15.9336 16.2411 18.4643 20.8456 21.0157 24.3214C23.573 27.8051 26.1829 30.1972 26.4006 30.395ZM27.0001 2.5C32.3064 2.5 36.2941 6.42229 36.2941 11.625C36.2941 15.3594 34.4221 19.1631 32.2855 22.282C30.2736 25.2189 28.0485 27.5178 27.0051 28.5348C25.9632 27.506 23.7353 25.1782 21.7202 22.2279C19.5805 19.0952 17.7061 15.297 17.7061 11.625C17.7061 6.42229 21.6939 2.5 27.0001 2.5Z" fill="white" stroke="white" stroke-width="0.5"/>
<path d="M32.9762 11.625C32.9762 8.38149 30.2908 5.75 26.9998 5.75C23.7088 5.75 21.0234 8.38149 21.0234 11.625C21.0234 14.8685 23.7088 17.5 26.9998 17.5C30.2908 17.5 32.9762 14.8685 32.9762 11.625ZM26.9998 15.75C24.6777 15.75 22.796 13.8952 22.796 11.625C22.796 9.35476 24.6777 7.5 26.9998 7.5C29.322 7.5 31.2037 9.35476 31.2037 11.625C31.2037 13.8952 29.322 15.75 26.9998 15.75Z" fill="white" stroke="white" stroke-width="0.5"/>
</svg>
