<svg width="53" height="53" viewBox="0 0 53 53" fill="none" xmlns="http://www.w3.org/2000/svg">
<path d="M44.1667 25.0278H41.2222C41.2222 27.6778 40.4861 30.1805 39.1611 32.3889L41.3695 34.5972C43.1361 31.6528 44.0195 28.4139 44.1667 25.0278Z" fill="#C1A771"/>
<path d="M36.8054 25.0278V13.25C36.8054 7.50833 32.0943 2.94444 26.3526 3.09166C22.0832 3.09166 18.1082 5.88888 16.7832 10.0111L35.9221 29.15C36.511 27.825 36.8054 26.3528 36.8054 25.0278Z" fill="#C1A771"/>
<path d="M37.0999 39.1611L47.2582 49.3194L49.3193 47.2583L5.88875 3.82777L3.82764 5.88889L16.1943 18.2556V25.0278C16.1943 30.7694 20.7582 35.3333 26.4999 35.3333C28.4137 35.3333 30.1804 34.8917 31.7999 33.8611L35.0387 37.1C32.536 38.8667 29.5915 39.75 26.4999 39.75C18.5499 40.0444 12.0721 33.7139 11.7776 25.9111V25.0278H8.83319C8.98041 34.1556 15.8999 41.8111 25.0276 42.6944V47.1111H20.611C19.7276 47.1111 19.1387 47.7 19.1387 48.5833C19.1387 49.4667 19.7276 50.0555 20.611 50.0555H32.3887C33.2721 50.0555 33.861 49.4667 33.861 48.5833C33.861 47.7 33.2721 47.1111 32.3887 47.1111H27.9721V42.6944C31.211 42.4 34.4499 41.2222 37.0999 39.1611Z" fill="#C1A771"/>
</svg>
