<svg width="17" height="16" viewBox="0 0 17 16" fill="none" xmlns="http://www.w3.org/2000/svg">
<path d="M6.95764 3.52425L7.35036 3.08433V5.76118C7.35036 5.95893 7.42699 6.14859 7.56338 6.28842C7.69977 6.42826 7.88475 6.50682 8.07764 6.50682C8.27052 6.50682 8.45551 6.42826 8.5919 6.28842C8.72829 6.14859 8.80491 5.95893 8.80491 5.76118V3.08433L9.19764 3.49443C9.26365 3.57087 9.34428 3.6326 9.43452 3.67579C9.52476 3.71898 9.62269 3.74271 9.72224 3.74551C9.82178 3.7483 9.92083 3.73011 10.0132 3.69205C10.1057 3.65399 10.1895 3.59688 10.2595 3.52425C10.3276 3.45494 10.3817 3.37247 10.4186 3.2816C10.4556 3.19074 10.4746 3.09328 10.4746 2.99485C10.4746 2.89642 10.4556 2.79896 10.4186 2.70809C10.3817 2.61723 10.3276 2.53476 10.2595 2.46544L8.594 0.757928C8.52483 0.690044 8.44327 0.636832 8.354 0.601343C8.17694 0.526766 7.97834 0.526766 7.80127 0.601343C7.712 0.636832 7.63044 0.690044 7.56127 0.757928L5.89582 2.43562C5.75501 2.57998 5.67591 2.77578 5.67591 2.97994C5.67591 3.18409 5.75501 3.37989 5.89582 3.52425C6.03662 3.66862 6.2276 3.74972 6.42673 3.74972C6.62586 3.74972 6.81683 3.66862 6.95764 3.52425ZM8.07764 7.9981C7.64611 7.9981 7.22428 8.12929 6.86548 8.37509C6.50669 8.62088 6.22704 8.97024 6.0619 9.37898C5.89676 9.78773 5.85356 10.2375 5.93774 10.6714C6.02193 11.1053 6.22973 11.5039 6.53486 11.8168C6.83999 12.1296 7.22875 12.3426 7.65199 12.429C8.07522 12.5153 8.51391 12.471 8.91258 12.3017C9.31126 12.1324 9.65201 11.8456 9.89175 11.4778C10.1315 11.1099 10.2595 10.6774 10.2595 10.235C10.2595 9.64175 10.0296 9.07278 9.62042 8.65327C9.21125 8.23377 8.65629 7.9981 8.07764 7.9981ZM8.07764 10.9807C7.9338 10.9807 7.79318 10.9369 7.67359 10.855C7.55399 10.7731 7.46077 10.6566 7.40572 10.5204C7.35068 10.3841 7.33628 10.2342 7.36434 10.0896C7.3924 9.94491 7.46167 9.81205 7.56338 9.70777C7.66509 9.60349 7.79468 9.53247 7.93575 9.5037C8.07683 9.47493 8.22306 9.4897 8.35595 9.54613C8.48884 9.60257 8.60243 9.69814 8.68234 9.82076C8.76226 9.94338 8.80491 10.0875 8.80491 10.235C8.80491 10.4328 8.72829 10.6224 8.5919 10.7623C8.45551 10.9021 8.27052 10.9807 8.07764 10.9807ZM2.98673 10.235C2.98673 10.3825 3.02938 10.5267 3.1093 10.6493C3.18921 10.7719 3.30279 10.8675 3.43569 10.9239C3.56858 10.9803 3.71481 10.9951 3.85588 10.9663C3.99696 10.9376 4.12655 10.8665 4.22826 10.7623C4.32997 10.658 4.39924 10.5251 4.4273 10.3805C4.45536 10.2358 4.44096 10.0859 4.38591 9.94967C4.33087 9.81342 4.23765 9.69697 4.11805 9.61504C3.99845 9.53311 3.85784 9.48938 3.714 9.48938C3.52112 9.48938 3.33613 9.56793 3.19974 9.70777C3.06335 9.8476 2.98673 10.0373 2.98673 10.235ZM13.1685 10.235C13.1685 10.0875 13.1259 9.94338 13.046 9.82076C12.9661 9.69814 12.8525 9.60257 12.7196 9.54613C12.5867 9.4897 12.4405 9.47493 12.2994 9.5037C12.1583 9.53247 12.0287 9.60349 11.927 9.70777C11.8253 9.81205 11.756 9.94491 11.728 10.0896C11.6999 10.2342 11.7143 10.3841 11.7694 10.5204C11.8244 10.6566 11.9176 10.7731 12.0372 10.855C12.1568 10.9369 12.2974 10.9807 12.4413 10.9807C12.6342 10.9807 12.8191 10.9021 12.9555 10.7623C13.0919 10.6224 13.1685 10.4328 13.1685 10.235ZM13.8958 5.01553H10.9867C10.7938 5.01553 10.6089 5.09409 10.4725 5.23393C10.3361 5.37376 10.2595 5.56342 10.2595 5.76118C10.2595 5.95893 10.3361 6.14859 10.4725 6.28842C10.6089 6.42826 10.7938 6.50682 10.9867 6.50682H13.8958C14.0887 6.50682 14.2737 6.58537 14.4101 6.72521C14.5465 6.86504 14.6231 7.0547 14.6231 7.25246V13.2176C14.6231 13.4153 14.5465 13.605 14.4101 13.7448C14.2737 13.8847 14.0887 13.9632 13.8958 13.9632H2.25945C2.06657 13.9632 1.88159 13.8847 1.7452 13.7448C1.60881 13.605 1.53218 13.4153 1.53218 13.2176V7.25246C1.53218 7.0547 1.60881 6.86504 1.7452 6.72521C1.88159 6.58537 2.06657 6.50682 2.25945 6.50682H5.16855C5.36143 6.50682 5.54642 6.42826 5.68281 6.28842C5.8192 6.14859 5.89582 5.95893 5.89582 5.76118C5.89582 5.56342 5.8192 5.37376 5.68281 5.23393C5.54642 5.09409 5.36143 5.01553 5.16855 5.01553H2.25945C1.6808 5.01553 1.12585 5.25121 0.716676 5.67071C0.307506 6.09022 0.0776367 6.65919 0.0776367 7.25246V13.2176C0.0776367 13.8108 0.307506 14.3798 0.716676 14.7993C1.12585 15.2188 1.6808 15.4545 2.25945 15.4545H13.8958C14.4745 15.4545 15.0294 15.2188 15.4386 14.7993C15.8478 14.3798 16.0776 13.8108 16.0776 13.2176V7.25246C16.0776 6.65919 15.8478 6.09022 15.4386 5.67071C15.0294 5.25121 14.4745 5.01553 13.8958 5.01553Z" fill="#C1A771"/>
</svg>
