<svg width="44" height="44" viewBox="0 0 44 44" fill="none" xmlns="http://www.w3.org/2000/svg">
<path d="M34.3007 21.8515C39.5755 21.8515 43.8515 19.4223 43.8515 16.4257C43.8515 13.4292 39.5755 11 34.3007 11C29.026 11 24.75 13.4292 24.75 16.4257C24.75 19.4223 29.026 21.8515 34.3007 21.8515Z" fill="#C1A771"/>
<path fill-rule="evenodd" clip-rule="evenodd" d="M34.4438 24.9727C27.6128 24.9727 24.8931 22.11 24.8931 20.4517V27.555C24.8931 30.5525 29.1693 32.978 34.4438 32.978C39.7238 32.978 44.0001 30.5525 44.0001 27.555V20.6222C44.0001 22.2832 41.2776 24.9727 34.4438 24.9727Z" fill="#C1A771"/>
<path fill-rule="evenodd" clip-rule="evenodd" d="M34.4438 35.948C28.3333 35.948 24.8931 33.1952 24.8931 31.537V38.5742C24.8931 41.5717 29.1693 44 34.4438 44C39.7238 44 44.0001 41.5717 44.0001 38.5742V31.4517C44.0001 33.11 40.5571 35.948 34.4438 35.948Z" fill="#C1A771"/>
<path d="M10.8268 10.8515C16.8062 10.8515 21.6535 8.42231 21.6535 5.42575C21.6535 2.42919 16.8062 0 10.8268 0C4.8473 0 0 2.42919 0 5.42575C0 8.42231 4.8473 10.8515 10.8268 10.8515Z" fill="#C1A771"/>
<path fill-rule="evenodd" clip-rule="evenodd" d="M11.1705 13.9727C3.42925 13.9727 0.34375 11.11 0.34375 9.45172V16.555C0.34375 19.5525 5.192 21.978 11.1705 21.978C17.1545 21.978 22 19.5525 22 16.555V9.62222C22 11.2832 18.9118 13.9727 11.1705 13.9727Z" fill="#C1A771"/>
<path fill-rule="evenodd" clip-rule="evenodd" d="M11.1705 24.948C4.24325 24.948 0.34375 22.1952 0.34375 20.537V27.5742C0.34375 30.5717 5.192 33 11.1705 33C17.1545 33 22 30.5717 22 27.5742V20.4517C22 22.11 18.095 24.948 11.1705 24.948Z" fill="#C1A771"/>
<path fill-rule="evenodd" clip-rule="evenodd" d="M11.1705 35.948C4.24325 35.948 0.34375 33.1952 0.34375 31.537V38.5742C0.34375 41.5717 5.192 44 11.1705 44C17.1545 44 22 41.5717 22 38.5742V31.4517C22 33.11 18.095 35.948 11.1705 35.948Z" fill="#C1A771"/>
</svg>
