<svg width="85" height="85" viewBox="0 0 85 85" fill="none" xmlns="http://www.w3.org/2000/svg">
<path d="M69.49 45.04V64.94H2V17.04H38.93" stroke="currentColor" stroke-width="3" stroke-miterlimit="10" stroke-linecap="round" stroke-linejoin="round"/>
<path d="M68.5602 19.97H50.4102V35.34H68.5602V19.97Z" stroke="currentColor" stroke-width="3" stroke-miterlimit="10" stroke-linecap="round" stroke-linejoin="round"/>
<path d="M56.2402 35.34V26.04H62.7302V35.34" stroke="currentColor" stroke-width="3" stroke-miterlimit="10" stroke-linecap="round" stroke-linejoin="round"/>
<path d="M53.6191 82.54H17.8691V78.97C17.8691 76.68 19.7291 74.82 22.0191 74.82H49.4591C51.7491 74.82 53.6091 76.68 53.6091 78.97V82.54H53.6191Z" stroke="currentColor" stroke-width="3" stroke-miterlimit="10" stroke-linecap="round" stroke-linejoin="round"/>
<path d="M44.9395 64.94L47.3395 74.81" stroke="currentColor" stroke-width="3" stroke-miterlimit="10" stroke-linecap="round" stroke-linejoin="round"/>
<path d="M24.1406 74.81L26.5506 64.94" stroke="currentColor" stroke-width="3" stroke-miterlimit="10" stroke-linecap="round" stroke-linejoin="round"/>
<path d="M47.8604 43.37C51.4004 45.69 55.6404 47.04 60.1904 47.04C72.6304 47.04 82.7104 36.96 82.7104 24.52C82.7104 12.08 72.6204 2 60.1804 2C47.7404 2 37.6604 12.08 37.6604 24.52C37.6604 29.08 39.0204 33.33 41.3504 36.87L34.6504 46.58L47.8604 43.37Z" stroke="currentColor" stroke-width="3" stroke-miterlimit="10" stroke-linecap="round" stroke-linejoin="round"/>
<path d="M48.4199 20.45L59.4899 9.94L70.5599 20.45" stroke="currentColor" stroke-width="3" stroke-miterlimit="10" stroke-linecap="round" stroke-linejoin="round"/>
<path d="M2 54.48H69.49" stroke="currentColor" stroke-width="3" stroke-miterlimit="10" stroke-linecap="round" stroke-linejoin="round"/>
<path d="M27.3301 59.88H44.1501" stroke="currentColor" stroke-width="3" stroke-miterlimit="10" stroke-linecap="round" stroke-linejoin="round"/>
<path d="M9.13086 27.14H23.7909" stroke="currentColor" stroke-width="3" stroke-miterlimit="10" stroke-linecap="round" stroke-linejoin="round"/>
<path d="M9.13086 36.67H23.7909" stroke="currentColor" stroke-width="3" stroke-miterlimit="10" stroke-linecap="round" stroke-linejoin="round"/>
<path d="M9.13086 46.2H23.7909" stroke="currentColor" stroke-width="3" stroke-miterlimit="10" stroke-linecap="round" stroke-linejoin="round"/>
</svg>
