<svg width="17" height="13" viewBox="0 0 17 13" fill="none" xmlns="http://www.w3.org/2000/svg">
<path d="M3.5 3.5C3.5 3.36739 3.55268 3.24021 3.64645 3.14645C3.74021 3.05268 3.86739 3 4 3H11C11.1326 3 11.2598 3.05268 11.3536 3.14645C11.4473 3.24021 11.5 3.36739 11.5 3.5C11.5 3.63261 11.4473 3.75979 11.3536 3.85355C11.2598 3.94732 11.1326 4 11 4H4C3.86739 4 3.74021 3.94732 3.64645 3.85355C3.55268 3.75979 3.5 3.63261 3.5 3.5Z" fill="currentColor"/>
<path d="M9 6C8.86739 6 8.74021 6.05268 8.64645 6.14645C8.55268 6.24021 8.5 6.36739 8.5 6.5C8.5 6.63261 8.55268 6.75979 8.64645 6.85355C8.74021 6.94732 8.86739 7 9 7H11C11.1326 7 11.2598 6.94732 11.3536 6.85355C11.4473 6.75979 11.5 6.63261 11.5 6.5C11.5 6.36739 11.4473 6.24021 11.3536 6.14645C11.2598 6.05268 11.1326 6 11 6H9Z" fill="currentColor"/>
<path d="M8.5 9.5C8.5 9.36739 8.55268 9.24021 8.64645 9.14645C8.74021 9.05268 8.86739 9 9 9H11C11.1326 9 11.2598 9.05268 11.3536 9.14645C11.4473 9.24021 11.5 9.36739 11.5 9.5C11.5 9.63261 11.4473 9.75979 11.3536 9.85356C11.2598 9.94732 11.1326 10 11 10H9C8.86739 10 8.74021 9.94732 8.64645 9.85356C8.55268 9.75979 8.5 9.63261 8.5 9.5Z" fill="currentColor"/>
<path d="M4 6C3.86739 6 3.74021 6.05268 3.64645 6.14645C3.55268 6.24021 3.5 6.36739 3.5 6.5V9.5C3.5 9.63261 3.55268 9.75978 3.64645 9.85355C3.74021 9.94732 3.86739 10 4 10H7C7.13261 10 7.25979 9.94732 7.35355 9.85355C7.44732 9.75978 7.5 9.63261 7.5 9.5V6.5C7.5 6.36739 7.44732 6.24021 7.35355 6.14645C7.25979 6.05268 7.13261 6 7 6H4ZM4.5 9V7H6.5V9H4.5Z" fill="currentColor"/>
<path d="M0.5 2C0.5 1.46957 0.710714 0.960859 1.08579 0.585786C1.46086 0.210714 1.96957 0 2.5 0H12.5C13.0304 0 13.5391 0.210714 13.9142 0.585786C14.2893 0.960859 14.5 1.46957 14.5 2V3C15.0304 3 15.5391 3.21071 15.9142 3.58579C16.2893 3.96086 16.5 4.46957 16.5 5V10.5C16.5 11.163 16.2366 11.7989 15.7678 12.2678C15.2989 12.7366 14.663 13 14 13H3C2.33696 13 1.70107 12.7366 1.23223 12.2678C0.763392 11.7989 0.5 11.163 0.5 10.5V2ZM13.5 2C13.5 1.73478 13.3946 1.48043 13.2071 1.29289C13.0196 1.10536 12.7652 1 12.5 1H2.5C2.23478 1 1.98043 1.10536 1.79289 1.29289C1.60536 1.48043 1.5 1.73478 1.5 2V10.5C1.5 10.8978 1.65804 11.2794 1.93934 11.5607C2.22064 11.842 2.60218 12 3 12H14C14.3978 12 14.7794 11.842 15.0607 11.5607C15.342 11.2794 15.5 10.8978 15.5 10.5V5C15.5 4.73478 15.3946 4.48043 15.2071 4.29289C15.0196 4.10536 14.7652 4 14.5 4V10.5C14.5 10.6326 14.4473 10.7598 14.3536 10.8536C14.2598 10.9473 14.1326 11 14 11C13.8674 11 13.7402 10.9473 13.6464 10.8536C13.5527 10.7598 13.5 10.6326 13.5 10.5V2Z" fill="currentColor"/>
</svg>
