<svg width="12" height="20" viewBox="0 0 12 20" fill="none" xmlns="http://www.w3.org/2000/svg">
<path d="M5.98602 10.341C3.16102 10.341 0.813025 7.995 0.813025 5.219C0.813025 2.347 3.16103 0 5.98703 0C8.90903 0 11.16 2.346 11.16 5.219C11.155 6.58205 10.609 7.88733 9.64196 8.84797C8.67495 9.80861 7.36608 10.346 6.00303 10.342L5.98602 10.341ZM5.98602 3.017C4.79002 3.017 3.88002 4.022 3.88002 5.22C3.88002 6.416 4.79003 7.326 5.98703 7.326C7.23203 7.326 8.09402 6.416 8.09402 5.22C8.09502 4.021 7.23203 3.017 5.98602 3.017ZM8.04602 14.603L10.969 17.428C11.544 18.049 11.544 18.959 10.969 19.534C10.347 20.155 9.38803 20.155 8.90903 19.534L5.98703 16.661L3.16103 19.534C2.87403 19.821 2.49002 19.964 2.05802 19.964C1.72302 19.964 1.34002 19.82 1.00402 19.534C0.429025 18.959 0.429025 18.049 1.00402 17.427L3.97402 14.602C2.90146 14.2844 1.87256 13.8346 0.911025 13.263C0.192025 12.88 0.0490249 11.923 0.432025 11.204C0.911025 10.486 1.77302 10.295 2.54002 10.774C3.57862 11.4078 4.77181 11.7431 5.98852 11.7431C7.20524 11.7431 8.39843 11.4078 9.43703 10.774C10.204 10.295 11.113 10.486 11.544 11.204C11.976 11.923 11.783 12.879 11.112 13.263C10.203 13.838 9.14902 14.269 8.04702 14.604L8.04602 14.603Z" fill="currentColor"/>
</svg>
