<svg width="52" height="52" viewBox="0 0 52 52" fill="none" xmlns="http://www.w3.org/2000/svg">
<path d="M14.729 5.13867H33.579C38.3211 8.49719 42.4558 12.6396 45.8055 17.3879V46.3812H14.729V5.13867Z" fill="url(#paint0_linear)"/>
<path d="M14.729 5.13867H33.579C38.3211 8.49719 42.4558 12.6396 45.8055 17.3879V46.3812H14.729V5.13867Z" stroke="#C8C8C8" stroke-width="0.8125"/>
<path d="M33.5757 5.13867C38.3119 8.50527 42.4464 12.6464 45.8055 17.3879C44.6887 16.2402 43.3346 15.3503 41.838 14.7805C40.3414 14.2107 38.7383 13.9747 37.141 14.0892C37.3688 12.4165 37.1602 10.7133 36.5355 9.14503C35.9108 7.57675 34.8912 6.19663 33.5757 5.13867Z" fill="url(#paint1_linear)"/>
<path d="M33.5757 5.13867C38.3119 8.50527 42.4464 12.6464 45.8055 17.3879C44.6887 16.2402 43.3346 15.3503 41.838 14.7805C40.3414 14.2107 38.7383 13.9747 37.141 14.0892C37.3688 12.4165 37.1602 10.7133 36.5355 9.14503C35.9108 7.57675 34.8912 6.19663 33.5757 5.13867V5.13867Z" stroke="#C8C8C8" stroke-width="0.8125"/>
<path d="M8.67587 10.5557H31.5884V14.9432H8.67587V10.5557Z" stroke="#C8C8C8" stroke-width="6.5"/>
<path d="M25.7059 32.2641C26.4631 30.7788 27.3309 29.1067 28.0134 27.4264L28.2864 26.7634C27.3861 23.3379 26.8466 20.5884 27.3293 18.8107C27.4305 18.5713 27.6051 18.3702 27.8279 18.2365C28.0507 18.1027 28.3103 18.0432 28.5691 18.0664H28.9819C29.7684 18.0551 30.1373 19.0544 30.1795 19.4428C30.1855 20.0314 30.1084 20.6178 29.9504 21.1848C29.989 20.582 29.8998 19.9779 29.6888 19.4119C29.3638 18.6986 29.0534 18.2744 28.7755 18.2046C28.6766 18.2847 28.5963 18.3853 28.5402 18.4995C28.4841 18.6137 28.4535 18.7387 28.4505 18.8659C28.368 19.3704 28.3262 19.8807 28.3254 20.3918C28.3638 21.8946 28.6003 23.3856 29.029 24.8264C29.1168 24.5729 29.1915 24.3292 29.2565 24.1001C29.3524 23.7393 29.9601 21.3522 29.9601 21.3522C29.9601 21.3522 29.8074 24.5307 29.5929 25.4911C29.5474 25.6942 29.497 25.8957 29.4434 26.1004C30.1629 28.1635 31.3568 30.0287 32.929 31.5458C33.5466 32.0815 34.2225 32.5459 34.944 32.9303C36.2978 32.7261 37.665 32.6235 39.0341 32.6232C40.1323 32.5124 41.2368 32.7592 42.1834 33.3268C42.3919 33.5372 42.5152 33.8174 42.5295 34.1133C42.5224 34.2679 42.5001 34.4214 42.4629 34.5716C42.4791 34.4887 42.4791 34.0841 41.236 33.6843C39.5812 33.3695 37.8842 33.3459 36.2213 33.6145C38.766 34.8592 41.2474 35.4783 42.0323 35.1078C42.1979 34.9971 42.3422 34.8572 42.458 34.6951C42.4034 34.964 42.324 35.2273 42.2208 35.4816C42.0641 35.6805 41.8503 35.8268 41.6081 35.9008C40.3666 36.2258 37.1361 35.4653 34.32 33.8566C31.1406 34.3446 28.006 35.0897 24.947 36.0844C22.2251 40.8554 20.1776 43.0459 18.5136 42.2123L17.901 41.9052C17.7893 41.8151 17.7076 41.6932 17.6667 41.5557C17.6258 41.4182 17.6276 41.2714 17.6719 41.1349C17.8653 40.1859 19.0564 38.7543 21.4484 37.3259C21.7051 37.1634 22.8524 36.5638 22.8524 36.5638C22.8524 36.5638 22.0025 37.3861 21.8043 37.547C19.8949 39.1118 18.486 41.0797 18.5201 41.8435V41.9101C20.1451 41.6793 22.5745 38.3773 25.701 32.2592L25.7059 32.2641ZM26.6923 32.7662C26.2019 33.6834 25.7003 34.5946 25.1875 35.4995C27.7944 34.4547 30.5042 33.6878 33.2719 33.2114C32.9143 32.9656 32.5689 32.7026 32.2368 32.4233C30.8096 31.1924 29.6485 29.6835 28.8243 27.9887C28.2215 29.6285 27.5065 31.2248 26.6841 32.7662" fill="#F91D0A"/>
<path d="M6.09375 8.07324H34.1478V17.5031H6.09375V8.07324Z" fill="url(#paint2_linear)"/>
<path d="M34.6824 18.0687H5.58513V7.50781H34.6824V18.0687ZM33.6375 8.55431H6.63163V17.0189H33.6375V8.55431Z" fill="url(#paint3_linear)"/>
<path d="M13.4258 9.4558H15.4668C15.7245 9.4393 15.9827 9.47884 16.2237 9.57169C16.4646 9.66455 16.6826 9.80851 16.8626 9.99368C17.2126 10.4209 17.3869 10.9653 17.3501 11.5163C17.3869 12.0698 17.2127 12.6167 16.8626 13.0471C16.6822 13.2313 16.464 13.3744 16.2231 13.4664C15.9821 13.5584 15.7241 13.5972 15.4668 13.5801H14.6543V15.7722H13.4258V9.4558ZM14.6559 10.6356V12.4003H15.3368C15.4402 12.4062 15.5436 12.3887 15.6392 12.349C15.7349 12.3093 15.8204 12.2485 15.8893 12.1712C16.0286 11.9841 16.0976 11.754 16.0843 11.5212C16.0992 11.2881 16.03 11.0575 15.8893 10.8712C15.8204 10.7937 15.735 10.7329 15.6393 10.6932C15.5436 10.6535 15.4402 10.636 15.3368 10.6421H14.6559V10.6356ZM19.448 10.6924V14.5421H19.8884C20.1049 14.5565 20.3218 14.52 20.5217 14.4353C20.7215 14.3506 20.8987 14.2202 21.0389 14.0546C21.3322 13.6348 21.4732 13.1274 21.4386 12.6164C21.4732 12.1085 21.3333 11.604 21.0421 11.1864C20.9012 11.0208 20.7234 10.8905 20.5231 10.8058C20.3227 10.7212 20.1054 10.6846 19.8884 10.6989H19.448V10.6924ZM18.2179 9.46718H19.5179C20.0609 9.43951 20.6046 9.50603 21.125 9.6638C21.4883 9.80516 21.8047 10.0456 22.0383 10.3577C22.2664 10.6513 22.4358 10.9862 22.5371 11.3441C22.6509 11.7562 22.7056 12.1824 22.6996 12.6099C22.7056 13.0412 22.6509 13.4711 22.5371 13.8872C22.4358 14.245 22.2664 14.5799 22.0383 14.8735C21.8017 15.1866 21.4835 15.4284 21.1185 15.5723C20.5971 15.7306 20.0525 15.7993 19.5081 15.7754H18.2081V9.4558L18.2179 9.46718ZM23.6389 9.4558H26.975V10.6876H24.8788V11.8624H26.8434V13.0942H24.8788V15.7722H23.6486V9.4558" fill="#FFF9F9"/>
<defs>
<linearGradient id="paint0_linear" x1="23.801" y1="37.4463" x2="35.2964" y2="16.6703" gradientUnits="userSpaceOnUse">
<stop stop-color="white"/>
<stop offset="1" stop-color="#E1E1E1"/>
</linearGradient>
<linearGradient id="paint1_linear" x1="38.2801" y1="12.5633" x2="40.0481" y2="10.9334" gradientUnits="userSpaceOnUse">
<stop stop-color="white"/>
<stop offset="1" stop-color="#C8C8C8"/>
</linearGradient>
<linearGradient id="paint2_linear" x1="22.8459" y1="21.1756" x2="17.3956" y2="4.40074" gradientUnits="userSpaceOnUse">
<stop offset="0.127" stop-color="#8A0000"/>
<stop offset="0.244" stop-color="#900000" stop-opacity="0.999"/>
<stop offset="0.398" stop-color="#A00000" stop-opacity="0.999"/>
<stop offset="0.573" stop-color="#BC0000" stop-opacity="0.998"/>
<stop offset="0.761" stop-color="#E20000" stop-opacity="0.997"/>
<stop offset="0.867" stop-color="#FA0000" stop-opacity="0.996"/>
</linearGradient>
<linearGradient id="paint3_linear" x1="23.075" y1="21.8403" x2="17.1941" y2="3.73619" gradientUnits="userSpaceOnUse">
<stop offset="0.315" stop-color="#5E0000"/>
<stop offset="0.444" stop-color="#830000" stop-opacity="0.999"/>
<stop offset="0.618" stop-color="#AE0000" stop-opacity="0.998"/>
<stop offset="0.775" stop-color="#CD0000" stop-opacity="0.997"/>
<stop offset="0.908" stop-color="#E00000" stop-opacity="0.996"/>
<stop offset="1" stop-color="#E70000" stop-opacity="0.996"/>
</linearGradient>
</defs>
</svg>
