<svg width="25" height="25" viewBox="0 0 25 25" fill="none" xmlns="http://www.w3.org/2000/svg">
<path d="M10.2379 7.48561L10.2381 7.48606C10.3276 7.69431 10.3641 7.9215 10.3443 8.1473C10.3245 8.37311 10.2491 8.59049 10.1247 8.78L10.1244 8.78049L8.17497 11.7592L8.01882 11.9978L8.14467 12.2536C9.07399 14.1431 10.6063 15.6692 12.5 16.5903L12.7576 16.7156L12.996 16.5567L15.9308 14.6003L15.9315 14.5998C16.1214 14.4727 16.3402 14.3952 16.5678 14.3743C16.7953 14.3534 17.0245 14.3898 17.2344 14.4802L17.2353 14.4805L22.7235 16.8326C22.7236 16.8326 22.7237 16.8327 22.7238 16.8327C22.9973 16.9504 23.2253 17.1535 23.3739 17.4115C23.5221 17.6691 23.5832 17.9679 23.548 18.2631C23.3595 19.7252 22.6454 21.0687 21.539 22.043C20.4321 23.0177 19.0081 23.5561 17.5332 23.5576C8.50473 23.5573 1.15884 16.2113 1.15869 7.18285C1.16023 5.70801 1.69861 4.28416 2.67328 3.17728C3.64755 2.07085 4.99113 1.35677 6.45323 1.16829C6.74835 1.13307 7.04697 1.19412 7.30461 1.34239C7.56265 1.49089 7.7657 1.71889 7.88344 1.99233C7.8835 1.99246 7.88356 1.99259 7.88361 1.99272L10.2379 7.48561Z" stroke="currentColor"/>
</svg>
