<svg width="41" height="41" viewBox="0 0 41 41" fill="none" xmlns="http://www.w3.org/2000/svg">
<path d="M15.9517 16.7364C15.1102 16.7364 14.2855 16.7364 13.4311 16.7364C13.3334 17.1868 13.2322 17.6406 13.1365 18.0958C12.8789 19.3169 12.6254 20.5394 12.3685 21.7606C12.1324 22.884 11.8931 24.006 11.6571 25.1294C11.3975 26.3614 11.1385 27.594 10.8803 28.8259C10.5991 30.1671 10.3199 31.509 10.0374 32.8502C9.78049 34.0713 9.51819 35.2918 9.26128 36.513C9.0246 37.6357 8.7913 38.7597 8.55596 39.8831C8.53102 40.0031 8.51011 40.1252 8.47303 40.2418C8.36986 40.5635 8.07654 40.7267 7.7023 40.6795C7.43393 40.6457 7.19522 40.3652 7.22085 40.047C7.2458 39.7381 7.32671 39.4333 7.37998 39.1265C7.39616 39.0321 7.40156 38.9357 7.41707 38.7961C7.24715 38.7961 7.11633 38.7961 6.98484 38.7961C4.99836 38.7961 3.01254 38.7968 1.02606 38.7941C0.905357 38.7941 0.775893 38.7914 0.665308 38.7503C0.366593 38.6383 0.227011 38.3498 0.283652 38.0099C0.327481 37.7463 0.590462 37.5251 0.885805 37.5224C1.492 37.517 2.09752 37.521 2.70371 37.521C4.24112 37.521 5.77852 37.521 7.31593 37.521C7.43865 37.521 7.56137 37.521 7.71511 37.521C7.84592 36.902 7.97336 36.2972 8.11092 35.6445C7.93897 35.6377 7.80951 35.6289 7.67938 35.6289C5.42384 35.6283 3.1683 35.6289 0.912771 35.6289C0.614056 35.6289 0.334899 35.428 0.284327 35.1792C0.212177 34.8272 0.377379 34.4954 0.695648 34.3909C0.80893 34.3538 0.937723 34.3559 1.05977 34.3559C2.82172 34.3538 4.58299 34.3545 6.34493 34.3545C6.90595 34.3545 7.46697 34.3545 8.02798 34.3545C8.13789 34.3545 8.2478 34.3545 8.38199 34.3545C8.51415 33.7294 8.63958 33.1361 8.77511 32.4955C8.60654 32.488 8.47707 32.4773 8.34693 32.4773C5.97946 32.4766 3.61132 32.4766 1.24385 32.4766C1.12046 32.4766 0.997061 32.4779 0.873664 32.4719C0.528423 32.4543 0.294438 32.2338 0.280952 31.9162C0.26342 31.5251 0.474483 31.2426 0.827141 31.1954C0.926264 31.1819 1.02876 31.1893 1.1299 31.1893C3.62076 31.1893 6.1123 31.1893 8.60316 31.1893C8.69284 31.1893 8.78253 31.1866 8.87221 31.188C9.00504 31.19 9.0718 31.1314 9.0981 30.9951C9.19992 30.4705 9.31118 29.9486 9.4285 29.3768C9.28218 29.3714 9.15407 29.3627 9.02595 29.3627C6.42248 29.362 3.819 29.3627 1.21621 29.36C1.07191 29.36 0.92424 29.3499 0.78466 29.3155C0.394915 29.2197 0.255336 29.014 0.280285 28.6068C0.299166 28.2966 0.529099 28.0707 0.875689 28.0296C0.975485 28.0181 1.0773 28.0249 1.17845 28.0249C3.88307 28.0249 6.587 28.0249 9.29162 28.0249C9.70294 28.0249 9.70497 28.0249 9.79533 27.6358C9.8486 27.4079 9.89647 27.1793 9.94435 26.95C9.99222 26.7208 10.0367 26.4915 10.092 26.2157C9.95311 26.211 9.82567 26.2029 9.69823 26.2029C6.84796 26.2022 3.9977 26.2042 1.14743 26.1988C0.97279 26.1988 0.788033 26.1705 0.625527 26.1078C0.384802 26.0148 0.280956 25.8179 0.276911 25.5495C0.272865 25.2703 0.368618 25.0573 0.624852 24.9575C0.786684 24.8947 0.971441 24.8671 1.14676 24.8664C4.06445 24.861 6.98214 24.8644 9.89917 24.861C10.4029 24.8604 10.3638 24.9568 10.4797 24.4012C10.5708 23.9649 10.6611 23.5286 10.7629 23.0411C10.6106 23.0411 10.4811 23.0411 10.3523 23.0411C7.27749 23.0411 4.20336 23.0404 1.12855 23.0424C0.935027 23.0424 0.751615 23.0283 0.577646 22.9305C0.311972 22.7815 0.261397 22.5441 0.280952 22.271C0.299158 22.0162 0.445487 21.8483 0.674074 21.7788C0.852089 21.7242 1.04831 21.708 1.23576 21.708C4.35507 21.704 7.47506 21.7053 10.5944 21.7053C10.7279 21.7053 10.8614 21.7053 11.0145 21.7053C11.2114 21.1079 11.2869 20.505 11.4265 19.8786C11.2518 19.8786 11.1196 19.8786 10.9868 19.8786C7.71039 19.8786 4.4333 19.8786 1.15688 19.8786C1.05573 19.8786 0.953903 19.8847 0.854107 19.8746C0.591804 19.8489 0.347033 19.6446 0.289043 19.4127C0.216893 19.1221 0.302532 18.8537 0.536514 18.6986C0.616082 18.646 0.718574 18.6143 0.813651 18.6022C0.957951 18.5846 1.10495 18.5907 1.2506 18.5907C4.58298 18.59 7.91605 18.59 11.2484 18.59C11.3914 18.59 11.535 18.59 11.6996 18.59C11.8317 17.9616 11.9571 17.3668 12.092 16.7269C11.9079 16.7209 11.7778 16.7128 11.647 16.7128C8.15745 16.7121 4.66728 16.7121 1.17777 16.7121C1.08809 16.7121 0.998411 16.7148 0.908729 16.7114C0.619455 16.7 0.368617 16.5186 0.295118 16.2718C0.212179 15.9913 0.296466 15.7425 0.522357 15.5489C0.645079 15.4437 0.781283 15.437 0.930303 15.437C2.34431 15.4397 3.75832 15.439 5.17165 15.439C5.2937 15.439 5.41643 15.439 5.53038 15.439C5.61534 15.1889 5.63894 11.7877 5.56275 11.3453C4.41981 11.8059 3.29103 11.7951 2.19934 11.201C1.39085 10.7614 0.804212 10.1053 0.495383 9.23882C-0.124298 7.50182 0.470436 5.46341 2.5284 4.47556C2.41984 3.38926 2.70709 2.41355 3.40431 1.57674C3.99972 0.86198 4.77517 0.399409 5.69828 0.294218C8.36446 -0.00921705 10.2356 1.98874 10.0556 4.47488C12.303 5.60367 12.6483 7.91719 11.9605 9.4573C11.6834 10.0783 11.2579 10.5766 10.7184 10.9758C10.1857 11.3696 9.57685 11.5962 8.92008 11.6575C8.25455 11.7196 7.60453 11.6225 6.96259 11.3231C6.96259 12.7 6.96259 14.0405 6.96259 15.4276C7.56677 15.4525 8.16756 15.4356 8.76836 15.4383C9.37456 15.441 9.98009 15.439 10.5863 15.439C11.1925 15.439 11.798 15.439 12.4042 15.439C13.0104 15.439 13.6159 15.439 14.2221 15.439C14.8283 15.439 15.4338 15.439 16.04 15.439C16.6462 15.439 17.2517 15.439 17.8579 15.439C18.4641 15.439 19.0696 15.439 19.6758 15.439C20.282 15.439 20.8876 15.439 21.4938 15.439C22.0979 15.439 22.7021 15.439 23.3319 15.439C23.3319 15.8652 23.3319 16.261 23.3319 16.6959C22.6117 16.6959 21.9105 16.6959 21.1944 16.6959C21.1741 16.8038 21.1539 16.8766 21.1492 16.9501C21.1424 17.0506 21.1472 17.1517 21.1472 17.2529C21.1472 24.7376 21.1472 32.2224 21.1472 39.7064C21.1472 39.8184 21.1546 39.9317 21.1431 40.0429C21.104 40.4421 20.8646 40.6579 20.4992 40.6828C20.0946 40.7105 19.8667 40.4252 19.8127 40.053C19.7965 39.9431 19.8073 39.8292 19.8073 39.7166C19.8073 32.2096 19.8073 24.7026 19.8073 17.1956C19.8073 17.0519 19.8073 16.9076 19.8073 16.7242C18.953 16.6986 18.129 16.7188 17.2881 16.7114C17.2511 16.9656 17.2086 17.1929 17.1863 17.4215C17.1337 17.9542 17.0966 18.4882 17.0407 19.0209C16.9854 19.5529 16.9119 20.0829 16.8525 20.6143C16.8202 20.9022 16.8027 21.1922 16.773 21.4808C16.7386 21.8132 16.6988 22.1456 16.661 22.4774C16.6334 22.7208 16.5997 22.9642 16.5768 23.2083C16.5275 23.7302 16.4891 24.2528 16.4345 24.7747C16.3785 25.3067 16.305 25.8367 16.2457 26.3681C16.2133 26.656 16.1971 26.946 16.1675 27.2346C16.1324 27.5785 16.0906 27.9217 16.0515 28.2649C16.0238 28.5083 15.9901 28.7517 15.9672 28.9958C15.8964 29.7511 15.837 30.507 15.7582 31.2615C15.6813 31.9931 15.5788 32.722 15.4999 33.4536C15.4426 33.9857 15.4122 34.5211 15.357 35.0538C15.3017 35.5858 15.2282 36.1158 15.1655 36.6471C15.1378 36.8798 15.1135 37.1131 15.0913 37.3457C15.0211 38.0895 14.9544 38.8339 14.8836 39.5783C14.8661 39.7671 14.8445 39.9553 14.8155 40.1427C14.7602 40.5035 14.4527 40.7172 14.0508 40.6801C13.7501 40.6525 13.5229 40.3915 13.5424 40.0429C13.5674 39.5871 13.6247 39.1326 13.6665 38.6768C13.6941 38.3767 13.715 38.076 13.7454 37.7766C13.7784 37.455 13.8195 37.134 13.8566 36.813C13.885 36.5696 13.9173 36.3262 13.9402 36.0821C13.9901 35.5602 14.0286 35.0369 14.0832 34.5157C14.1392 33.9837 14.2133 33.4537 14.2727 32.9216C14.3057 32.6222 14.3205 32.3208 14.3509 32.0214C14.3853 31.689 14.4278 31.3572 14.4669 31.0248C14.4952 30.7814 14.5269 30.538 14.5505 30.2939C14.6213 29.5501 14.6813 28.805 14.7588 28.0619C14.8371 27.3195 14.9382 26.5791 15.0178 25.8361C15.0751 25.304 15.1061 24.7687 15.1621 24.236C15.2167 23.7147 15.2902 23.1962 15.3529 22.6756C15.3805 22.443 15.4042 22.2097 15.4264 21.977C15.4959 21.2333 15.5579 20.4882 15.6341 19.7451C15.688 19.2239 15.7669 18.706 15.8229 18.1848C15.8721 17.7121 15.9079 17.236 15.9517 16.7364ZM8.72791 4.01569C8.71375 4.01434 8.69891 4.01299 8.68475 4.01164C8.68475 3.85453 8.71375 3.69135 8.68003 3.54233C8.42785 2.41759 7.52429 1.61517 6.34898 1.57C5.4616 1.53561 4.74752 1.93075 4.2364 2.66371C3.81968 3.26114 3.74753 3.92466 3.90801 4.61986C3.95724 4.83226 3.995 5.03456 3.88104 5.2355C3.75427 5.46004 3.53849 5.53826 3.30653 5.60501C2.23238 5.91317 1.57089 6.85921 1.55741 7.92933C1.54999 8.52339 1.76509 9.05137 2.14337 9.50045C2.63358 10.0817 3.2917 10.373 4.03546 10.373C4.67739 10.373 5.27347 10.1323 5.72727 9.66161C6.07589 9.30018 6.48519 9.34536 6.80818 9.65419C7.45685 10.2732 8.23634 10.4944 9.12575 10.2813C10.1574 10.0352 11.0927 8.97382 10.9248 7.65017C10.8108 6.74863 10.3442 6.12153 9.54314 5.72706C9.39412 5.65356 9.23094 5.60839 9.0745 5.54905C8.67666 5.39868 8.53303 5.12356 8.61867 4.70887C8.66722 4.48028 8.69284 4.24697 8.72791 4.01569Z" fill="currentColor"/>
<path d="M27.5203 16.7311C27.3733 16.7183 27.2526 16.7075 27.0968 16.6934C27.0496 16.2922 27.0874 15.893 27.0746 15.4506C27.2364 15.4466 27.3773 15.4398 27.5183 15.4398C31.5809 15.4392 35.6429 15.4392 39.7056 15.4392C39.829 15.4392 39.9524 15.4365 40.0758 15.4385C40.4055 15.4425 40.6584 15.6765 40.6732 15.9894C40.6921 16.3778 40.4736 16.6691 40.127 16.7089C40.0272 16.7203 39.9254 16.7129 39.8242 16.7129C36.3226 16.7129 32.8216 16.7129 29.32 16.7129C29.1885 16.7129 29.0563 16.7129 28.8857 16.7129C28.9592 17.3656 29.1204 17.9523 29.2586 18.5909C29.4056 18.5909 29.5479 18.5909 29.6902 18.5909C33.0232 18.5909 36.3563 18.5909 39.6894 18.5909C39.8128 18.5909 39.9362 18.5895 40.0596 18.5942C40.4426 18.6104 40.6496 18.837 40.6772 19.1977C40.7082 19.5969 40.3583 19.8687 40.0778 19.8761C39.9766 19.8788 39.8755 19.8774 39.775 19.8774C36.4871 19.8774 33.1986 19.8774 29.9107 19.8774C29.8001 19.8774 29.6888 19.8774 29.523 19.8774C29.6531 20.4991 29.7765 21.0891 29.9053 21.7041C30.0766 21.7041 30.2087 21.7041 30.3416 21.7041C33.4723 21.7041 36.6038 21.7034 39.7346 21.7061C39.8789 21.7061 40.0272 21.7156 40.1661 21.7493C40.5559 21.8444 40.6981 22.0534 40.6725 22.4573C40.653 22.7634 40.419 22.994 40.0751 23.0358C39.9753 23.048 39.8735 23.0406 39.7723 23.0406C36.7198 23.0406 33.6672 23.0406 30.6153 23.0406C30.4832 23.0406 30.351 23.0406 30.1925 23.0406C30.3085 23.613 30.4144 24.1478 30.5263 24.6811C30.5519 24.8039 30.6322 24.872 30.7684 24.8632C30.8581 24.8571 30.9478 24.8625 31.0374 24.8625C33.9551 24.8625 36.8728 24.8612 39.7905 24.8659C39.9658 24.8659 40.1506 24.8902 40.3138 24.9509C40.57 25.0459 40.6759 25.2529 40.6765 25.5334C40.6772 25.816 40.5646 26.0189 40.3104 26.114C40.1479 26.1747 39.9625 26.1976 39.7872 26.1983C36.9591 26.203 34.1311 26.2017 31.3031 26.2017C31.1696 26.2017 31.0368 26.2017 30.8641 26.2017C30.9336 26.5658 30.9943 26.8989 31.0604 27.2313C31.0974 27.4168 31.1521 27.5995 31.1811 27.7863C31.2087 27.9663 31.3024 28.0378 31.4784 28.0243C31.5674 28.0176 31.6578 28.0236 31.7475 28.0236C34.4406 28.0236 37.1345 28.0243 39.8276 28.0223C40.0211 28.0223 40.2052 28.0358 40.3785 28.1356C40.626 28.2779 40.6894 28.497 40.6745 28.7627C40.6604 29.0162 40.5282 29.1949 40.305 29.2745C40.1304 29.3365 39.9335 29.3567 39.746 29.3574C37.154 29.3621 34.5613 29.3608 31.9693 29.3608C31.8365 29.3608 31.7043 29.3608 31.5297 29.3608C31.6045 29.7532 31.6706 30.1086 31.7407 30.4633C31.7751 30.6379 31.8277 30.8098 31.8547 30.9858C31.8756 31.1214 31.9363 31.1875 32.0725 31.1861C32.1622 31.1854 32.2518 31.1875 32.3415 31.1875C34.8331 31.1875 37.3239 31.1875 39.8155 31.1875C39.9166 31.1875 40.0184 31.18 40.1182 31.1929C40.4736 31.2374 40.6887 31.5165 40.6732 31.9063C40.6611 32.2266 40.4298 32.4511 40.0872 32.4693C39.9638 32.476 39.8404 32.4747 39.717 32.4747C37.3489 32.4747 34.9814 32.4747 32.6133 32.4754C32.4818 32.4754 32.351 32.4855 32.1797 32.4929C32.3092 33.1193 32.4305 33.7053 32.56 34.331C32.6834 34.3378 32.8129 34.3519 32.9423 34.3519C35.2316 34.3533 37.5208 34.3526 39.8101 34.3526C39.8998 34.3526 39.9901 34.3479 40.0791 34.354C40.4433 34.3776 40.6799 34.6493 40.6712 35.0283C40.6624 35.389 40.421 35.6257 40.0481 35.6264C38.477 35.6284 36.9059 35.6271 35.3348 35.6264C34.5944 35.6264 33.8533 35.6264 33.1129 35.6271C33.0475 35.6271 32.9814 35.6372 32.8736 35.6466C32.9315 36.2778 33.1217 36.8678 33.2323 37.5191C33.3685 37.5191 33.4986 37.5191 33.6294 37.5191C35.7279 37.5191 37.8263 37.5185 39.9254 37.5205C40.0468 37.5205 40.1762 37.5225 40.2868 37.5636C40.5855 37.6742 40.7271 37.9662 40.6698 38.3034C40.6246 38.5677 40.363 38.7909 40.0683 38.7929C39.305 38.7983 38.5424 38.7942 37.7791 38.7942C36.4999 38.7942 35.2201 38.7942 33.941 38.7942C33.8203 38.7942 33.6996 38.7942 33.5249 38.7942C33.5667 39.041 33.6011 39.2433 33.6362 39.4463C33.6706 39.6439 33.7259 39.8401 33.7346 40.0383C33.7488 40.3573 33.5222 40.6405 33.2566 40.6776C32.8722 40.7308 32.5593 40.5575 32.473 40.2136C32.3678 39.7922 32.2849 39.3647 32.1959 38.9392C31.8972 37.5097 31.6025 36.0802 31.3024 34.6513C31.0415 33.4079 30.7738 32.1659 30.5101 30.9231C30.1103 29.0371 29.7091 27.1511 29.3132 25.2637C28.9222 23.3986 28.5391 21.5315 28.1487 19.6657C27.9464 18.6974 27.7347 17.7291 27.5203 16.7311Z" fill="currentColor"/>
<path d="M25.8631 11.6627C25.8631 11.8427 25.8631 11.9749 25.8631 12.1064C25.8631 15.7752 25.8638 19.4448 25.8597 23.1136C25.8597 23.2775 25.8422 23.4528 25.7822 23.6025C25.6743 23.8736 25.3554 24.0273 25.0978 23.9693C24.7822 23.8985 24.5975 23.678 24.5853 23.3537C24.5806 23.2303 24.5826 23.1069 24.5826 22.9835C24.5826 19.3706 24.5826 15.7577 24.5826 12.1448C24.5826 12.0012 24.5826 11.8575 24.5826 11.6802C24.4188 11.6735 24.2886 11.6633 24.1585 11.6633C21.847 11.6627 19.5355 11.6627 17.2246 11.6627C17.135 11.6627 17.0446 11.6681 16.9556 11.6606C16.6205 11.6343 16.3771 11.3808 16.3737 11.0423C16.3683 10.4813 16.373 9.92028 16.373 9.35926C16.373 6.57642 16.373 3.79426 16.373 1.01142C16.373 0.491539 16.5807 0.288574 17.1093 0.288574C22.5172 0.288574 27.9258 0.288574 33.3337 0.288574C33.8334 0.288574 34.0761 0.518511 34.0768 1.02154C34.0795 4.32021 34.0754 7.61889 34.0815 10.9176C34.0822 11.3586 33.7518 11.6708 33.3229 11.6681C30.9892 11.6546 28.6554 11.662 26.3216 11.662C26.1875 11.6627 26.0539 11.6627 25.8631 11.6627ZM32.7289 1.60278C32.2305 1.52457 17.8989 1.54952 17.6697 1.62234C17.609 2.18605 17.6353 10.1125 17.6994 10.3599C17.7284 10.3673 17.76 10.3835 17.7917 10.3835C22.6946 10.3855 27.5967 10.3869 32.4996 10.3876C32.5549 10.3876 32.6108 10.3761 32.6661 10.3687C32.6756 10.3673 32.6837 10.3565 32.6924 10.3491C32.7012 10.3417 32.7093 10.3343 32.7295 10.3154C32.7289 7.42402 32.7289 4.52115 32.7289 1.60278Z" fill="currentColor"/>
<path d="M25.8649 25.1582C25.9067 25.5061 25.9539 25.8804 25.9964 26.2553C26.0611 26.8305 26.1252 27.4063 26.1852 27.9822C26.2162 28.2816 26.2364 28.5823 26.2675 28.8824C26.3019 29.2148 26.3423 29.5465 26.3801 29.8783C26.4077 30.1217 26.4401 30.3651 26.463 30.6092C26.5338 31.353 26.5952 32.0974 26.672 32.8405C26.726 33.3611 26.8056 33.8789 26.8615 34.3995C26.9175 34.9207 26.9539 35.444 27.0085 35.9652C27.0631 36.4858 27.1292 37.0056 27.1892 37.5255C27.2149 37.7467 27.2398 37.9685 27.2594 38.1904C27.3126 38.802 27.3753 39.4129 27.4097 40.0252C27.432 40.4122 27.1967 40.6657 26.8528 40.6799C26.4327 40.6974 26.169 40.4614 26.1306 40.0616C26.076 39.4965 26.0004 38.9328 25.9425 38.3677C25.8885 37.8465 25.8494 37.3239 25.7948 36.8027C25.7402 36.2821 25.6748 35.7629 25.6154 35.2423C25.5864 34.9875 25.5561 34.7326 25.5325 34.477C25.4839 33.9551 25.4462 33.4325 25.3909 32.9113C25.3356 32.3907 25.2607 31.8722 25.2028 31.3523C25.1684 31.0421 25.1535 30.7293 25.1218 30.4184C25.0888 30.0974 25.045 29.7772 25.0079 29.4569C24.9782 29.202 24.9485 28.9471 24.9243 28.6922C24.8541 27.9485 24.7914 27.204 24.7166 26.461C24.6856 26.1508 24.6289 25.8433 24.5925 25.5338C24.579 25.4151 24.5905 25.2931 24.5905 25.1582C25.0146 25.1582 25.4084 25.1582 25.8649 25.1582Z" fill="currentColor"/>
<path d="M25.2141 5.32877C24.2721 5.32877 23.3301 5.32945 22.3881 5.32877C21.989 5.32877 21.7091 5.06984 21.7078 4.701C21.7064 4.37801 22.0126 4.06918 22.3605 4.05704C22.6181 4.0476 22.8763 4.05502 23.1339 4.05502C24.7037 4.05502 26.2735 4.05502 27.8432 4.05502C27.9329 4.05502 28.0233 4.04962 28.1123 4.05771C28.4575 4.08806 28.6962 4.36317 28.6895 4.71853C28.6827 5.07321 28.4319 5.3281 28.0732 5.32945C27.1197 5.33147 26.1669 5.32945 25.2141 5.32877C25.2141 5.32945 25.2141 5.32877 25.2141 5.32877Z" fill="currentColor"/>
<path d="M25.2119 7.89176C24.6071 7.89176 24.0022 7.89715 23.3974 7.88974C23.0029 7.88502 22.7669 7.69621 22.6921 7.35097C22.6233 7.0354 22.7797 6.73062 23.0838 6.6288C23.2194 6.58362 23.3677 6.55935 23.5107 6.55868C24.6536 6.55328 25.7959 6.55058 26.9388 6.56137C27.1101 6.56272 27.2975 6.6106 27.4466 6.69219C27.6967 6.82974 27.8006 7.12711 27.7385 7.38671C27.6779 7.64092 27.4203 7.86141 27.1276 7.88569C26.9274 7.90187 26.7244 7.89108 26.5228 7.89176C26.0858 7.89243 25.6489 7.89176 25.2119 7.89176Z" fill="currentColor"/>
<path d="M19.5117 8.16265C19.8752 8.15995 20.1961 8.46541 20.1921 8.80862C20.1874 9.15656 19.8995 9.43571 19.5414 9.43909C19.1598 9.44246 18.8516 9.16397 18.8678 8.80323C18.884 8.4236 19.207 8.1377 19.5117 8.16265Z" fill="currentColor"/>
<path d="M19.5192 3.7834C19.1841 3.77665 18.8503 3.42534 18.8665 3.09696C18.8834 2.76183 19.2023 2.46514 19.5388 2.47053C19.8847 2.4766 20.2084 2.81443 20.1915 3.15158C20.1747 3.47726 19.8416 3.79014 19.5192 3.7834Z" fill="currentColor"/>
<path d="M31.5176 3.13468C31.5136 3.50218 31.2512 3.77594 30.8966 3.78201C30.5534 3.78808 30.2391 3.46846 30.2405 3.11445C30.2418 2.77528 30.5426 2.47791 30.8844 2.47656C31.2742 2.47589 31.5223 2.73347 31.5176 3.13468Z" fill="currentColor"/>
<path d="M31.5163 8.81829C31.5163 9.1932 31.2635 9.44 30.8798 9.43865C30.5157 9.4373 30.2399 9.16556 30.2385 8.80683C30.2372 8.4481 30.5136 8.16758 30.8724 8.16219C31.2554 8.1568 31.5163 8.42315 31.5163 8.81829Z" fill="currentColor"/>
</svg>
