<svg width="43" height="43" viewBox="0 0 43 43" fill="none" xmlns="http://www.w3.org/2000/svg">
<path d="M35.0545 3.90677C35.0545 3.57932 35.0501 3.3265 35.0552 3.07512C35.0646 2.64046 35.3182 2.37749 35.7543 2.37387C36.7185 2.36663 37.6827 2.36663 38.6476 2.37387C39.1185 2.37749 39.375 2.63756 39.3873 3.12293C39.3996 3.61699 39.3902 4.11106 39.3909 4.60584C39.3909 5.36505 39.3981 6.12497 39.3866 6.88418C39.3829 7.11165 39.4539 7.25799 39.6408 7.39635C40.5782 8.09253 41.5041 8.8032 42.4321 9.51169C42.5364 9.59138 42.6371 9.68193 42.7218 9.78263C42.9544 10.0601 42.9537 10.4542 42.7305 10.7085C42.5204 10.9482 42.1488 10.9816 41.8417 10.7693C41.604 10.6056 41.3824 10.4187 41.1527 10.2441C41.0484 10.1644 40.9419 10.0891 40.7804 9.97098C40.7753 10.1564 40.7688 10.2912 40.7688 10.4259C40.768 14.6211 40.768 18.8163 40.768 23.0107C40.768 23.0832 40.7644 23.1556 40.7688 23.2273C40.8028 23.8482 40.5 24.1445 39.8509 24.1438C36.717 24.1394 33.5824 24.1416 30.4485 24.1416C27.001 24.1416 23.5534 24.1423 20.1058 24.1394C19.9399 24.1394 19.7683 24.1242 19.6089 24.0807C19.3003 23.9967 19.1576 23.7989 19.1416 23.4773C19.1365 23.3809 19.1402 23.2846 19.1402 23.1882C19.1402 18.9452 19.1402 14.7015 19.1402 10.4585C19.1402 10.3151 19.1402 10.1716 19.1402 9.95142C18.7866 10.2173 18.4831 10.444 18.181 10.6722C17.9398 10.8548 17.6971 10.9591 17.3805 10.8323C16.9285 10.6512 16.8068 10.0239 17.274 9.65223C17.7543 9.27046 18.252 8.91041 18.741 8.5395C20.9172 6.8878 23.0934 5.2361 25.2689 3.58367C26.6105 2.5644 27.9471 1.5386 29.2931 0.525846C29.8089 0.137551 29.9813 0.05569 30.5956 0.528744C31.9785 1.59293 33.3694 2.64626 34.7582 3.70393C34.8328 3.76116 34.9125 3.81042 35.0545 3.90677ZM31.2932 22.755C31.2932 22.5841 31.2932 22.4428 31.2932 22.3015C31.2932 19.5769 31.2925 16.8524 31.2939 14.1278C31.2939 13.5279 31.5258 13.2961 32.1205 13.2954C33.7845 13.2947 35.4478 13.2954 37.1118 13.2954C37.1843 13.2954 37.2575 13.2889 37.3284 13.2983C37.6008 13.3338 37.8109 13.4591 37.879 13.7409C37.9181 13.9025 37.9413 14.072 37.9413 14.2379C37.9449 16.9625 37.9435 19.6871 37.9449 22.4116C37.9449 22.55 37.9573 22.6884 37.9645 22.8434C38.4412 22.8405 38.8693 22.8709 39.3228 22.8209C39.3228 22.6435 39.3228 22.5007 39.3228 22.3573C39.3228 19.1749 39.3228 15.9917 39.3228 12.8093C39.3228 11.6154 39.3192 10.4223 39.3264 9.22844C39.3279 9.02125 39.2859 8.87781 39.1018 8.74307C38.4513 8.26639 37.8189 7.76581 37.1799 7.27392C34.911 5.52515 32.6428 3.77564 30.3732 2.02759C30.2326 1.91965 30.0849 1.8204 29.9356 1.71391C29.4727 2.06381 29.0308 2.39488 28.5918 2.73029C25.9911 4.71885 23.3933 6.71104 20.7875 8.69308C20.5948 8.83942 20.5072 8.97996 20.5079 9.22626C20.5151 13.6149 20.513 18.0027 20.5137 22.3914C20.5137 22.5073 20.5267 22.6232 20.5347 22.755C24.1199 22.755 27.6732 22.755 31.2932 22.755ZM32.7131 14.7537C32.6327 15.2275 32.6537 17.8014 32.7406 18.073C32.9246 18.073 33.1166 18.0665 33.3079 18.0752C33.4745 18.0824 33.6462 18.0853 33.8055 18.1281C34.1547 18.2215 34.3612 18.5316 34.3134 18.8525C34.2583 19.2227 34.0091 19.4357 33.6165 19.4429C33.4361 19.4465 33.255 19.4407 33.0746 19.4444C32.9471 19.4465 32.8203 19.4567 32.6935 19.4632C32.6935 20.6064 32.6935 21.7082 32.6935 22.8246C33.9895 22.8246 35.2595 22.8246 36.5251 22.8246C36.6026 22.4305 36.5902 15.0377 36.512 14.7544C35.2551 14.7537 33.9932 14.7537 32.7131 14.7537ZM38.0934 6.13729C38.0913 5.31723 38.1152 4.54644 38.0761 3.76912C37.5378 3.76912 37.0387 3.76912 36.4968 3.76912C36.4968 4.08787 36.5098 4.38634 36.4924 4.68191C36.4801 4.90213 36.5743 5.03978 36.7424 5.16148C37.1111 5.42952 37.4712 5.70915 37.8363 5.98154C37.9007 6.0308 37.9739 6.0663 38.0934 6.13729Z" fill="currentColor"/>
<path d="M21.0943 37.5849C24.176 37.5849 27.2077 37.5849 30.254 37.5849C30.288 37.3813 30.3069 37.1922 30.3518 37.0089C30.4423 36.6424 30.6937 36.4779 31.0762 36.5185C31.4051 36.5533 31.6492 36.8336 31.6492 37.185C31.65 38.8367 31.65 40.4876 31.6492 42.1393C31.6492 42.4943 31.4247 42.7558 31.074 42.8029C30.9675 42.8174 30.8574 42.8094 30.7488 42.8094C20.8523 42.8094 10.9552 42.8094 1.05871 42.8094C0.974677 42.8094 0.889919 42.8138 0.805885 42.8073C0.383542 42.7754 0.150277 42.5414 0.118402 42.1154C0.111157 42.0198 0.116226 41.9227 0.116226 41.8264C0.116226 38.7287 0.114777 35.6303 0.116226 32.5327C0.117675 29.9262 0.892815 27.5812 2.57929 25.5825C4.0651 23.8207 5.94137 22.6522 8.19797 22.1248C9.08902 21.9169 9.99456 21.7959 10.9102 21.8386C12.9698 21.9335 14.8736 22.5152 16.576 23.7077C18.1719 24.8255 19.3788 26.2627 20.1757 28.0412C20.5597 28.8989 20.8233 29.7914 20.9581 30.7259C21.0544 31.3946 21.0986 32.0618 21.0965 32.7355C21.0907 34.2061 21.095 35.6767 21.095 37.1473C21.0943 37.2777 21.0943 37.4088 21.0943 37.5849ZM19.7193 41.4193C19.7193 41.2468 19.7193 41.1049 19.7193 40.9629C19.7193 37.9978 19.7266 35.0327 19.7113 32.0676C19.7084 31.5431 19.6592 31.0092 19.5483 30.497C19.0608 28.2346 17.909 26.3837 16.0457 24.9906C14.6208 23.925 13.0053 23.3563 11.2464 23.2136C10.5075 23.1535 9.76202 23.2092 9.02165 23.3404C7.20188 23.662 5.63132 24.4647 4.29692 25.7266C3.31241 26.6575 2.58436 27.771 2.09392 29.0358C1.73533 29.9602 1.50713 30.9252 1.49772 31.9104C1.47019 34.9595 1.4883 38.0094 1.48975 41.0585C1.48975 41.1744 1.50279 41.2896 1.51075 41.4185C7.58221 41.4193 13.6174 41.4193 19.7193 41.4193ZM30.2764 39.0142C29.6868 38.9301 21.3601 38.9605 21.116 39.041C21.0573 39.6335 21.0798 41.1505 21.1602 41.4345C21.3065 41.4345 21.4616 41.4345 21.6159 41.4345C21.768 41.4345 21.9201 41.4345 22.1063 41.4345C22.1063 41.2642 22.1049 41.1461 22.1063 41.0288C22.1143 40.5572 22.328 40.3645 22.7909 40.3435C23.1959 40.3246 23.4335 40.6267 23.4726 41.0259C23.4849 41.1527 23.4885 41.2802 23.4965 41.4098C23.7464 41.4098 23.9565 41.4098 24.2043 41.4098C24.2043 41.2309 24.197 41.0773 24.2057 40.9237C24.2195 40.6745 24.3325 40.4637 24.5723 40.3935C25.0939 40.2406 25.5097 40.4036 25.5742 41.0208C25.5872 41.1476 25.5879 41.2765 25.5952 41.4171C25.7364 41.4243 25.8429 41.4345 25.9494 41.433C26.0545 41.4316 26.1588 41.4185 26.3015 41.4077C26.3015 41.2454 26.2906 41.1027 26.3037 40.9621C26.3276 40.71 26.4203 40.4674 26.676 40.3927C27.1657 40.25 27.6142 40.3659 27.6728 41.0194C27.6844 41.1469 27.6859 41.2751 27.6924 41.4098C27.9394 41.4098 28.1495 41.4098 28.3987 41.4098C28.3987 41.2577 28.3922 41.1273 28.4002 40.9984C28.4277 40.5594 28.6581 40.3464 29.0956 40.3486C29.5281 40.3507 29.7498 40.5688 29.7722 41.0165C29.7788 41.1447 29.7838 41.2729 29.7896 41.4019C29.9736 41.4019 30.1207 41.4019 30.2757 41.4019C30.2764 40.5905 30.2764 39.811 30.2764 39.0142Z" fill="currentColor"/>
<path d="M7.67743 16.9151C7.95706 16.6173 8.23307 16.3167 8.51705 16.0226C8.67932 15.8545 8.86405 15.7574 9.11833 15.7458C9.54574 15.7263 9.91665 16.2254 9.71164 16.6615C9.65658 16.7781 9.5711 16.8868 9.47982 16.9788C8.80103 17.6641 8.10485 18.332 7.44199 19.0318C7.12904 19.3622 6.61614 19.373 6.30391 19.0326C5.61208 18.2777 4.8804 17.5591 4.17264 16.8194C3.85896 16.4913 3.87345 16.1182 4.18785 15.8393C4.45879 15.5995 4.84129 15.6147 5.13106 15.8914C5.42735 16.1747 5.71205 16.4695 6.00255 16.7586C6.04312 16.7991 6.0902 16.8332 6.19235 16.9194C6.19235 16.7325 6.19235 16.6072 6.19235 16.4818C6.19235 13.5769 6.19235 10.6719 6.19235 7.76694C6.19235 7.6706 6.188 7.57352 6.1938 7.4779C6.21481 7.11568 6.4517 6.87372 6.81536 6.85996C7.0921 6.84909 7.36955 6.85778 7.64701 6.85778C9.40665 6.85778 11.167 6.85706 12.9267 6.85851C13.4272 6.85923 13.6866 7.14031 13.6388 7.63003C13.6134 7.893 13.4787 8.08642 13.2193 8.15741C13.06 8.20088 12.889 8.22334 12.7231 8.22406C11.1685 8.22913 9.61311 8.22696 8.05849 8.22696C7.91505 8.22696 7.77161 8.22696 7.57674 8.22696C7.54559 8.96733 7.56587 9.68524 7.56225 10.4017C7.55863 11.1247 7.56153 11.8484 7.56153 12.5714C7.56153 13.2828 7.56153 13.9934 7.56153 14.7048C7.56153 15.4249 7.56153 16.145 7.56153 16.8643C7.59992 16.8817 7.63831 16.8984 7.67743 16.9151Z" fill="currentColor"/>
<path d="M38.9574 39.1932C38.9574 36.2868 38.9574 33.4347 38.9574 30.5348C38.8567 30.6181 38.7821 30.6703 38.7184 30.7333C38.4431 31.0035 38.1787 31.2853 37.8969 31.5476C37.5955 31.8287 37.2507 31.8142 36.9667 31.5302C36.7255 31.289 36.7168 30.8941 36.9479 30.6138C36.9783 30.5768 37.0138 30.5435 37.0478 30.5095C37.7382 29.8191 38.4264 29.1265 39.1197 28.4391C39.5008 28.0616 39.8449 28.05 40.2179 28.4166C40.9315 29.1178 41.6335 29.8307 42.3427 30.5363C42.5158 30.7087 42.602 30.9057 42.576 31.1528C42.5303 31.5838 42.0587 31.87 41.6683 31.6838C41.5205 31.6135 41.3879 31.4983 41.2676 31.3839C40.9735 31.105 40.691 30.8145 40.4041 30.5283C40.3795 30.5385 40.3549 30.5486 40.3302 30.5595C40.3302 30.6739 40.3302 30.7891 40.3302 30.9036C40.3302 33.881 40.3302 36.8584 40.331 39.8351C40.331 40.3233 40.102 40.5653 39.6072 40.566C37.6064 40.5696 35.6055 40.5696 33.6046 40.566C33.1634 40.5653 32.8867 40.2907 32.8853 39.8829C32.8845 39.5192 33.1294 39.2396 33.4931 39.1976C33.5887 39.1867 33.6858 39.1932 33.7821 39.1932C35.3614 39.1932 36.9399 39.1932 38.5192 39.1932C38.6503 39.1932 38.7807 39.1932 38.9574 39.1932Z" fill="currentColor"/>
<path d="M28.6894 16.8753C28.6894 17.8265 28.6923 18.7784 28.6886 19.7296C28.6865 20.1896 28.4431 20.4496 27.9845 20.4518C26.419 20.4591 24.8528 20.4605 23.2873 20.4511C22.7961 20.4482 22.5433 20.157 22.5426 19.6289C22.5397 18.0387 22.5411 16.4493 22.5411 14.8592C22.5411 14.5941 22.5368 14.3289 22.5426 14.0645C22.5542 13.5386 22.8012 13.2959 23.3257 13.2959C24.8557 13.2944 26.3849 13.298 27.9149 13.293C28.1424 13.2923 28.3402 13.3343 28.5083 13.498C28.6488 13.6349 28.6937 13.7936 28.693 13.9855C28.6865 14.9483 28.6894 15.9118 28.6894 16.8753ZM27.3303 19.1362C27.4194 18.6943 27.3984 15.0128 27.3122 14.765C26.745 14.6955 24.1863 14.7237 23.94 14.8027C23.94 16.2407 23.94 17.6794 23.94 19.137C25.0802 19.1362 26.1959 19.1362 27.3303 19.1362Z" fill="currentColor"/>
<path d="M15.3769 32.3313C15.3102 35.0081 13.3064 37.0879 10.5884 37.0763C7.91016 37.0654 5.85495 35.0218 5.85205 32.3262C5.84988 29.6132 7.91958 27.5472 10.6471 27.5646C13.3296 27.5812 15.3204 29.6444 15.3769 32.3313ZM14.0026 32.3212C14.0041 30.4449 12.5523 28.9815 10.7347 28.925C8.71862 28.862 7.20674 30.4036 7.21036 32.319C7.21398 34.2829 8.73456 35.7071 10.5877 35.7173C12.5501 35.7274 14.0091 34.1721 14.0026 32.3212Z" fill="currentColor"/>
<path d="M10.2751 26.0971C9.09931 26.1623 7.95181 26.5491 6.93833 27.2917C5.58582 28.282 4.78243 29.6272 4.4673 31.2652C4.40645 31.581 4.40935 31.9085 4.38254 32.2309C4.37457 32.3265 4.38254 32.4264 4.35646 32.517C4.25504 32.8741 4.01381 33.0082 3.56538 32.9683C3.29372 32.9444 3.05394 32.6981 3.01627 32.3873C3.00033 32.2569 3.00323 32.1222 3.01409 31.9903C3.10899 30.8812 3.34806 29.8091 3.88993 28.8246C5.03888 26.7382 6.77026 25.4081 9.09858 24.8887C9.57454 24.7822 10.0722 24.7482 10.5612 24.733C11.0814 24.7163 11.3501 25.0764 11.2523 25.5864C11.1973 25.874 10.9944 26.0587 10.6786 26.0942C10.5728 26.1072 10.4627 26.0971 10.2751 26.0971Z" fill="currentColor"/>
<path d="M12.2664 32.3169C12.2997 33.3007 11.4311 33.999 10.6002 33.9875C9.67585 33.9744 8.92824 33.2319 8.93983 32.3031C8.95287 31.3128 9.77075 30.6449 10.6335 30.6514C11.584 30.6587 12.3265 31.5157 12.2664 32.3169ZM10.8929 32.3502C10.9066 32.1445 10.827 32.0431 10.643 32.0329C10.4568 32.0228 10.3322 32.1213 10.317 32.2901C10.301 32.4654 10.4053 32.59 10.5828 32.6074C10.7762 32.627 10.8806 32.54 10.8929 32.3502Z" fill="currentColor"/>
</svg>
