<svg width="51" height="53" viewBox="0 0 51 53" fill="none" xmlns="http://www.w3.org/2000/svg">
<path d="M37.1655 29.6532C37.1547 29.8772 37.1421 30.0103 37.1421 30.1425C37.1412 37.1785 37.1412 44.2144 37.1421 51.2495C37.1421 52.0465 36.5987 52.5998 35.7989 52.5998C26.6524 52.5998 17.506 52.5998 8.35956 52.5998C7.17655 52.5998 5.99441 52.5998 4.81141 52.5998C3.90279 52.5998 3.37114 52.0663 3.37114 51.1478C3.37024 44.2018 3.37114 37.2559 3.37114 30.3099C3.37114 30.1201 3.37114 29.9293 3.37114 29.6496C3.02028 29.9005 2.75316 30.1093 2.46888 30.291C1.89582 30.658 1.23452 30.5681 0.747825 30.0949C0.444653 29.8007 0.337675 29.4318 0.332277 29.0396C0.316984 27.8269 0.316017 26.6142 0.331311 25.4024C0.338508 24.8726 0.543678 24.4344 0.996188 24.1016C3.05542 22.5875 5.10199 21.0582 7.15403 19.5333C10.7165 16.8857 14.2791 14.2381 17.8425 11.5905C18.3346 11.2253 18.8258 10.8583 19.3197 10.4966C20.0151 9.98742 20.5342 9.99102 21.2386 10.5137C25.3921 13.594 29.5438 16.677 33.6956 19.76C35.6514 21.212 37.6026 22.6712 39.5629 24.1178C39.9857 24.429 40.1873 24.8456 40.1945 25.3431C40.2116 26.5854 40.2062 27.8278 40.1972 29.0702C40.1927 29.6379 39.9372 30.0796 39.4343 30.3513C38.9404 30.6184 38.4546 30.5573 37.9976 30.2478C37.7412 30.0733 37.4929 29.888 37.1655 29.6532ZM35.5389 50.9481C35.5389 50.7124 35.5389 50.5343 35.5389 50.3561C35.5389 46.0146 35.5389 41.673 35.5389 37.3323C35.5389 34.5183 35.5362 31.7034 35.5425 28.8894C35.5434 28.6024 35.4913 28.3838 35.2385 28.1985C33.3952 26.8454 31.5608 25.4798 29.7256 24.116C26.9179 22.0307 24.1119 19.9426 21.3042 17.8582C20.9596 17.6018 20.6061 17.3571 20.2651 17.1142C20.1185 17.2141 20.0043 17.2852 19.8963 17.3652C15.0735 20.9484 10.2523 24.5343 5.42226 28.1076C5.14517 28.3127 5.04892 28.5196 5.05072 28.8507C5.06242 31.1861 5.05705 33.5215 5.05705 35.8569C5.05705 40.6924 5.05703 45.5279 5.05793 50.3633C5.05793 50.5514 5.0759 50.7403 5.0849 50.9157C5.17396 50.9445 5.21536 50.9697 5.25674 50.9697C10.5564 50.9742 15.8552 50.976 21.1549 50.9778C21.244 50.9778 21.3321 50.9607 21.4212 50.949C21.4338 50.9472 21.4446 50.931 21.4554 50.9211C21.4662 50.9112 21.476 50.8995 21.5165 50.8572C21.5165 50.7106 21.5165 50.5325 21.5165 50.3535C21.5165 45.0394 21.5318 39.7244 21.5004 34.4104C21.495 33.5638 22.1903 32.7865 23.1025 32.8243C24.5069 32.8837 25.9166 32.8396 27.3236 32.8396C28.8502 32.8396 30.3778 32.8414 31.9044 32.8387C32.3497 32.8378 32.7168 32.9961 33.0137 33.3299C33.3249 33.6799 33.3718 34.1036 33.3718 34.5453C33.3709 39.8153 33.3709 45.0844 33.3709 50.3544C33.3709 50.5442 33.3709 50.7331 33.3709 50.9508C34.1131 50.9481 34.7932 50.9481 35.5389 50.9481ZM31.6445 34.5984C31.0741 34.4922 23.5587 34.5201 23.2357 34.6272C23.2303 34.7396 23.2186 34.8584 23.2186 34.9762C23.2267 40.2732 23.2357 45.5693 23.2447 50.8662C23.2447 50.8788 23.2564 50.8932 23.2654 50.904C23.2744 50.9157 23.2878 50.9238 23.2986 50.9337C23.8366 51.0183 31.3017 50.994 31.6445 50.9004C31.6445 45.4784 31.6445 40.051 31.6445 34.5984ZM38.4339 28.4899C38.4645 28.4297 38.4879 28.4045 38.4879 28.3802C38.4915 27.4671 38.4888 26.554 38.4987 25.6417C38.5005 25.4303 38.3871 25.3224 38.2351 25.2099C35.4364 23.139 32.6395 21.0654 29.8443 18.9899C27.1086 16.9595 24.3755 14.9245 21.6407 12.8932C21.1873 12.5567 20.7302 12.2266 20.2759 11.8937C20.1185 12.0008 19.9926 12.0799 19.8738 12.169C17.0058 14.2975 14.1387 16.426 11.2716 18.5563C8.2849 20.7748 5.30086 22.9978 2.30872 25.209C2.10541 25.3593 2.01547 25.5068 2.01907 25.7596C2.03256 26.5674 2.02351 27.3762 2.02531 28.1841C2.02531 28.2776 2.04333 28.3721 2.05772 28.5106C2.22325 28.3946 2.34653 28.3118 2.46528 28.2237C3.56911 27.405 4.67291 26.5836 5.77675 25.765C8.83726 23.4952 11.8996 21.2273 14.9601 18.9566C16.4121 17.8789 17.8605 16.7967 19.3125 15.7198C20.0214 15.1935 20.5332 15.2178 21.2295 15.7252C21.2655 15.7513 21.2989 15.7819 21.3348 15.8089C23.242 17.2258 25.1483 18.6436 27.0564 20.0596C30.3805 22.5263 33.7055 24.9922 37.0296 27.4581C37.4947 27.8017 37.9625 28.1436 38.4339 28.4899Z" fill="currentColor"/>
<path d="M41.297 19.186C36.287 19.3012 31.8734 15.0864 31.8446 9.84254C31.8149 4.51138 36.0585 0.537752 40.7689 0.320943C43.573 0.192297 45.9912 1.10991 47.9865 3.08368C49.8398 4.91711 50.7871 7.18506 50.7691 9.76427C50.7304 15.1818 46.3133 19.2886 41.297 19.186ZM33.5431 9.75798C33.4666 13.8773 36.7854 17.5172 41.2448 17.5514C45.6863 17.5856 49.2389 13.9826 49.0823 9.4692C48.9438 5.50726 45.8509 2.01943 41.3384 1.97175C36.9194 1.92407 33.4693 5.54595 33.5431 9.75798Z" fill="currentColor"/>
<path d="M19.4356 39.442C19.4356 41.0289 19.4356 42.6158 19.4356 44.2028C19.4356 44.3071 19.4392 44.4124 19.4338 44.5167C19.3843 45.5189 18.8355 46.0443 17.8343 46.0452C14.8106 46.0461 11.7861 46.0461 8.76249 46.0452C7.76211 46.0452 7.21159 45.5171 7.16391 44.5158C7.15941 44.4259 7.16294 44.3359 7.16294 44.2469C7.16294 41.0433 7.16114 37.8397 7.16654 34.6362C7.16654 34.3996 7.19356 34.1585 7.24034 33.9264C7.36449 33.3021 7.86651 32.8765 8.49445 32.8405C8.52414 32.8387 8.55472 32.8396 8.58441 32.8396C11.7286 32.8396 14.8718 32.836 18.016 32.8423C18.8527 32.8441 19.3969 33.4361 19.4329 34.3681C19.4518 34.8467 19.4365 35.3262 19.4365 35.8048C19.4356 37.0166 19.4356 38.2293 19.4356 39.442ZM8.86774 38.5343C9.45879 38.6332 12.1108 38.608 12.4149 38.5091C12.4149 37.201 12.4149 35.8948 12.4149 34.5939C11.8482 34.4932 9.188 34.5192 8.86774 34.6281C8.86774 35.9182 8.86774 37.2145 8.86774 38.5343ZM14.1683 38.5316C14.727 38.6296 17.4034 38.608 17.7156 38.51C17.7156 37.2037 17.7156 35.8966 17.7156 34.5957C17.1785 34.4959 14.4949 34.5183 14.1683 34.6254C14.1683 35.9164 14.1683 37.2118 14.1683 38.5316ZM8.86862 44.2873C9.44887 44.3908 12.11 44.3647 12.4159 44.2621C12.4159 42.9559 12.4159 41.6496 12.4159 40.3488C11.8437 40.2516 9.18978 40.2768 8.86862 40.3812C8.86862 41.6712 8.86862 42.9667 8.86862 44.2873ZM14.1683 44.2846C14.7198 44.3872 17.4043 44.3647 17.7164 44.263C17.7164 42.9568 17.7164 41.6505 17.7164 40.293C16.5181 40.3101 15.3504 40.2642 14.1683 40.3209C14.1683 41.6694 14.1683 42.9649 14.1683 44.2846Z" fill="currentColor"/>
<path d="M20.2792 23.311C21.5504 23.311 22.8206 23.3065 24.0918 23.3128C24.7026 23.3164 25.0913 23.6492 25.3063 24.1989C25.354 24.3194 25.372 24.4589 25.3729 24.5902C25.3774 26.0404 25.3773 27.4906 25.3746 28.9408C25.3737 29.5435 24.9608 30.0833 24.3833 30.2201C24.153 30.2749 23.9119 30.3055 23.6762 30.3055C21.4037 30.3118 19.1304 30.3118 16.8579 30.3055C16.6366 30.3046 16.4117 30.274 16.1949 30.2273C15.5804 30.0941 15.146 29.5822 15.1406 28.9498C15.1289 27.4996 15.1261 26.0494 15.1414 24.5992C15.1486 23.8741 15.6965 23.3254 16.4225 23.3155C17.7081 23.2993 18.9936 23.311 20.2801 23.311C20.2792 23.3119 20.2792 23.311 20.2792 23.311ZM23.6825 28.6016C23.7967 28.052 23.7715 25.2694 23.659 24.9636C22.8143 24.9636 21.9696 24.9636 21.1311 24.9636C21.0223 25.5006 21.0474 28.2832 21.1617 28.6016C21.9911 28.6016 22.826 28.6016 23.6825 28.6016ZM16.8921 24.9492C16.7886 25.5438 16.8165 28.285 16.9191 28.5854C17.7485 28.5854 18.5771 28.5854 19.4002 28.5854C19.4983 27.9971 19.4713 25.2658 19.3652 24.9492C18.5519 24.9492 17.7332 24.9492 16.8921 24.9492Z" fill="currentColor"/>
<path d="M29.4205 42.677C29.4205 42.5132 29.4143 42.3486 29.4215 42.1849C29.4439 41.6829 29.7912 41.3069 30.2437 41.288C30.6764 41.27 31.0849 41.6478 31.1154 42.1363C31.1406 42.5375 31.1451 42.9433 31.1127 43.3427C31.0722 43.8564 30.6962 44.1784 30.2239 44.1577C29.7759 44.138 29.4511 43.7979 29.4223 43.3031C29.4115 43.0953 29.4214 42.8857 29.4205 42.677C29.4214 42.677 29.4205 42.677 29.4205 42.677Z" fill="currentColor"/>
<path d="M40.475 14.6999C39.8057 14.5011 39.1957 14.3554 38.6154 14.1341C38.2745 14.0036 37.9533 13.785 37.67 13.5493C37.2876 13.2326 37.2642 12.7918 37.5494 12.4392C37.858 12.0568 38.2935 11.9714 38.6983 12.27C39.1193 12.5795 39.5879 12.7495 40.0845 12.8647C40.1925 12.8899 40.3103 12.8683 40.448 12.8683C40.448 12.0811 40.448 11.3227 40.448 10.5895C39.9289 10.3449 39.4026 10.137 38.9177 9.85816C38.3645 9.53969 37.9363 9.08088 37.6835 8.47904C37.3281 7.63339 37.4883 6.86961 38.0694 6.1868C38.5732 5.59485 39.2515 5.28988 39.9829 5.08656C40.1259 5.04698 40.2699 5.00739 40.4732 4.95162C40.4732 4.81488 40.4705 4.67004 40.4741 4.5261C40.4876 3.98542 40.7836 3.64447 41.2622 3.61658C41.7129 3.59049 42.0619 3.88736 42.1528 4.38755C42.1789 4.53329 42.1798 4.68263 42.196 4.88145C42.5082 4.94802 42.8257 5.00739 43.1379 5.08386C43.7829 5.2413 44.3812 5.50668 44.9093 5.91421C45.2332 6.16521 45.3303 6.56014 45.1674 6.91459C45.0064 7.26544 44.6529 7.48315 44.3002 7.40489C44.1167 7.3644 43.9421 7.26005 43.7802 7.15839C43.2575 6.83183 42.8176 6.67889 42.205 6.64381C42.205 7.44537 42.205 8.24513 42.205 9.00531C42.7421 9.24012 43.2827 9.42184 43.7658 9.70072C44.5116 10.1298 45.02 10.7803 45.1117 11.6583C45.199 12.4958 44.831 13.1643 44.185 13.6851C43.6138 14.1458 42.9355 14.3716 42.1969 14.5542C42.1879 14.6954 42.1825 14.8403 42.169 14.9851C42.1438 15.2586 42.0799 15.5177 41.8541 15.7021C41.6094 15.9027 41.3503 16.0017 41.0283 15.8667C40.7089 15.7327 40.511 15.5177 40.4795 15.1695C40.4624 15.0067 40.475 14.843 40.475 14.6999ZM40.4381 8.75522C40.4381 8.05082 40.4381 7.39319 40.4381 6.64651C40.0774 6.83363 39.7643 6.96587 39.4855 7.14939C39.1319 7.3815 39.0995 7.74224 39.3694 8.06431C39.6438 8.38907 39.9856 8.61038 40.4381 8.75522ZM42.2023 12.7882C42.6278 12.7037 42.9714 12.5426 43.2476 12.252C43.4833 12.0047 43.5085 11.7672 43.307 11.4892C43.0425 11.1248 42.6692 10.935 42.2023 10.8217C42.2023 11.5045 42.2023 12.136 42.2023 12.7882Z" fill="currentColor"/>
</svg>
