<svg width="50" height="38" viewBox="0 0 50 38" fill="none" xmlns="http://www.w3.org/2000/svg">
<path d="M0 16.625V36.8125C0 37.4686 0.559375 38 1.25 38H7.5V14.25H2.5C1.11953 14.25 0 15.3136 0 16.625ZM28.125 13.0625H26.25V10.0938C26.25 9.76571 25.9703 9.50001 25.625 9.50001H24.375C24.0297 9.50001 23.75 9.76571 23.75 10.0938V14.8438C23.75 15.1718 24.0297 15.4375 24.375 15.4375H28.125C28.4703 15.4375 28.75 15.1718 28.75 14.8438V13.6563C28.75 13.3282 28.4703 13.0625 28.125 13.0625ZM38.8867 8.31547L26.3867 0.398561C25.976 0.13867 25.4935 0 25 0C24.5065 0 24.024 0.13867 23.6133 0.398561L11.1133 8.31547C10.7709 8.53232 10.4902 8.82611 10.2959 9.17075C10.1017 9.5154 10.0001 9.90026 10 10.2912V38H20V27.3125C20 26.6564 20.5594 26.125 21.25 26.125H28.75C29.4406 26.125 30 26.6564 30 27.3125V38H40V10.2919C40 9.49778 39.582 8.75559 38.8867 8.31547ZM25 19C21.5484 19 18.75 16.3415 18.75 13.0625C18.75 9.78352 21.5484 7.12501 25 7.12501C28.4516 7.12501 31.25 9.78352 31.25 13.0625C31.25 16.3415 28.4516 19 25 19ZM47.5 14.25H42.5V38H48.75C49.4406 38 50 37.4686 50 36.8125V16.625C50 15.3136 48.8805 14.25 47.5 14.25Z" fill="currentColor"/>
</svg>
