<svg width="53" height="53" viewBox="0 0 53 53" fill="none" xmlns="http://www.w3.org/2000/svg">
<path d="M44.5059 13.2544C44.341 13.0687 44.1391 12.9186 43.9127 12.8134C43.6863 12.7083 43.4403 12.6503 43.1902 12.6432C39.304 12.543 34.3865 8.44484 31.1353 6.83665C29.1271 5.84635 27.8012 5.19339 26.8055 5.02138C26.6033 4.99232 26.3979 4.99289 26.1959 5.02305C25.2002 5.19506 23.8743 5.84802 21.8677 6.83832C18.6165 8.44484 13.6991 12.543 9.81289 12.6432C9.56256 12.6507 9.31647 12.7088 9.08985 12.8139C8.86323 12.9191 8.66093 13.069 8.49548 13.2544C8.15253 13.637 7.97559 14.1372 8.00272 14.6471C8.83753 31.3854 14.9251 41.7443 25.6066 47.7645C25.8843 47.9198 26.1925 48 26.499 48C26.8055 48 27.1137 47.9198 27.3931 47.7645C38.0746 41.7443 44.1605 31.3854 44.997 14.6471C45.0257 14.1372 44.8492 13.6367 44.5059 13.2544ZM36.0121 19.8374L26.9985 32.9551C26.6751 33.4261 26.1671 33.7384 25.6642 33.7384C25.1596 33.7384 24.5991 33.4662 24.2452 33.1171L17.8918 26.8497C17.6844 26.6444 17.5679 26.3663 17.5679 26.0765C17.5679 25.7867 17.6844 25.5086 17.8918 25.3033L19.4615 23.7519C19.6701 23.5481 19.9519 23.4338 20.2455 23.4338C20.5391 23.4338 20.8209 23.5481 21.0295 23.7519L25.1613 27.8266L32.3393 17.3776C32.5054 17.1385 32.7607 16.9739 33.0494 16.9197C33.3381 16.8656 33.6368 16.9263 33.8802 17.0887L35.7175 18.3178C35.9602 18.4813 36.1275 18.7329 36.1827 19.0177C36.2379 19.3024 36.1766 19.5971 36.0121 19.8374Z" fill="#C1A771"/>
</svg>
