<svg width="44" height="40" viewBox="0 0 44 40" fill="none" xmlns="http://www.w3.org/2000/svg">
<path d="M43.2667 22.9333H42.5333V20.7333C42.5315 19.2772 41.668 17.9601 40.3333 17.3776V6.06668C40.3331 5.77519 40.1605 5.51155 39.8933 5.39495C40.1794 4.93642 40.3318 4.40715 40.3333 3.86668C40.3333 2.24666 39.02 0.93335 37.4 0.93335C35.78 0.93335 34.4667 2.24666 34.4667 3.86668C34.4697 4.38313 34.6105 4.8894 34.8744 5.33335H9.1256C9.38951 4.8894 9.53031 4.38313 9.53333 3.86668C9.53333 2.24666 8.22002 0.93335 6.6 0.93335C4.97998 0.93335 3.66667 2.24666 3.66667 3.86668C3.66822 4.40715 3.82058 4.93642 4.10667 5.39495C3.83955 5.51155 3.66685 5.77519 3.66667 6.06668V17.3776C2.332 17.9601 1.46859 19.2772 1.46667 20.7333V22.9333H0.733333C0.328349 22.9333 0 23.2618 0 23.6667V33.9333C0 34.3384 0.328349 34.6667 0.733333 34.6667H1.46667V38.3333C1.46667 38.7384 1.79502 39.0667 2.2 39.0667H5.13333C5.53831 39.0667 5.86667 38.7384 5.86667 38.3333V34.6667H38.1333V38.3333C38.1333 38.7384 38.4616 39.0667 38.8667 39.0667H41.8C42.2049 39.0667 42.5333 38.7384 42.5333 38.3333V34.6667H43.2667C43.6717 34.6667 44 34.3384 44 33.9333V23.6667C44 23.2618 43.6717 22.9333 43.2667 22.9333ZM37.4 2.40002C38.2101 2.40002 38.8667 3.05662 38.8667 3.86668C38.8667 4.67673 38.2101 5.33335 37.4 5.33335C36.5899 5.33335 35.9333 4.67673 35.9333 3.86668C35.9333 3.05662 36.5899 2.40002 37.4 2.40002ZM6.6 2.40002C7.41006 2.40002 8.06667 3.05662 8.06667 3.86668C8.06667 4.67673 7.41006 5.33335 6.6 5.33335C5.78994 5.33335 5.13333 4.67673 5.13333 3.86668C5.13333 3.05662 5.78994 2.40002 6.6 2.40002ZM5.13333 6.80002H38.8667V17.0667H35.9143C36.3995 16.4357 36.664 15.6627 36.6667 14.8667V13.4C36.6643 11.376 35.024 9.73573 33 9.73335H27.1333C25.1093 9.73573 23.469 11.376 23.4667 13.4V14.8667C23.4693 15.6627 23.7338 16.4357 24.2191 17.0667H19.7809C20.2662 16.4357 20.5307 15.6627 20.5333 14.8667V13.4C20.531 11.376 18.8907 9.73573 16.8667 9.73335H11C8.976 9.73573 7.33571 11.376 7.33333 13.4V14.8667C7.336 15.6627 7.60045 16.4357 8.08573 17.0667H5.13333V6.80002ZM35.2 13.4V14.8667C35.2 16.0817 34.215 17.0667 33 17.0667H27.1333C25.9183 17.0667 24.9333 16.0817 24.9333 14.8667V13.4C24.9333 12.185 25.9183 11.2 27.1333 11.2H33C34.215 11.2 35.2 12.185 35.2 13.4ZM19.0667 13.4V14.8667C19.0667 16.0817 18.0817 17.0667 16.8667 17.0667H11C9.78496 17.0667 8.8 16.0817 8.8 14.8667V13.4C8.8 12.185 9.78496 11.2 11 11.2H16.8667C18.0817 11.2 19.0667 12.185 19.0667 13.4ZM2.93333 20.7333C2.93333 19.5183 3.91829 18.5333 5.13333 18.5333H38.8667C40.0817 18.5333 41.0667 19.5183 41.0667 20.7333V22.9333H2.93333V20.7333ZM4.4 37.6H2.93333V34.6667H4.4V37.6ZM41.0667 37.6H39.6V34.6667H41.0667V37.6ZM42.5333 33.2H1.46667V24.4H42.5333V33.2Z" fill="currentColor"/>
</svg>
