<svg width="46" height="46" viewBox="0 0 46 46" fill="none" xmlns="http://www.w3.org/2000/svg">
<path d="M23 0.5C18.875 0.5 15.5 3.875 15.5 8C15.5 10.0869 16.3944 11.9694 17.7856 13.3325C16.5094 14.1937 15.4631 15.354 14.7379 16.7122C14.0127 18.0704 13.6306 19.5853 13.625 21.125V29.7969L17.375 31.6719V39.875H28.625V31.6719L32.375 29.7969V21.125C32.3694 19.5853 31.9873 18.0704 31.2621 16.7122C30.5369 15.354 29.4906 14.1937 28.2144 13.3325C29.6056 11.9694 30.5 10.0887 30.5 8C30.5 3.875 27.125 0.5 23 0.5ZM23 4.25C25.0944 4.25 26.75 5.90562 26.75 8C26.75 10.0944 25.0944 11.75 23 11.75C20.9056 11.75 19.25 10.0944 19.25 8C19.25 5.90562 20.9056 4.25 23 4.25ZM23 15.5C26.1275 15.5 28.625 17.9975 28.625 21.125V27.4531L24.875 29.3281V36.125H21.125V29.3281L17.375 27.4531V21.125C17.375 17.9975 19.8725 15.5 23 15.5ZM9.875 28.3906C4.40375 29.9206 0.5 32.5156 0.5 36.125C0.5 42.2769 11.8156 45.5 23 45.5C34.1844 45.5 45.5 42.2769 45.5 36.125C45.5 32.5137 41.5962 29.9206 36.125 28.3906V32.3169C39.6912 33.4663 41.75 34.9531 41.75 36.125C41.75 38.3656 34.2725 41.75 23 41.75C11.7275 41.75 4.25 38.3656 4.25 36.125C4.25 34.9531 6.30875 33.4663 9.875 32.3169V28.3906Z" fill="currentColor"/>
</svg>
