<svg width="14" height="18" viewBox="0 0 14 18" fill="none" xmlns="http://www.w3.org/2000/svg">
<path fill-rule="evenodd" clip-rule="evenodd" d="M1.25074 3.25074C1.67046 2.83101 2.23973 2.59521 2.83331 2.59521H4.49998C4.81557 2.59521 5.07141 2.85105 5.07141 3.16664C5.07141 3.48223 4.81557 3.73807 4.49998 3.73807H2.83331C2.54283 3.73807 2.26426 3.85346 2.05886 4.05886C1.85346 4.26426 1.73807 4.54283 1.73807 4.83331V14.8333C1.73807 15.1238 1.85346 15.4024 2.05886 15.6078C2.26426 15.8132 2.54284 15.9285 2.83331 15.9285H11.1666C11.4571 15.9285 11.7357 15.8132 11.9411 15.6078C12.1465 15.4024 12.2619 15.1238 12.2619 14.8333V4.83331C12.2619 4.54284 12.1465 4.26426 11.9411 4.05886C11.7357 3.85346 11.4571 3.73807 11.1666 3.73807H9.49998C9.18439 3.73807 8.92855 3.48223 8.92855 3.16664C8.92855 2.85105 9.18439 2.59521 9.49998 2.59521H11.1666C11.7602 2.59521 12.3295 2.83101 12.7492 3.25074C13.1689 3.67046 13.4047 4.23973 13.4047 4.83331V14.8333C13.4047 15.4269 13.1689 15.9962 12.7492 16.4159C12.3295 16.8356 11.7602 17.0714 11.1666 17.0714H2.83331C2.23973 17.0714 1.67046 16.8356 1.25074 16.4159C0.831014 15.9962 0.595215 15.4269 0.595215 14.8333V4.83331C0.595215 4.23973 0.831013 3.67046 1.25074 3.25074Z" fill="#C1A771"/>
<path fill-rule="evenodd" clip-rule="evenodd" d="M6.16681 2.07145C5.56192 2.07145 5.07157 2.5618 5.07157 3.16668C5.07157 3.77157 5.56192 4.26192 6.16681 4.26192H7.83347C8.43836 4.26192 8.92871 3.77157 8.92871 3.16668C8.92871 2.5618 8.43836 2.07145 7.83347 2.07145H6.16681ZM3.92871 3.16668C3.92871 1.93062 4.93074 0.928589 6.16681 0.928589H7.83347C9.06954 0.928589 10.0716 1.93062 10.0716 3.16668C10.0716 4.40275 9.06954 5.40478 7.83347 5.40478H6.16681C4.93074 5.40478 3.92871 4.40275 3.92871 3.16668Z" fill="#C1A771"/>
<path fill-rule="evenodd" clip-rule="evenodd" d="M4.50014 8.42859C4.81573 8.42859 5.07157 8.68443 5.07157 9.00002V13.1667C5.07157 13.4823 4.81573 13.7381 4.50014 13.7381C4.18455 13.7381 3.92871 13.4823 3.92871 13.1667V9.00002C3.92871 8.68443 4.18455 8.42859 4.50014 8.42859Z" fill="#C1A771"/>
<path fill-rule="evenodd" clip-rule="evenodd" d="M7.00014 11.762C7.31573 11.762 7.57157 12.0178 7.57157 12.3334V13.1667C7.57157 13.4823 7.31573 13.7382 7.00014 13.7382C6.68455 13.7382 6.42871 13.4823 6.42871 13.1667V12.3334C6.42871 12.0178 6.68455 11.762 7.00014 11.762Z" fill="#C1A771"/>
<path fill-rule="evenodd" clip-rule="evenodd" d="M9.50014 10.0952C9.81573 10.0952 10.0716 10.3511 10.0716 10.6666V13.1666C10.0716 13.4822 9.81573 13.7381 9.50014 13.7381C9.18455 13.7381 8.92871 13.4822 8.92871 13.1666V10.6666C8.92871 10.3511 9.18455 10.0952 9.50014 10.0952Z" fill="#C1A771"/>
</svg>
