<svg width="78" height="78" viewBox="0 0 78 78" fill="none" xmlns="http://www.w3.org/2000/svg">
<path d="M39 76.5L47.3333 68.1667M57.75 68.1667C60.5127 68.1667 63.1622 67.0692 65.1157 65.1157C67.0692 63.1622 68.1667 60.5127 68.1667 57.75C68.1667 54.9873 67.0692 52.3378 65.1157 50.3843C63.1622 48.4308 60.5127 47.3333 57.75 47.3333C54.9873 47.3333 52.3378 48.4308 50.3843 50.3843C48.4308 52.3378 47.3333 54.9873 47.3333 57.75C47.3333 60.5127 48.4308 63.1622 50.3843 65.1157C52.3378 67.0692 54.9873 68.1667 57.75 68.1667V68.1667ZM30.6667 9.83333L39 1.5L30.6667 9.83333ZM20.25 30.6667C23.0127 30.6667 25.6622 29.5692 27.6157 27.6157C29.5692 25.6622 30.6667 23.0127 30.6667 20.25C30.6667 17.4873 29.5692 14.8378 27.6157 12.8843C25.6622 10.9308 23.0127 9.83333 20.25 9.83333C17.4873 9.83333 14.8378 10.9308 12.8843 12.8843C10.9308 14.8378 9.83333 17.4873 9.83333 20.25C9.83333 23.0127 10.9308 25.6622 12.8843 27.6157C14.8378 29.5692 17.4873 30.6667 20.25 30.6667V30.6667ZM22.3333 55.6667L55.6667 22.3333L22.3333 55.6667ZM11.9167 76.5C14.6793 76.5 17.3289 75.4025 19.2824 73.449C21.2359 71.4955 22.3333 68.846 22.3333 66.0833C22.3333 63.3207 21.2359 60.6711 19.2824 58.7176C17.3289 56.7641 14.6793 55.6667 11.9167 55.6667C9.15399 55.6667 6.50447 56.7641 4.55097 58.7176C2.59747 60.6711 1.5 63.3207 1.5 66.0833C1.5 68.846 2.59747 71.4955 4.55097 73.449C6.50447 75.4025 9.15399 76.5 11.9167 76.5V76.5ZM66.0833 22.3333C68.846 22.3333 71.4955 21.2359 73.449 19.2824C75.4025 17.3289 76.5 14.6793 76.5 11.9167C76.5 9.15399 75.4025 6.50447 73.449 4.55097C71.4955 2.59747 68.846 1.5 66.0833 1.5C63.3207 1.5 60.6711 2.59747 58.7176 4.55097C56.7641 6.50447 55.6667 9.15399 55.6667 11.9167C55.6667 14.6793 56.7641 17.3289 58.7176 19.2824C60.6711 21.2359 63.3207 22.3333 66.0833 22.3333Z" stroke="currentColor" stroke-width="3" stroke-linecap="round" stroke-linejoin="round"/>
</svg>
