<svg width="42" height="49" viewBox="0 0 42 49" fill="none" xmlns="http://www.w3.org/2000/svg">
<path d="M33.4 22H29.6606L31.7365 25.1103L39.1615 36.2353L39.167 36.2435L39.1726 36.2517C39.3714 36.5433 39.1805 37 38.75 37H25.875H23.875V39V44.05C23.875 45.6704 22.5454 47 20.925 47C19.3046 47 17.975 45.6704 17.975 44.05V39V37H15.975H3.27501C2.82739 37 2.65006 36.543 2.83912 36.2594L2.84548 36.2499L2.85173 36.2402L10.1017 25.0902L12.1111 22H8.42501H8.32502C7.88782 22 7.68112 21.5194 7.89081 21.2186L7.89219 21.2166L20.49 3.09473C20.4902 3.09443 20.4904 3.09413 20.4907 3.09382C20.5367 3.02822 20.5978 2.97463 20.6688 2.93758C20.7402 2.90035 20.8195 2.88091 20.9 2.88091C20.9805 2.88091 21.0598 2.90035 21.1312 2.93758L22.056 1.16424L21.1312 2.93758C21.2026 2.9748 21.2639 3.02871 21.31 3.09473L21.3121 3.09769L34.0092 21.2186C34.0095 21.219 34.0098 21.2194 34.0101 21.2198C34.2391 21.5505 34.0002 22 33.6 22H33.4Z" stroke="currentColor" stroke-width="4"/>
</svg>
