<svg width="44" height="40" viewBox="0 0 44 40" fill="none" xmlns="http://www.w3.org/2000/svg">
<path d="M43.2667 38.3332H32.7955L31.8128 35.386C35.3429 35.2364 38.129 32.3333 38.1333 28.7999V25.1332H38.8667C40.0788 25.1356 41.0634 24.1547 41.0657 22.9425C41.0675 22.01 40.4797 21.1781 39.6 20.8683V18.5332C39.6 18.1283 39.2717 17.7999 38.8667 17.7999H36.6667V0.933295C36.6667 0.528297 36.3384 0.199951 35.9333 0.199951H25.6667C25.2616 0.199951 24.9333 0.528297 24.9333 0.933295V4.65862C22.41 5.02281 20.5363 7.18377 20.5333 9.73329V11.2C20.5333 11.6049 20.8616 11.9333 21.2667 11.9333H30.0667C30.4717 11.9333 30.8 11.6049 30.8 11.2V9.73329C30.797 7.18377 28.9233 5.02281 26.4 4.65862V1.66662H35.2V17.7999H33C32.595 17.7999 32.2667 18.1283 32.2667 18.5332V20.7332H5.13333C3.91829 20.7332 2.93333 21.7182 2.93333 22.9332C2.93333 24.1484 3.91829 25.1332 5.13333 25.1332H5.86667V28.7999C5.87098 32.3333 8.65709 35.2364 12.1873 35.386L11.2046 38.3332H0.733333C0.328349 38.3332 0 38.6617 0 39.0667C0 39.4716 0.328349 39.7999 0.733333 39.7999H43.2667C43.6717 39.7999 44 39.4716 44 39.0667C44 38.6617 43.6717 38.3332 43.2667 38.3332ZM29.3333 9.73329V10.4666H22V9.73329C22 7.70828 23.6417 6.06662 25.6667 6.06662C27.6916 6.06662 29.3333 7.70828 29.3333 9.73329ZM36.6667 19.2667H38.1333V20.7332H36.6667V19.2667ZM33.7333 19.2667H35.2V20.7332H33.7333V19.2667ZM5.13333 23.6667C4.72835 23.6667 4.4 23.3383 4.4 22.9332C4.4 22.5283 4.72835 22.1999 5.13333 22.1999H38.8667C39.2717 22.1999 39.6 22.5283 39.6 22.9332C39.6 23.3383 39.2717 23.6667 38.8667 23.6667H5.13333ZM14.1379 38.3332H12.7505L13.7287 35.3999H15.1162L14.1379 38.3332ZM15.6845 38.3332L16.662 35.3999H27.338L28.3155 38.3332H15.6845ZM29.862 38.3332L28.8839 35.3999H30.2712L31.2496 38.3332H29.862ZM12.4667 33.9332C9.63298 33.93 7.33654 31.6337 7.33333 28.7999V25.1332H36.6667V28.7999C36.6635 31.6337 34.367 33.93 31.5333 33.9332H12.4667Z" fill="#C1A771"/>
<path d="M10.9988 26.5999H9.53217C9.12719 26.5999 8.79883 26.9282 8.79883 27.3331C8.79883 27.7381 9.12719 28.0664 9.53217 28.0664H10.9988C11.4038 28.0664 11.7322 27.7381 11.7322 27.3331C11.7322 26.9282 11.4038 26.5999 10.9988 26.5999Z" fill="#C1A771"/>
<path d="M18.3345 26.5999H13.9345C13.5295 26.5999 13.2012 26.9282 13.2012 27.3331C13.2012 27.7381 13.5295 28.0664 13.9345 28.0664H18.3345C18.7394 28.0664 19.0679 27.7381 19.0679 27.3331C19.0679 26.9282 18.7394 26.5999 18.3345 26.5999Z" fill="#C1A771"/>
<path d="M21.2665 13.4C20.8615 13.4 20.5332 13.7284 20.5332 14.1335V16.3335C20.5332 16.7384 20.8615 17.0667 21.2665 17.0667C21.6716 17.0667 21.9999 16.7384 21.9999 16.3335V14.1335C21.9999 13.7284 21.6716 13.4 21.2665 13.4Z" fill="#C1A771"/>
<path d="M24.2001 15.5999C23.7951 15.5999 23.4668 15.9282 23.4668 16.3331V18.5331C23.4668 18.9381 23.7951 19.2664 24.2001 19.2664C24.605 19.2664 24.9335 18.9381 24.9335 18.5331V16.3331C24.9335 15.9282 24.605 15.5999 24.2001 15.5999Z" fill="#C1A771"/>
<path d="M27.1337 13.4C26.7287 13.4 26.4004 13.7284 26.4004 14.1335V16.3335C26.4004 16.7384 26.7287 17.0667 27.1337 17.0667C27.5386 17.0667 27.8671 16.7384 27.8671 16.3335V14.1335C27.8671 13.7284 27.5386 13.4 27.1337 13.4Z" fill="#C1A771"/>
<path d="M30.0653 15.5999C29.6604 15.5999 29.332 15.9282 29.332 16.3331V18.5331C29.332 18.9381 29.6604 19.2664 30.0653 19.2664C30.4704 19.2664 30.7987 18.9381 30.7987 18.5331V16.3331C30.7987 15.9282 30.4704 15.5999 30.0653 15.5999Z" fill="#C1A771"/>
</svg>
