<svg width="53" height="53" viewBox="0 0 53 53" fill="none" xmlns="http://www.w3.org/2000/svg">
<path d="M42.3998 15.9H9.2748V14.575L38.4248 12.243V14.575H42.3998V10.6C42.3998 7.68499 40.0387 5.63919 37.1555 6.04994L10.5468 9.85004C7.66095 10.2634 5.2998 12.985 5.2998 15.9V42.4C5.2998 43.8056 5.8582 45.1537 6.85214 46.1477C7.84608 47.1416 9.19416 47.7 10.5998 47.7H42.3998C43.8055 47.7 45.1535 47.1416 46.1475 46.1477C47.1414 45.1537 47.6998 43.8056 47.6998 42.4V21.2C47.6998 19.7943 47.1414 18.4463 46.1475 17.4523C45.1535 16.4584 43.8055 15.9 42.3998 15.9ZM38.4248 34.4659C37.9026 34.4657 37.3856 34.3627 36.9032 34.1627C36.4209 33.9627 35.9826 33.6697 35.6135 33.3003C35.2444 32.931 34.9516 32.4925 34.752 32.01C34.5523 31.5275 34.4496 31.0104 34.4498 30.4882C34.45 29.9661 34.553 29.449 34.753 28.9667C34.953 28.4843 35.246 28.0461 35.6154 27.6769C35.9847 27.3078 36.4232 27.0151 36.9057 26.8154C37.3882 26.6157 37.9053 26.5131 38.4275 26.5132C39.482 26.5136 40.4933 26.9329 41.2388 27.6788C41.9842 28.4248 42.4028 29.4363 42.4025 30.4909C42.4021 31.5455 41.9828 32.5567 41.2369 33.3022C40.4909 34.0477 39.4794 34.4662 38.4248 34.4659Z" fill="#C1A771"/>
</svg>
