<svg width="20" height="20" viewBox="0 0 20 20" fill="none" xmlns="http://www.w3.org/2000/svg">
<path d="M13.4895 15.2255L12.7936 15.6283L13.4627 16.0743L15.1851 17.2226C15.1851 17.2226 15.1851 17.2226 15.1851 17.2227C15.2447 17.2623 15.2898 17.3201 15.314 17.3875C15.3381 17.4548 15.3399 17.5281 15.3192 17.5966C15.2985 17.6651 15.2562 17.7251 15.1988 17.7677C15.1413 17.8103 15.0717 17.8333 15.0001 17.8333H15H5.00039C4.92887 17.8332 4.85927 17.8102 4.80186 17.7675C4.74445 17.7249 4.70228 17.6649 4.68158 17.5964C4.66088 17.528 4.66275 17.4547 4.6869 17.3874C4.71105 17.3201 4.7562 17.2623 4.81568 17.2227C4.8157 17.2226 4.81571 17.2226 4.81572 17.2226L6.53818 16.0743L7.20732 15.6282L6.51122 15.2255C4.41379 14.0121 3 11.7527 3 9.16663C3 5.30773 6.14035 2.16663 10 2.16663C13.8597 2.16663 17 5.30773 17 9.16663C17 11.7527 15.5862 14.0121 13.4895 15.2255Z" stroke="#C1A771"/>
<path d="M10 6C8.3458 6 7 7.3458 7 9C7 10.6542 8.3458 12 10 12C11.6542 12 13 10.6542 13 9C13 7.3458 11.6542 6 10 6ZM10 10.8C9.0076 10.8 8.2 9.9924 8.2 9C8.2 8.0076 9.0076 7.2 10 7.2C10.9924 7.2 11.8 8.0076 11.8 9C11.8 9.9924 10.9924 10.8 10 10.8Z" fill="#C1A771"/>
</svg>
