<svg width="21" height="21" viewBox="0 0 21 21" fill="none" xmlns="http://www.w3.org/2000/svg">
<path d="M20.0413 14.7708C20.0413 16.1687 19.486 17.5094 18.4975 18.4979C17.5091 19.4863 16.1684 20.0417 14.7705 20.0417C13.3726 20.0417 12.0319 19.4863 11.0435 18.4979C10.055 17.5094 9.49967 16.1687 9.49967 14.7708C9.49967 13.3729 10.055 12.0323 11.0435 11.0438C12.0319 10.0553 13.3726 9.5 14.7705 9.5C16.1684 9.5 17.5091 10.0553 18.4975 11.0438C19.486 12.0323 20.0413 13.3729 20.0413 14.7708ZM2.31217 6.9815V15.0104C2.31221 15.4315 2.47062 15.8371 2.75593 16.1467C3.04124 16.4564 3.43258 16.6473 3.85222 16.6818L3.98926 16.6875H8.84226C9.00709 17.1993 9.23709 17.6823 9.52172 18.126L3.98926 18.125C3.19371 18.1251 2.4283 17.8207 1.85004 17.2743C1.27178 16.728 0.924506 15.981 0.879466 15.1868L0.874674 15.0104V6.9815C1.3397 7.14616 1.84715 7.14616 2.31217 6.9815ZM17.5602 14.0233L17.5056 13.9563L15.0935 11.546L15.0455 11.5068L14.9718 11.4646L14.9152 11.4425L14.8338 11.4243L14.7283 11.4224L14.6459 11.4368L14.5693 11.4646L14.5108 11.4972L14.4475 11.5451L12.0354 13.9563C11.9505 14.0408 11.9004 14.154 11.8948 14.2737C11.8893 14.3933 11.9288 14.5107 12.0055 14.6027C12.0822 14.6947 12.1906 14.7546 12.3093 14.7707C12.428 14.7867 12.5485 14.7577 12.6468 14.6894L12.7139 14.6338L14.2913 13.0564V17.6468C14.2915 17.7588 14.3309 17.8672 14.4027 17.9531C14.4745 18.0391 14.5741 18.0972 14.6843 18.1173L14.7705 18.125C14.8827 18.125 14.9913 18.0857 15.0774 18.0139C15.1636 17.9421 15.2218 17.8424 15.242 17.7321L15.2497 17.6458V13.0564L16.8271 14.6338C16.9064 14.7132 17.011 14.7622 17.1227 14.7724C17.2345 14.7825 17.3462 14.7532 17.4385 14.6894L17.5056 14.6338C17.5848 14.5544 17.6337 14.4497 17.6437 14.338C17.6536 14.2263 17.6241 14.1155 17.5602 14.0233ZM10.273 10.4612C9.8648 10.8867 9.51597 11.3716 9.24188 11.8987H6.38317C6.20107 11.8987 6.02577 11.8295 5.89271 11.7052C5.75964 11.5808 5.67873 11.4106 5.66632 11.2289C5.6539 11.0473 5.71092 10.8676 5.82584 10.7264C5.94076 10.5851 6.10502 10.4927 6.28542 10.4679L6.38317 10.4612H10.273ZM15.0101 0.875C15.8056 0.874948 16.5711 1.17932 17.1493 1.72569C17.7276 2.27205 18.0748 3.01898 18.1199 3.81325L18.1247 3.98958V9.52108C17.6766 9.23418 17.1935 9.00614 16.6872 8.84258V3.98958C16.6872 3.56869 16.5289 3.1632 16.2438 2.85358C15.9587 2.54397 15.5676 2.35288 15.1481 2.31825L15.0101 2.3125H3.98926C3.41426 2.3125 2.90634 2.60192 2.60447 3.04371C2.14028 2.79541 1.60089 2.72683 1.08934 2.85108C1.30745 2.29657 1.67991 1.81618 2.16261 1.46681C2.64531 1.11744 3.21802 0.913723 3.81292 0.879792L3.98926 0.875H15.0101ZM12.6162 7.10033C12.7983 7.10039 12.9736 7.16957 13.1066 7.29389C13.2397 7.41821 13.3206 7.58841 13.333 7.77009C13.3454 7.95178 13.2884 8.1314 13.1735 8.27266C13.0586 8.41393 12.8943 8.5063 12.7139 8.53113L12.6162 8.53783H6.38317C6.20107 8.53778 6.02577 8.4686 5.89271 8.34428C5.75964 8.21995 5.67873 8.04976 5.66632 7.86807C5.6539 7.68639 5.71092 7.50677 5.82584 7.36551C5.94076 7.22424 6.10502 7.13187 6.28542 7.10704L6.38317 7.10033H12.6162ZM1.59342 3.75C1.91113 3.75 2.21583 3.87621 2.44048 4.10086C2.66513 4.32551 2.79134 4.63021 2.79134 4.94792C2.79134 5.26562 2.66513 5.57032 2.44048 5.79497C2.21583 6.01963 1.91113 6.14583 1.59342 6.14583C1.27572 6.14583 0.971022 6.01963 0.746369 5.79497C0.521717 5.57032 0.395508 5.26562 0.395508 4.94792C0.395508 4.63021 0.521717 4.32551 0.746369 4.10086C0.971022 3.87621 1.27572 3.75 1.59342 3.75Z" fill="#C1A771"/>
</svg>
