<svg width="21" height="21" viewBox="0 0 21 21" fill="none" xmlns="http://www.w3.org/2000/svg">
<path d="M14.7705 9.5C13.3726 9.5 12.0319 10.0553 11.0435 11.0438C10.055 12.0323 9.49967 13.3729 9.49967 14.7708C9.49967 16.1687 10.055 17.5094 11.0435 18.4979C12.0319 19.4864 13.3726 20.0417 14.7705 20.0417C16.1684 20.0417 17.5091 19.4864 18.4975 18.4979C19.486 17.5094 20.0413 16.1687 20.0413 14.7708C20.0413 13.3729 19.486 12.0323 18.4975 11.0438C17.5091 10.0553 16.1684 9.5 14.7705 9.5ZM2.31217 6.9815V15.0104C2.31221 15.4315 2.47062 15.8371 2.75593 16.1467C3.04124 16.4564 3.43258 16.6473 3.85222 16.6818L3.98926 16.6875H8.84226C9.00709 17.1993 9.23709 17.6823 9.52172 18.126L3.98926 18.125C3.19371 18.1251 2.4283 17.8207 1.85004 17.2743C1.27178 16.728 0.924506 15.981 0.879466 15.1868L0.874674 15.0104V6.9815C1.3397 7.14616 1.84715 7.14616 2.31217 6.9815ZM15.518 11.9811L15.5851 12.0358L17.9953 14.4479L18.0346 14.4958L18.0768 14.5696L18.0988 14.6261L18.117 14.7076L18.1189 14.813L18.1045 14.8954L18.0768 14.9721L18.0442 15.0305L17.9963 15.0938L15.5851 17.5059C15.5006 17.5908 15.3873 17.641 15.2677 17.6465C15.148 17.652 15.0306 17.6126 14.9386 17.5358C14.8466 17.4591 14.7867 17.3507 14.7707 17.232C14.7546 17.1133 14.7836 16.9929 14.852 16.8945L14.9075 16.8274L16.485 15.25H11.8946C11.7826 15.2498 11.6742 15.2104 11.5882 15.1386C11.5023 15.0669 11.4442 14.9672 11.424 14.8571L11.4163 14.7708C11.4163 14.6587 11.4556 14.5501 11.5274 14.4639C11.5992 14.3778 11.6989 14.3195 11.8093 14.2993L11.8955 14.2917H16.485L14.9075 12.7143C14.8282 12.635 14.7791 12.5303 14.769 12.4186C14.7588 12.3069 14.7882 12.1951 14.852 12.1028L14.9075 12.0358C14.987 11.9565 15.0916 11.9077 15.2034 11.8977C15.3151 11.8877 15.4268 11.9172 15.519 11.9811H15.518ZM10.273 10.4612C9.8648 10.8867 9.51597 11.3716 9.24188 11.8987H6.38317C6.20107 11.8987 6.02577 11.8295 5.89271 11.7052C5.75964 11.5808 5.67873 11.4106 5.66632 11.2289C5.6539 11.0473 5.71092 10.8676 5.82584 10.7264C5.94076 10.5851 6.10502 10.4927 6.28542 10.4679L6.38317 10.4612H10.273ZM15.0101 0.875C15.8056 0.874948 16.5711 1.17932 17.1493 1.72569C17.7276 2.27205 18.0748 3.01898 18.1199 3.81325L18.1247 3.98958V9.52108C17.6766 9.23418 17.1935 9.00614 16.6872 8.84258V3.98958C16.6872 3.56869 16.5289 3.1632 16.2438 2.85358C15.9587 2.54397 15.5676 2.35288 15.1481 2.31825L15.0101 2.3125H3.98926C3.41426 2.3125 2.90634 2.60192 2.60447 3.04371C2.14028 2.79541 1.60089 2.72683 1.08934 2.85108C1.30745 2.29657 1.67991 1.81618 2.16261 1.46681C2.64531 1.11744 3.21802 0.913723 3.81292 0.879792L3.98926 0.875H15.0101ZM12.6162 7.10033C12.7983 7.10039 12.9736 7.16957 13.1066 7.29389C13.2397 7.41821 13.3206 7.58841 13.333 7.77009C13.3454 7.95178 13.2884 8.1314 13.1735 8.27266C13.0586 8.41393 12.8943 8.5063 12.7139 8.53113L12.6162 8.53783H6.38317C6.20107 8.53778 6.02577 8.4686 5.89271 8.34428C5.75964 8.21995 5.67873 8.04976 5.66632 7.86807C5.6539 7.68639 5.71092 7.50677 5.82584 7.36551C5.94076 7.22424 6.10502 7.13187 6.28542 7.10704L6.38317 7.10033H12.6162ZM1.59342 3.75C1.91113 3.75 2.21583 3.87621 2.44048 4.10086C2.66513 4.32551 2.79134 4.63021 2.79134 4.94792C2.79134 5.26562 2.66513 5.57032 2.44048 5.79497C2.21583 6.01963 1.91113 6.14583 1.59342 6.14583C1.27572 6.14583 0.971022 6.01963 0.746369 5.79497C0.521717 5.57032 0.395508 5.26562 0.395508 4.94792C0.395508 4.63021 0.521717 4.32551 0.746369 4.10086C0.971022 3.87621 1.27572 3.75 1.59342 3.75Z" fill="#C1A771"/>
</svg>
