<svg width="29" height="20" viewBox="0 0 29 20" fill="none" xmlns="http://www.w3.org/2000/svg">
<g clip-path="url(#clip0)">
<path d="M27.8172 3.11944C27.6541 2.51651 27.3358 1.96683 26.8941 1.52514C26.4525 1.08346 25.9028 0.765179 25.2999 0.602C23.0926 0 14.2088 0 14.2088 0C14.2088 0 5.32455 0.0182222 3.11722 0.620222C2.51428 0.783411 1.9646 1.10171 1.52294 1.54341C1.08127 1.98512 0.763022 2.53482 0.599887 3.13778C-0.0677799 7.05978 -0.32678 13.036 0.61822 16.8011C0.781373 17.4041 1.09963 17.9537 1.54129 18.3954C1.98296 18.8371 2.53262 19.1554 3.13555 19.3186C5.34289 19.9206 14.2269 19.9206 14.2269 19.9206C14.2269 19.9206 23.1108 19.9206 25.318 19.3186C25.921 19.1554 26.4706 18.8371 26.9123 18.3954C27.354 17.9538 27.6723 17.4041 27.8354 16.8011C28.5397 12.8736 28.7567 6.90111 27.8172 3.11956V3.11944Z" fill="#FF0000"/>
<path d="M11.3799 14.2289L18.7498 9.96019L11.38 5.69153L11.3799 14.2289Z" fill="white"/>
</g>
<defs>
<clipPath id="clip0">
<rect width="28.4453" height="20" fill="white"/>
</clipPath>
</defs>
</svg>
