<svg width="23" height="29" viewBox="0 0 23 29" fill="none" xmlns="http://www.w3.org/2000/svg">
<path fill-rule="evenodd" clip-rule="evenodd" d="M1.43873 4.43891C2.17325 3.7044 3.16947 3.29175 4.20823 3.29175H7.1249C7.67718 3.29175 8.1249 3.73946 8.1249 4.29175C8.1249 4.84403 7.67718 5.29175 7.1249 5.29175H4.20823C3.6999 5.29175 3.21239 5.49368 2.85294 5.85313C2.4935 6.21257 2.29156 6.70008 2.29156 7.20842V24.7084C2.29156 25.2167 2.4935 25.7043 2.85294 26.0637C3.21239 26.4231 3.6999 26.6251 4.20823 26.6251H18.7916C19.2999 26.6251 19.7874 26.4231 20.1469 26.0637C20.5063 25.7043 20.7082 25.2167 20.7082 24.7084V7.20842C20.7082 6.70008 20.5063 6.21257 20.1469 5.85313C19.7874 5.49368 19.2999 5.29175 18.7916 5.29175H15.8749C15.3226 5.29175 14.8749 4.84403 14.8749 4.29175C14.8749 3.73946 15.3226 3.29175 15.8749 3.29175H18.7916C19.8303 3.29175 20.8266 3.7044 21.5611 4.43891C22.2956 5.17343 22.7082 6.16965 22.7082 7.20842V24.7084C22.7082 25.7472 22.2956 26.7434 21.5611 27.4779C20.8266 28.2124 19.8303 28.6251 18.7916 28.6251H4.20823C3.16947 28.6251 2.17325 28.2124 1.43873 27.4779C0.704213 26.7434 0.291565 25.7472 0.291565 24.7084V7.20842C0.291565 6.16965 0.704212 5.17343 1.43873 4.43891Z" fill="#C1A771"/>
<path fill-rule="evenodd" clip-rule="evenodd" d="M10.0417 2.375C8.98312 2.375 8.125 3.23312 8.125 4.29167C8.125 5.35021 8.98312 6.20833 10.0417 6.20833H12.9583C14.0169 6.20833 14.875 5.35021 14.875 4.29167C14.875 3.23312 14.0169 2.375 12.9583 2.375H10.0417ZM6.125 4.29167C6.125 2.12855 7.87855 0.375 10.0417 0.375H12.9583C15.1214 0.375 16.875 2.12855 16.875 4.29167C16.875 6.45478 15.1214 8.20833 12.9583 8.20833H10.0417C7.87855 8.20833 6.125 6.45478 6.125 4.29167Z" fill="#C1A771"/>
<path fill-rule="evenodd" clip-rule="evenodd" d="M7.125 13.5C7.67728 13.5 8.125 13.9477 8.125 14.5V21.7917C8.125 22.344 7.67728 22.7917 7.125 22.7917C6.57272 22.7917 6.125 22.344 6.125 21.7917V14.5C6.125 13.9477 6.57272 13.5 7.125 13.5Z" fill="#C1A771"/>
<path fill-rule="evenodd" clip-rule="evenodd" d="M11.5 19.3333C12.0523 19.3333 12.5 19.781 12.5 20.3333V21.7916C12.5 22.3439 12.0523 22.7916 11.5 22.7916C10.9477 22.7916 10.5 22.3439 10.5 21.7916V20.3333C10.5 19.781 10.9477 19.3333 11.5 19.3333Z" fill="#C1A771"/>
<path fill-rule="evenodd" clip-rule="evenodd" d="M15.875 16.4167C16.4273 16.4167 16.875 16.8645 16.875 17.4167V21.7917C16.875 22.344 16.4273 22.7917 15.875 22.7917C15.3227 22.7917 14.875 22.344 14.875 21.7917V17.4167C14.875 16.8645 15.3227 16.4167 15.875 16.4167Z" fill="#C1A771"/>
</svg>
