<svg width="29" height="27" viewBox="0 0 29 27" fill="none" xmlns="http://www.w3.org/2000/svg">
<path fill-rule="evenodd" clip-rule="evenodd" d="M0.374962 8.07637C0.417111 3.96523 3.68274 0.46875 7.87452 0.46875C10.4479 0.46875 12.3429 1.74216 13.556 2.94662C13.9285 3.3165 14.2429 3.68544 14.4999 4.01951C14.757 3.68544 15.0713 3.3165 15.4438 2.94662C16.6569 1.74216 18.5519 0.46875 21.1253 0.46875C25.3171 0.46875 28.5827 3.96523 28.6249 8.07637L28.6249 8.07665C28.7052 16.134 22.2309 21.7204 15.6768 26.1693C15.3296 26.4052 14.9196 26.5313 14.4999 26.5313C14.0802 26.5313 13.6702 26.4052 13.3231 26.1693C6.76828 21.7205 0.293892 16.1339 0.37496 8.07656L0.374962 8.07637ZM21.1253 2.46875C19.2608 2.46875 17.8431 3.38284 16.853 4.36588C16.36 4.8553 15.9891 5.34723 15.7422 5.71623C15.6193 5.89991 15.5287 6.05082 15.4704 6.15257C15.4413 6.20338 15.4204 6.24173 15.4077 6.26553L15.3949 6.29001L15.3943 6.29096C15.3942 6.29118 15.3941 6.2914 15.394 6.29162C15.3942 6.2913 15.3943 6.29096 14.4999 5.84375C13.6055 6.29096 13.6057 6.2913 13.6058 6.29162L13.6061 6.29218L13.605 6.29L13.5921 6.26553C13.5794 6.24173 13.5585 6.20338 13.5294 6.15257C13.4711 6.05082 13.3805 5.89991 13.2576 5.71623C13.0108 5.34723 12.6398 4.8553 12.1469 4.36588C11.1567 3.38284 9.73903 2.46875 7.87452 2.46875C4.85308 2.46875 2.40664 5.00693 2.37486 8.09668L1.37491 8.08662L2.37486 8.09687C2.30564 14.9868 7.83922 20.0302 14.4463 24.5145L14.4472 24.5151C14.4627 24.5257 14.4811 24.5313 14.4999 24.5313C14.5187 24.5313 14.5371 24.5257 14.5526 24.5151L14.5535 24.5145C21.1599 20.0302 26.6935 14.9869 26.625 8.09687C26.5933 5.00704 24.1468 2.46875 21.1253 2.46875ZM14.4999 5.84375L13.6055 6.29096C13.6059 6.29175 13.6063 6.29253 13.6067 6.29331C13.7765 6.63074 14.122 6.84375 14.4999 6.84375C14.8784 6.84375 15.2245 6.63003 15.394 6.29162" fill="#C1A771"/>
</svg>
