<svg width="31" height="31" viewBox="0 0 31 31" fill="none" xmlns="http://www.w3.org/2000/svg">
<path d="M15.4999 9.66675C14.7264 9.66675 13.9845 9.97404 13.4375 10.521C12.8905 11.068 12.5832 11.8099 12.5832 12.5834C12.5863 13.0924 12.7225 13.5917 12.9784 14.0318C13.2342 14.4718 13.6008 14.8373 14.0416 15.0918V19.8751C14.0416 20.2619 14.1952 20.6328 14.4687 20.9063C14.7422 21.1798 15.1131 21.3334 15.4999 21.3334C15.8867 21.3334 16.2576 21.1798 16.5311 20.9063C16.8046 20.6328 16.9582 20.2619 16.9582 19.8751V15.0918C17.3991 14.8373 17.7656 14.4718 18.0214 14.0318C18.2773 13.5917 18.4135 13.0924 18.4166 12.5834C18.4166 11.8099 18.1093 11.068 17.5623 10.521C17.0153 9.97404 16.2735 9.66675 15.4999 9.66675ZM15.4999 0.916748C12.6156 0.916748 9.79605 1.77205 7.39784 3.37448C4.99962 4.97692 3.13044 7.25453 2.02666 9.91928C0.922884 12.584 0.634085 15.5163 1.19679 18.3451C1.75949 21.174 3.14842 23.7725 5.18793 25.8121C7.22745 27.8516 9.82595 29.2405 12.6548 29.8032C15.4837 30.3659 18.4159 30.0771 21.0807 28.9733C23.7455 27.8696 26.0231 26.0004 27.6255 23.6021C29.2279 21.2039 30.0832 18.3844 30.0832 15.5001C30.0832 13.585 29.706 11.6886 28.9731 9.91928C28.2403 8.14995 27.1661 6.5423 25.8119 5.18811C24.4577 3.83392 22.85 2.75972 21.0807 2.02684C19.3114 1.29396 17.415 0.916748 15.4999 0.916748ZM15.4999 27.1668C13.1925 27.1668 10.9368 26.4825 9.01825 25.2006C7.09968 23.9186 5.60433 22.0965 4.72131 19.9647C3.83829 17.8329 3.60725 15.4871 4.05741 13.224C4.50757 10.9609 5.61871 8.88212 7.25033 7.2505C8.88194 5.61889 10.9607 4.50775 13.2239 4.05759C15.487 3.60743 17.8327 3.83847 19.9645 4.72149C22.0963 5.60451 23.9184 7.09986 25.2004 9.01843C26.4823 10.937 27.1666 13.1926 27.1666 15.5001C27.1666 18.5943 25.9374 21.5617 23.7495 23.7497C21.5616 25.9376 18.5941 27.1667 15.4999 27.1668Z" fill="#C1A771"/>
</svg>
