<svg width="29" height="27" viewBox="0 0 29 27" fill="none" xmlns="http://www.w3.org/2000/svg">
<path d="M12.6764 5.66757L13.3637 4.89769V9.58218C13.3637 9.92825 13.4978 10.2601 13.7365 10.5049C13.9751 10.7496 14.2989 10.887 14.6364 10.887C14.974 10.887 15.2977 10.7496 15.5364 10.5049C15.7751 10.2601 15.9091 9.92825 15.9091 9.58218V4.89769L16.5964 5.61537C16.7119 5.74915 16.853 5.85718 17.011 5.93276C17.1689 6.00834 17.3402 6.04986 17.5145 6.05476C17.6887 6.05965 17.862 6.02781 18.0237 5.96121C18.1854 5.8946 18.3321 5.79466 18.4546 5.66757C18.5739 5.54626 18.6686 5.40194 18.7332 5.24293C18.7978 5.08392 18.8311 4.91337 18.8311 4.74111C18.8311 4.56885 18.7978 4.3983 18.7332 4.23928C18.6686 4.08027 18.5739 3.93595 18.4546 3.81465L15.54 0.826496C15.419 0.707699 15.2763 0.614577 15.12 0.552473C14.8102 0.421962 14.4626 0.421962 14.1528 0.552473C13.9965 0.614577 13.8538 0.707699 13.7328 0.826496L10.8182 3.76245C10.5718 4.01509 10.4334 4.35773 10.4334 4.71501C10.4334 5.07229 10.5718 5.41493 10.8182 5.66757C11.0646 5.9202 11.3988 6.06213 11.7473 6.06213C12.0958 6.06213 12.43 5.9202 12.6764 5.66757ZM14.6364 13.4968C13.8812 13.4968 13.143 13.7264 12.5151 14.1565C11.8872 14.5867 11.3979 15.198 11.1089 15.9133C10.8199 16.6286 10.7443 17.4157 10.8916 18.1751C11.0389 18.9345 11.4026 19.632 11.9366 20.1795C12.4705 20.7269 13.1509 21.0998 13.8915 21.2508C14.6322 21.4018 15.3999 21.3243 16.0976 21.028C16.7952 20.7317 17.3916 20.23 17.8111 19.5862C18.2307 18.9425 18.4546 18.1856 18.4546 17.4114C18.4546 16.3732 18.0523 15.3775 17.3363 14.6434C16.6202 13.9092 15.6491 13.4968 14.6364 13.4968ZM14.6364 18.7163C14.3847 18.7163 14.1386 18.6397 13.9293 18.4964C13.72 18.353 13.5569 18.1492 13.4606 17.9108C13.3642 17.6723 13.339 17.41 13.3881 17.1568C13.4372 16.9037 13.5585 16.6712 13.7365 16.4887C13.9145 16.3062 14.1412 16.182 14.3881 16.1316C14.635 16.0813 14.8909 16.1071 15.1235 16.2059C15.356 16.3046 15.5548 16.4719 15.6946 16.6865C15.8345 16.901 15.9091 17.1533 15.9091 17.4114C15.9091 17.7575 15.7751 18.0894 15.5364 18.3341C15.2977 18.5788 14.974 18.7163 14.6364 18.7163ZM5.72732 17.4114C5.72732 17.6695 5.80197 17.9218 5.94182 18.1364C6.08167 18.3509 6.28044 18.5182 6.513 18.6169C6.74556 18.7157 7.00146 18.7415 7.24835 18.6912C7.49523 18.6409 7.72201 18.5166 7.9 18.3341C8.078 18.1516 8.19921 17.9191 8.24832 17.666C8.29743 17.4128 8.27223 17.1505 8.1759 16.9121C8.07957 16.6736 7.91644 16.4698 7.70714 16.3264C7.49784 16.1831 7.25177 16.1065 7.00005 16.1065C6.6625 16.1065 6.33878 16.244 6.1001 16.4887C5.86141 16.7334 5.72732 17.0653 5.72732 17.4114ZM23.5455 17.4114C23.5455 17.1533 23.4709 16.901 23.331 16.6865C23.1912 16.4719 22.9924 16.3046 22.7598 16.2059C22.5273 16.1071 22.2714 16.0813 22.0245 16.1316C21.7776 16.182 21.5508 16.3062 21.3728 16.4887C21.1948 16.6712 21.0736 16.9037 21.0245 17.1568C20.9754 17.41 21.0006 17.6723 21.0969 17.9108C21.1933 18.1492 21.3564 18.353 21.5657 18.4964C21.775 18.6397 22.0211 18.7163 22.2728 18.7163C22.6103 18.7163 22.934 18.5788 23.1727 18.3341C23.4114 18.0894 23.5455 17.7575 23.5455 17.4114ZM24.8182 8.27731H19.7273C19.3898 8.27731 19.0661 8.41478 18.8274 8.6595C18.5887 8.90421 18.4546 9.2361 18.4546 9.58218C18.4546 9.92825 18.5887 10.2601 18.8274 10.5049C19.0661 10.7496 19.3898 10.887 19.7273 10.887H24.8182C25.1558 10.887 25.4795 11.0245 25.7182 11.2692C25.9569 11.5139 26.091 11.8458 26.091 12.1919V22.6309C26.091 22.977 25.9569 23.3089 25.7182 23.5536C25.4795 23.7983 25.1558 23.9358 24.8182 23.9358H4.4546C4.11705 23.9358 3.79332 23.7983 3.55464 23.5536C3.31596 23.3089 3.18187 22.977 3.18187 22.6309V12.1919C3.18187 11.8458 3.31596 11.5139 3.55464 11.2692C3.79332 11.0245 4.11705 10.887 4.4546 10.887H9.5455C9.88305 10.887 10.2068 10.7496 10.4455 10.5049C10.6841 10.2601 10.8182 9.92825 10.8182 9.58218C10.8182 9.2361 10.6841 8.90421 10.4455 8.6595C10.2068 8.41478 9.88305 8.27731 9.5455 8.27731H4.4546C3.44195 8.27731 2.47078 8.68974 1.75473 9.42387C1.03869 10.158 0.636414 11.1537 0.636414 12.1919V22.6309C0.636414 23.6691 1.03869 24.6648 1.75473 25.3989C2.47078 26.1331 3.44195 26.5455 4.4546 26.5455H24.8182C25.8309 26.5455 26.802 26.1331 27.5181 25.3989C28.2341 24.6648 28.6364 23.6691 28.6364 22.6309V12.1919C28.6364 11.1537 28.2341 10.158 27.5181 9.42387C26.802 8.68974 25.8309 8.27731 24.8182 8.27731Z" fill="#C1A771"/>
</svg>
