<svg width="29" height="23" viewBox="0 0 29 23" fill="none" xmlns="http://www.w3.org/2000/svg">
<path d="M5.75 6.375C5.75 6.14294 5.84219 5.92038 6.00628 5.75628C6.17038 5.59219 6.39294 5.5 6.625 5.5H18.875C19.1071 5.5 19.3296 5.59219 19.4937 5.75628C19.6578 5.92038 19.75 6.14294 19.75 6.375C19.75 6.60706 19.6578 6.82962 19.4937 6.99372C19.3296 7.15781 19.1071 7.25 18.875 7.25H6.625C6.39294 7.25 6.17038 7.15781 6.00628 6.99372C5.84219 6.82962 5.75 6.60706 5.75 6.375Z" fill="#C1A771"/>
<path d="M15.375 10.75C15.1429 10.75 14.9204 10.8422 14.7563 11.0063C14.5922 11.1704 14.5 11.3929 14.5 11.625C14.5 11.8571 14.5922 12.0796 14.7563 12.2437C14.9204 12.4078 15.1429 12.5 15.375 12.5H18.875C19.1071 12.5 19.3296 12.4078 19.4937 12.2437C19.6578 12.0796 19.75 11.8571 19.75 11.625C19.75 11.3929 19.6578 11.1704 19.4937 11.0063C19.3296 10.8422 19.1071 10.75 18.875 10.75H15.375Z" fill="#C1A771"/>
<path d="M14.5 16.875C14.5 16.6429 14.5922 16.4204 14.7563 16.2563C14.9204 16.0922 15.1429 16 15.375 16H18.875C19.1071 16 19.3296 16.0922 19.4937 16.2563C19.6578 16.4204 19.75 16.6429 19.75 16.875C19.75 17.1071 19.6578 17.3296 19.4937 17.4937C19.3296 17.6578 19.1071 17.75 18.875 17.75H15.375C15.1429 17.75 14.9204 17.6578 14.7563 17.4937C14.5922 17.3296 14.5 17.1071 14.5 16.875Z" fill="#C1A771"/>
<path d="M6.625 10.75C6.39294 10.75 6.17038 10.8422 6.00628 11.0063C5.84219 11.1704 5.75 11.3929 5.75 11.625V16.875C5.75 17.1071 5.84219 17.3296 6.00628 17.4937C6.17038 17.6578 6.39294 17.75 6.625 17.75H11.875C12.1071 17.75 12.3296 17.6578 12.4937 17.4937C12.6578 17.3296 12.75 17.1071 12.75 16.875V11.625C12.75 11.3929 12.6578 11.1704 12.4937 11.0063C12.3296 10.8422 12.1071 10.75 11.875 10.75H6.625ZM7.5 16V12.5H11V16H7.5Z" fill="#C1A771"/>
<path d="M0.499908 3.75C0.499908 2.82174 0.868657 1.9315 1.52503 1.27513C2.18141 0.618749 3.07165 0.25 3.99991 0.25H21.4999C22.4282 0.25 23.3184 0.618749 23.9748 1.27513C24.6312 1.9315 24.9999 2.82174 24.9999 3.75V5.5C25.9282 5.5 26.8184 5.86875 27.4748 6.52513C28.1312 7.1815 28.4999 8.07174 28.4999 9V18.625C28.4999 19.7853 28.039 20.8981 27.2185 21.7186C26.398 22.5391 25.2852 23 24.1249 23H4.87491C3.71459 23 2.60179 22.5391 1.78132 21.7186C0.960845 20.8981 0.499908 19.7853 0.499908 18.625V3.75ZM23.2499 3.75C23.2499 3.28587 23.0655 2.84075 22.7373 2.51256C22.4092 2.18437 21.964 2 21.4999 2H3.99991C3.53578 2 3.09066 2.18437 2.76247 2.51256C2.43428 2.84075 2.24991 3.28587 2.24991 3.75V18.625C2.24991 19.3212 2.52647 19.9889 3.01875 20.4812C3.51104 20.9734 4.17872 21.25 4.87491 21.25H24.1249C24.8211 21.25 25.4888 20.9734 25.9811 20.4812C26.4733 19.9889 26.7499 19.3212 26.7499 18.625V9C26.7499 8.53587 26.5655 8.09075 26.2373 7.76256C25.9092 7.43437 25.464 7.25 24.9999 7.25V18.625C24.9999 18.8571 24.9077 19.0796 24.7436 19.2437C24.5795 19.4078 24.357 19.5 24.1249 19.5C23.8928 19.5 23.6703 19.4078 23.5062 19.2437C23.3421 19.0796 23.2499 18.8571 23.2499 18.625V3.75Z" fill="#C1A771"/>
</svg>
