<svg width="29" height="29" viewBox="0 0 29 29" fill="none" xmlns="http://www.w3.org/2000/svg">
<path d="M19.9688 0.315186L19.2512 1.10159C17.6445 2.87019 16.32 3.66097 15.2175 4.17831C14.115 4.69456 13.1886 4.84878 12.2786 5.5455C11.3084 6.28925 9.89859 7.7155 9.30469 10.2617C8.03156 10.5396 7.09969 11.0274 6.36469 11.6628C5.63844 12.2907 5.09156 13.0049 4.41781 13.7825C4.41234 13.7913 4.42109 13.8077 4.41781 13.8164C3.45094 14.9277 2.60547 16.1242 0.964844 16.7564L0.28125 17.0299V28.7188H21.1314C22.3269 28.6542 23.1559 27.8263 23.6602 27.0092C24.1633 26.1933 24.4422 25.3096 24.5833 24.5833C24.9464 22.7327 25.6081 17.405 25.6081 17.405L25.6431 17.3033V17.2005C25.6081 16.4611 25.3041 15.8333 24.9245 15.2514L26.155 11.595L28.1041 8.65503L28.6509 7.86862L27.9323 7.22003L20.7552 0.998779L19.9688 0.315186ZM20.0377 3.323L25.7448 8.27987L24.2409 10.5002L24.1392 10.6041L24.1042 10.7747L23.1133 13.7136C22.5959 13.5003 22.0633 13.3505 21.4727 13.3724H21.4037L14.5 13.4063H13.4062V17.6446C13.2531 18.8367 12.5903 19.2983 11.7656 19.6275C11.4922 19.738 11.4583 19.6778 11.2188 19.7292V13.3735C11.0394 9.31894 12.4831 8.1519 13.6119 7.28893C13.9236 7.0494 14.8369 6.77269 16.1406 6.16128C17.23 5.64831 18.5841 4.72956 20.0377 3.32409V3.323ZM9.10016 12.7227C9.09578 12.971 9.01812 13.146 9.03125 13.4063V22.1563H10.125C10.125 22.1563 11.2953 22.1432 12.552 21.6433C13.8077 21.1435 15.3247 19.9732 15.5938 17.918V15.5938L21.4727 15.5599H21.5066C21.9867 15.5336 22.4577 15.6986 22.8164 16.0188C23.1752 16.339 23.3924 16.7883 23.4206 17.2683C23.4163 17.2858 23.3659 17.6916 23.3528 17.7813H18.875V19.9688H23.0794C22.9634 20.8142 22.8573 21.3447 22.737 22.1563H18.875V24.3438H22.3958C22.2665 24.8729 22.059 25.3798 21.78 25.8477C21.4814 26.3344 21.2244 26.5182 20.9947 26.5313H2.46875V18.3621C4.24172 17.4214 5.34422 16.0685 6.05734 15.2525C6.79672 14.406 7.30422 13.765 7.80078 13.3385C8.12563 13.0607 8.63422 12.9021 9.10016 12.7227Z" fill="#C1A771"/>
</svg>
