<svg width="35" height="35" viewBox="0 0 35 35" fill="none" xmlns="http://www.w3.org/2000/svg">
<path d="M17.5 2.91675C10.2623 2.91675 4.375 8.8055 4.375 16.0418C4.375 20.8951 7.02917 25.1301 10.9565 27.4022L7.94208 29.4118C7.68176 29.5853 7.48417 29.838 7.37849 30.1325C7.27282 30.427 7.26466 30.7477 7.35523 31.0472C7.44579 31.3467 7.63028 31.6091 7.88144 31.7957C8.1326 31.9823 8.43711 32.0832 8.75 32.0834H26.25C26.563 32.0835 26.8677 31.9828 27.1191 31.7964C27.3705 31.6099 27.5553 31.3475 27.646 31.0479C27.7368 30.7483 27.7287 30.4275 27.6231 30.1329C27.5174 29.8382 27.3198 29.5854 27.0594 29.4118L24.045 27.4022C27.9708 25.1301 30.625 20.8951 30.625 16.0418C30.625 8.8055 24.7377 2.91675 17.5 2.91675ZM17.5 26.2501C11.8723 26.2501 7.29167 21.6695 7.29167 16.0418C7.29167 10.4126 11.8723 5.83342 17.5 5.83342C23.1277 5.83342 27.7083 10.4126 27.7083 16.0418C27.7083 21.6695 23.1277 26.2501 17.5 26.2501Z" fill="#C1A771"/>
<path d="M17.5001 8.75C13.4795 8.75 10.2084 12.021 10.2084 16.0417C10.2084 20.0623 13.4795 23.3333 17.5001 23.3333C21.5207 23.3333 24.7918 20.0623 24.7918 16.0417C24.7918 12.021 21.5207 8.75 17.5001 8.75ZM17.5001 20.4167C15.088 20.4167 13.1251 18.4538 13.1251 16.0417C13.1251 13.6296 15.088 11.6667 17.5001 11.6667C19.9122 11.6667 21.8751 13.6296 21.8751 16.0417C21.8751 18.4538 19.9122 20.4167 17.5001 20.4167Z" fill="#C1A771"/>
</svg>
